<?xml version="1.0" encoding="utf-8" standalone="no"?>
<!DOCTYPE svg PUBLIC "-//W3C//DTD SVG 1.1//EN"
  "http://www.w3.org/Graphics/SVG/1.1/DTD/svg11.dtd">
<svg xmlns:xlink="http://www.w3.org/1999/xlink" width="460.8pt" height="345.6pt" viewBox="0 0 460.8 345.6" xmlns="http://www.w3.org/2000/svg" version="1.1">
 <metadata>
  <rdf:RDF xmlns:dc="http://purl.org/dc/elements/1.1/" xmlns:cc="http://creativecommons.org/ns#" xmlns:rdf="http://www.w3.org/1999/02/22-rdf-syntax-ns#">
   <cc:Work>
    <dc:type rdf:resource="http://purl.org/dc/dcmitype/StillImage"/>
    <dc:date>2022-11-06T11:54:41.879975</dc:date>
    <dc:format>image/svg+xml</dc:format>
    <dc:creator>
     <cc:Agent>
      <dc:title>Matplotlib v3.5.2, https://matplotlib.org/</dc:title>
     </cc:Agent>
    </dc:creator>
   </cc:Work>
  </rdf:RDF>
 </metadata>
 <defs>
  <style type="text/css">*{stroke-linejoin: round; stroke-linecap: butt}</style>
 </defs>
 <g id="figure_1">
  <g id="patch_1">
   <path d="M 0 345.6 
L 460.8 345.6 
L 460.8 0 
L 0 0 
z
" style="fill: #ffffff"/>
  </g>
  <g id="axes_1">
   <g id="patch_2">
    <path d="M 57.6 307.584 
L 414.72 307.584 
L 414.72 41.472 
L 57.6 41.472 
z
" style="fill: #ffffff"/>
   </g>
   <g id="matplotlib.axis_1">
    <g id="xtick_1">
     <g id="line2d_1">
      <defs>
       <path id="mf21e06ddd5" d="M 0 0 
L 0 3.5 
" style="stroke: #000000; stroke-width: 0.8"/>
      </defs>
      <g>
       <use xlink:href="#mf21e06ddd5" x="57.6" y="307.584" style="stroke: #000000; stroke-width: 0.8"/>
      </g>
     </g>
     <g id="text_1">
      <!-- 0 -->
      <g transform="translate(54.41875 322.182437)scale(0.1 -0.1)">
       <defs>
        <path id="DejaVuSans-30" d="M 2034 4250 
Q 1547 4250 1301 3770 
Q 1056 3291 1056 2328 
Q 1056 1369 1301 889 
Q 1547 409 2034 409 
Q 2525 409 2770 889 
Q 3016 1369 3016 2328 
Q 3016 3291 2770 3770 
Q 2525 4250 2034 4250 
z
M 2034 4750 
Q 2819 4750 3233 4129 
Q 3647 3509 3647 2328 
Q 3647 1150 3233 529 
Q 2819 -91 2034 -91 
Q 1250 -91 836 529 
Q 422 1150 422 2328 
Q 422 3509 836 4129 
Q 1250 4750 2034 4750 
z
" transform="scale(0.015625)"/>
       </defs>
       <use xlink:href="#DejaVuSans-30"/>
      </g>
     </g>
    </g>
    <g id="xtick_2">
     <g id="line2d_2">
      <g>
       <use xlink:href="#mf21e06ddd5" x="146.88" y="307.584" style="stroke: #000000; stroke-width: 0.8"/>
      </g>
     </g>
     <g id="text_2">
      <!-- 250 -->
      <g transform="translate(137.33625 322.182437)scale(0.1 -0.1)">
       <defs>
        <path id="DejaVuSans-32" d="M 1228 531 
L 3431 531 
L 3431 0 
L 469 0 
L 469 531 
Q 828 903 1448 1529 
Q 2069 2156 2228 2338 
Q 2531 2678 2651 2914 
Q 2772 3150 2772 3378 
Q 2772 3750 2511 3984 
Q 2250 4219 1831 4219 
Q 1534 4219 1204 4116 
Q 875 4013 500 3803 
L 500 4441 
Q 881 4594 1212 4672 
Q 1544 4750 1819 4750 
Q 2544 4750 2975 4387 
Q 3406 4025 3406 3419 
Q 3406 3131 3298 2873 
Q 3191 2616 2906 2266 
Q 2828 2175 2409 1742 
Q 1991 1309 1228 531 
z
" transform="scale(0.015625)"/>
        <path id="DejaVuSans-35" d="M 691 4666 
L 3169 4666 
L 3169 4134 
L 1269 4134 
L 1269 2991 
Q 1406 3038 1543 3061 
Q 1681 3084 1819 3084 
Q 2600 3084 3056 2656 
Q 3513 2228 3513 1497 
Q 3513 744 3044 326 
Q 2575 -91 1722 -91 
Q 1428 -91 1123 -41 
Q 819 9 494 109 
L 494 744 
Q 775 591 1075 516 
Q 1375 441 1709 441 
Q 2250 441 2565 725 
Q 2881 1009 2881 1497 
Q 2881 1984 2565 2268 
Q 2250 2553 1709 2553 
Q 1456 2553 1204 2497 
Q 953 2441 691 2322 
L 691 4666 
z
" transform="scale(0.015625)"/>
       </defs>
       <use xlink:href="#DejaVuSans-32"/>
       <use xlink:href="#DejaVuSans-35" x="63.623047"/>
       <use xlink:href="#DejaVuSans-30" x="127.246094"/>
      </g>
     </g>
    </g>
    <g id="xtick_3">
     <g id="line2d_3">
      <g>
       <use xlink:href="#mf21e06ddd5" x="236.16" y="307.584" style="stroke: #000000; stroke-width: 0.8"/>
      </g>
     </g>
     <g id="text_3">
      <!-- 500 -->
      <g transform="translate(226.61625 322.182437)scale(0.1 -0.1)">
       <use xlink:href="#DejaVuSans-35"/>
       <use xlink:href="#DejaVuSans-30" x="63.623047"/>
       <use xlink:href="#DejaVuSans-30" x="127.246094"/>
      </g>
     </g>
    </g>
    <g id="xtick_4">
     <g id="line2d_4">
      <g>
       <use xlink:href="#mf21e06ddd5" x="325.44" y="307.584" style="stroke: #000000; stroke-width: 0.8"/>
      </g>
     </g>
     <g id="text_4">
      <!-- 750 -->
      <g transform="translate(315.89625 322.182437)scale(0.1 -0.1)">
       <defs>
        <path id="DejaVuSans-37" d="M 525 4666 
L 3525 4666 
L 3525 4397 
L 1831 0 
L 1172 0 
L 2766 4134 
L 525 4134 
L 525 4666 
z
" transform="scale(0.015625)"/>
       </defs>
       <use xlink:href="#DejaVuSans-37"/>
       <use xlink:href="#DejaVuSans-35" x="63.623047"/>
       <use xlink:href="#DejaVuSans-30" x="127.246094"/>
      </g>
     </g>
    </g>
    <g id="xtick_5">
     <g id="line2d_5">
      <g>
       <use xlink:href="#mf21e06ddd5" x="414.72" y="307.584" style="stroke: #000000; stroke-width: 0.8"/>
      </g>
     </g>
     <g id="text_5">
      <!-- 1000 -->
      <g transform="translate(401.995 322.182437)scale(0.1 -0.1)">
       <defs>
        <path id="DejaVuSans-31" d="M 794 531 
L 1825 531 
L 1825 4091 
L 703 3866 
L 703 4441 
L 1819 4666 
L 2450 4666 
L 2450 531 
L 3481 531 
L 3481 0 
L 794 0 
L 794 531 
z
" transform="scale(0.015625)"/>
       </defs>
       <use xlink:href="#DejaVuSans-31"/>
       <use xlink:href="#DejaVuSans-30" x="63.623047"/>
       <use xlink:href="#DejaVuSans-30" x="127.246094"/>
       <use xlink:href="#DejaVuSans-30" x="190.869141"/>
      </g>
     </g>
    </g>
    <g id="text_6">
     <!-- Time t -->
     <g transform="translate(220.377187 335.860562)scale(0.1 -0.1)">
      <defs>
       <path id="DejaVuSans-54" d="M -19 4666 
L 3928 4666 
L 3928 4134 
L 2272 4134 
L 2272 0 
L 1638 0 
L 1638 4134 
L -19 4134 
L -19 4666 
z
" transform="scale(0.015625)"/>
       <path id="DejaVuSans-69" d="M 603 3500 
L 1178 3500 
L 1178 0 
L 603 0 
L 603 3500 
z
M 603 4863 
L 1178 4863 
L 1178 4134 
L 603 4134 
L 603 4863 
z
" transform="scale(0.015625)"/>
       <path id="DejaVuSans-6d" d="M 3328 2828 
Q 3544 3216 3844 3400 
Q 4144 3584 4550 3584 
Q 5097 3584 5394 3201 
Q 5691 2819 5691 2113 
L 5691 0 
L 5113 0 
L 5113 2094 
Q 5113 2597 4934 2840 
Q 4756 3084 4391 3084 
Q 3944 3084 3684 2787 
Q 3425 2491 3425 1978 
L 3425 0 
L 2847 0 
L 2847 2094 
Q 2847 2600 2669 2842 
Q 2491 3084 2119 3084 
Q 1678 3084 1418 2786 
Q 1159 2488 1159 1978 
L 1159 0 
L 581 0 
L 581 3500 
L 1159 3500 
L 1159 2956 
Q 1356 3278 1631 3431 
Q 1906 3584 2284 3584 
Q 2666 3584 2933 3390 
Q 3200 3197 3328 2828 
z
" transform="scale(0.015625)"/>
       <path id="DejaVuSans-65" d="M 3597 1894 
L 3597 1613 
L 953 1613 
Q 991 1019 1311 708 
Q 1631 397 2203 397 
Q 2534 397 2845 478 
Q 3156 559 3463 722 
L 3463 178 
Q 3153 47 2828 -22 
Q 2503 -91 2169 -91 
Q 1331 -91 842 396 
Q 353 884 353 1716 
Q 353 2575 817 3079 
Q 1281 3584 2069 3584 
Q 2775 3584 3186 3129 
Q 3597 2675 3597 1894 
z
M 3022 2063 
Q 3016 2534 2758 2815 
Q 2500 3097 2075 3097 
Q 1594 3097 1305 2825 
Q 1016 2553 972 2059 
L 3022 2063 
z
" transform="scale(0.015625)"/>
       <path id="DejaVuSans-20" transform="scale(0.015625)"/>
       <path id="DejaVuSans-74" d="M 1172 4494 
L 1172 3500 
L 2356 3500 
L 2356 3053 
L 1172 3053 
L 1172 1153 
Q 1172 725 1289 603 
Q 1406 481 1766 481 
L 2356 481 
L 2356 0 
L 1766 0 
Q 1100 0 847 248 
Q 594 497 594 1153 
L 594 3053 
L 172 3053 
L 172 3500 
L 594 3500 
L 594 4494 
L 1172 4494 
z
" transform="scale(0.015625)"/>
      </defs>
      <use xlink:href="#DejaVuSans-54"/>
      <use xlink:href="#DejaVuSans-69" x="57.958984"/>
      <use xlink:href="#DejaVuSans-6d" x="85.742188"/>
      <use xlink:href="#DejaVuSans-65" x="183.154297"/>
      <use xlink:href="#DejaVuSans-20" x="244.677734"/>
      <use xlink:href="#DejaVuSans-74" x="276.464844"/>
     </g>
    </g>
   </g>
   <g id="matplotlib.axis_2">
    <g id="ytick_1">
     <g id="line2d_6">
      <defs>
       <path id="mfe833dbb81" d="M 0 0 
L -3.5 0 
" style="stroke: #000000; stroke-width: 0.8"/>
      </defs>
      <g>
       <use xlink:href="#mfe833dbb81" x="57.6" y="307.584" style="stroke: #000000; stroke-width: 0.8"/>
      </g>
     </g>
     <g id="text_7">
      <!-- 0.20 -->
      <g transform="translate(28.334375 311.383219)scale(0.1 -0.1)">
       <defs>
        <path id="DejaVuSans-2e" d="M 684 794 
L 1344 794 
L 1344 0 
L 684 0 
L 684 794 
z
" transform="scale(0.015625)"/>
       </defs>
       <use xlink:href="#DejaVuSans-30"/>
       <use xlink:href="#DejaVuSans-2e" x="63.623047"/>
       <use xlink:href="#DejaVuSans-32" x="95.410156"/>
       <use xlink:href="#DejaVuSans-30" x="159.033203"/>
      </g>
     </g>
    </g>
    <g id="ytick_2">
     <g id="line2d_7">
      <g>
       <use xlink:href="#mfe833dbb81" x="57.6" y="218.88" style="stroke: #000000; stroke-width: 0.8"/>
      </g>
     </g>
     <g id="text_8">
      <!-- 0.45 -->
      <g transform="translate(28.334375 222.679219)scale(0.1 -0.1)">
       <defs>
        <path id="DejaVuSans-34" d="M 2419 4116 
L 825 1625 
L 2419 1625 
L 2419 4116 
z
M 2253 4666 
L 3047 4666 
L 3047 1625 
L 3713 1625 
L 3713 1100 
L 3047 1100 
L 3047 0 
L 2419 0 
L 2419 1100 
L 313 1100 
L 313 1709 
L 2253 4666 
z
" transform="scale(0.015625)"/>
       </defs>
       <use xlink:href="#DejaVuSans-30"/>
       <use xlink:href="#DejaVuSans-2e" x="63.623047"/>
       <use xlink:href="#DejaVuSans-34" x="95.410156"/>
       <use xlink:href="#DejaVuSans-35" x="159.033203"/>
      </g>
     </g>
    </g>
    <g id="ytick_3">
     <g id="line2d_8">
      <g>
       <use xlink:href="#mfe833dbb81" x="57.6" y="130.176" style="stroke: #000000; stroke-width: 0.8"/>
      </g>
     </g>
     <g id="text_9">
      <!-- 0.70 -->
      <g transform="translate(28.334375 133.975219)scale(0.1 -0.1)">
       <use xlink:href="#DejaVuSans-30"/>
       <use xlink:href="#DejaVuSans-2e" x="63.623047"/>
       <use xlink:href="#DejaVuSans-37" x="95.410156"/>
       <use xlink:href="#DejaVuSans-30" x="159.033203"/>
      </g>
     </g>
    </g>
    <g id="ytick_4">
     <g id="line2d_9">
      <g>
       <use xlink:href="#mfe833dbb81" x="57.6" y="41.472" style="stroke: #000000; stroke-width: 0.8"/>
      </g>
     </g>
     <g id="text_10">
      <!-- 0.95 -->
      <g transform="translate(28.334375 45.271219)scale(0.1 -0.1)">
       <defs>
        <path id="DejaVuSans-39" d="M 703 97 
L 703 672 
Q 941 559 1184 500 
Q 1428 441 1663 441 
Q 2288 441 2617 861 
Q 2947 1281 2994 2138 
Q 2813 1869 2534 1725 
Q 2256 1581 1919 1581 
Q 1219 1581 811 2004 
Q 403 2428 403 3163 
Q 403 3881 828 4315 
Q 1253 4750 1959 4750 
Q 2769 4750 3195 4129 
Q 3622 3509 3622 2328 
Q 3622 1225 3098 567 
Q 2575 -91 1691 -91 
Q 1453 -91 1209 -44 
Q 966 3 703 97 
z
M 1959 2075 
Q 2384 2075 2632 2365 
Q 2881 2656 2881 3163 
Q 2881 3666 2632 3958 
Q 2384 4250 1959 4250 
Q 1534 4250 1286 3958 
Q 1038 3666 1038 3163 
Q 1038 2656 1286 2365 
Q 1534 2075 1959 2075 
z
" transform="scale(0.015625)"/>
       </defs>
       <use xlink:href="#DejaVuSans-30"/>
       <use xlink:href="#DejaVuSans-2e" x="63.623047"/>
       <use xlink:href="#DejaVuSans-39" x="95.410156"/>
       <use xlink:href="#DejaVuSans-35" x="159.033203"/>
      </g>
     </g>
    </g>
    <g id="text_11">
     <!-- Accumulated mistakes per time -->
     <g transform="translate(22.254687 253.88425)rotate(-90)scale(0.1 -0.1)">
      <defs>
       <path id="DejaVuSans-41" d="M 2188 4044 
L 1331 1722 
L 3047 1722 
L 2188 4044 
z
M 1831 4666 
L 2547 4666 
L 4325 0 
L 3669 0 
L 3244 1197 
L 1141 1197 
L 716 0 
L 50 0 
L 1831 4666 
z
" transform="scale(0.015625)"/>
       <path id="DejaVuSans-63" d="M 3122 3366 
L 3122 2828 
Q 2878 2963 2633 3030 
Q 2388 3097 2138 3097 
Q 1578 3097 1268 2742 
Q 959 2388 959 1747 
Q 959 1106 1268 751 
Q 1578 397 2138 397 
Q 2388 397 2633 464 
Q 2878 531 3122 666 
L 3122 134 
Q 2881 22 2623 -34 
Q 2366 -91 2075 -91 
Q 1284 -91 818 406 
Q 353 903 353 1747 
Q 353 2603 823 3093 
Q 1294 3584 2113 3584 
Q 2378 3584 2631 3529 
Q 2884 3475 3122 3366 
z
" transform="scale(0.015625)"/>
       <path id="DejaVuSans-75" d="M 544 1381 
L 544 3500 
L 1119 3500 
L 1119 1403 
Q 1119 906 1312 657 
Q 1506 409 1894 409 
Q 2359 409 2629 706 
Q 2900 1003 2900 1516 
L 2900 3500 
L 3475 3500 
L 3475 0 
L 2900 0 
L 2900 538 
Q 2691 219 2414 64 
Q 2138 -91 1772 -91 
Q 1169 -91 856 284 
Q 544 659 544 1381 
z
M 1991 3584 
L 1991 3584 
z
" transform="scale(0.015625)"/>
       <path id="DejaVuSans-6c" d="M 603 4863 
L 1178 4863 
L 1178 0 
L 603 0 
L 603 4863 
z
" transform="scale(0.015625)"/>
       <path id="DejaVuSans-61" d="M 2194 1759 
Q 1497 1759 1228 1600 
Q 959 1441 959 1056 
Q 959 750 1161 570 
Q 1363 391 1709 391 
Q 2188 391 2477 730 
Q 2766 1069 2766 1631 
L 2766 1759 
L 2194 1759 
z
M 3341 1997 
L 3341 0 
L 2766 0 
L 2766 531 
Q 2569 213 2275 61 
Q 1981 -91 1556 -91 
Q 1019 -91 701 211 
Q 384 513 384 1019 
Q 384 1609 779 1909 
Q 1175 2209 1959 2209 
L 2766 2209 
L 2766 2266 
Q 2766 2663 2505 2880 
Q 2244 3097 1772 3097 
Q 1472 3097 1187 3025 
Q 903 2953 641 2809 
L 641 3341 
Q 956 3463 1253 3523 
Q 1550 3584 1831 3584 
Q 2591 3584 2966 3190 
Q 3341 2797 3341 1997 
z
" transform="scale(0.015625)"/>
       <path id="DejaVuSans-64" d="M 2906 2969 
L 2906 4863 
L 3481 4863 
L 3481 0 
L 2906 0 
L 2906 525 
Q 2725 213 2448 61 
Q 2172 -91 1784 -91 
Q 1150 -91 751 415 
Q 353 922 353 1747 
Q 353 2572 751 3078 
Q 1150 3584 1784 3584 
Q 2172 3584 2448 3432 
Q 2725 3281 2906 2969 
z
M 947 1747 
Q 947 1113 1208 752 
Q 1469 391 1925 391 
Q 2381 391 2643 752 
Q 2906 1113 2906 1747 
Q 2906 2381 2643 2742 
Q 2381 3103 1925 3103 
Q 1469 3103 1208 2742 
Q 947 2381 947 1747 
z
" transform="scale(0.015625)"/>
       <path id="DejaVuSans-73" d="M 2834 3397 
L 2834 2853 
Q 2591 2978 2328 3040 
Q 2066 3103 1784 3103 
Q 1356 3103 1142 2972 
Q 928 2841 928 2578 
Q 928 2378 1081 2264 
Q 1234 2150 1697 2047 
L 1894 2003 
Q 2506 1872 2764 1633 
Q 3022 1394 3022 966 
Q 3022 478 2636 193 
Q 2250 -91 1575 -91 
Q 1294 -91 989 -36 
Q 684 19 347 128 
L 347 722 
Q 666 556 975 473 
Q 1284 391 1588 391 
Q 1994 391 2212 530 
Q 2431 669 2431 922 
Q 2431 1156 2273 1281 
Q 2116 1406 1581 1522 
L 1381 1569 
Q 847 1681 609 1914 
Q 372 2147 372 2553 
Q 372 3047 722 3315 
Q 1072 3584 1716 3584 
Q 2034 3584 2315 3537 
Q 2597 3491 2834 3397 
z
" transform="scale(0.015625)"/>
       <path id="DejaVuSans-6b" d="M 581 4863 
L 1159 4863 
L 1159 1991 
L 2875 3500 
L 3609 3500 
L 1753 1863 
L 3688 0 
L 2938 0 
L 1159 1709 
L 1159 0 
L 581 0 
L 581 4863 
z
" transform="scale(0.015625)"/>
       <path id="DejaVuSans-70" d="M 1159 525 
L 1159 -1331 
L 581 -1331 
L 581 3500 
L 1159 3500 
L 1159 2969 
Q 1341 3281 1617 3432 
Q 1894 3584 2278 3584 
Q 2916 3584 3314 3078 
Q 3713 2572 3713 1747 
Q 3713 922 3314 415 
Q 2916 -91 2278 -91 
Q 1894 -91 1617 61 
Q 1341 213 1159 525 
z
M 3116 1747 
Q 3116 2381 2855 2742 
Q 2594 3103 2138 3103 
Q 1681 3103 1420 2742 
Q 1159 2381 1159 1747 
Q 1159 1113 1420 752 
Q 1681 391 2138 391 
Q 2594 391 2855 752 
Q 3116 1113 3116 1747 
z
" transform="scale(0.015625)"/>
       <path id="DejaVuSans-72" d="M 2631 2963 
Q 2534 3019 2420 3045 
Q 2306 3072 2169 3072 
Q 1681 3072 1420 2755 
Q 1159 2438 1159 1844 
L 1159 0 
L 581 0 
L 581 3500 
L 1159 3500 
L 1159 2956 
Q 1341 3275 1631 3429 
Q 1922 3584 2338 3584 
Q 2397 3584 2469 3576 
Q 2541 3569 2628 3553 
L 2631 2963 
z
" transform="scale(0.015625)"/>
      </defs>
      <use xlink:href="#DejaVuSans-41"/>
      <use xlink:href="#DejaVuSans-63" x="66.658203"/>
      <use xlink:href="#DejaVuSans-63" x="121.638672"/>
      <use xlink:href="#DejaVuSans-75" x="176.619141"/>
      <use xlink:href="#DejaVuSans-6d" x="239.998047"/>
      <use xlink:href="#DejaVuSans-75" x="337.410156"/>
      <use xlink:href="#DejaVuSans-6c" x="400.789062"/>
      <use xlink:href="#DejaVuSans-61" x="428.572266"/>
      <use xlink:href="#DejaVuSans-74" x="489.851562"/>
      <use xlink:href="#DejaVuSans-65" x="529.060547"/>
      <use xlink:href="#DejaVuSans-64" x="590.583984"/>
      <use xlink:href="#DejaVuSans-20" x="654.060547"/>
      <use xlink:href="#DejaVuSans-6d" x="685.847656"/>
      <use xlink:href="#DejaVuSans-69" x="783.259766"/>
      <use xlink:href="#DejaVuSans-73" x="811.042969"/>
      <use xlink:href="#DejaVuSans-74" x="863.142578"/>
      <use xlink:href="#DejaVuSans-61" x="902.351562"/>
      <use xlink:href="#DejaVuSans-6b" x="963.630859"/>
      <use xlink:href="#DejaVuSans-65" x="1017.916016"/>
      <use xlink:href="#DejaVuSans-73" x="1079.439453"/>
      <use xlink:href="#DejaVuSans-20" x="1131.539062"/>
      <use xlink:href="#DejaVuSans-70" x="1163.326172"/>
      <use xlink:href="#DejaVuSans-65" x="1226.802734"/>
      <use xlink:href="#DejaVuSans-72" x="1288.326172"/>
      <use xlink:href="#DejaVuSans-20" x="1329.439453"/>
      <use xlink:href="#DejaVuSans-74" x="1361.226562"/>
      <use xlink:href="#DejaVuSans-69" x="1400.435547"/>
      <use xlink:href="#DejaVuSans-6d" x="1428.21875"/>
      <use xlink:href="#DejaVuSans-65" x="1525.630859"/>
     </g>
    </g>
   </g>
   <g id="line2d_10">
    <path d="M 57.6 23.7312 
L 57.95712 23.7312 
L 58.31424 142.0032 
L 58.67136 112.4352 
L 59.02848 165.6576 
L 59.74272 226.4832 
L 60.09984 245.4912 
L 60.81408 201.1392 
L 61.1712 185.0112 
L 61.52832 201.1392 
L 61.88544 187.492431 
L 62.24256 201.1392 
L 62.59968 189.312 
L 63.31392 211.574965 
L 63.67104 201.1392 
L 64.7424 226.4832 
L 65.81376 245.4912 
L 66.88512 260.2752 
L 67.24224 264.4992 
L 67.59936 256.196855 
L 68.67072 267.6672 
L 69.38496 274.189553 
L 69.74208 267.0336 
L 70.0992 270.1312 
L 70.45632 263.471741 
L 71.8848 274.698615 
L 72.59904 279.528781 
L 72.95616 273.7152 
L 74.38464 282.4512 
L 75.81312 289.8432 
L 76.17024 291.51686 
L 76.52736 286.557867 
L 76.88448 288.2304 
L 77.2416 283.5072 
L 77.95584 286.784441 
L 78.31296 282.325912 
L 79.0272 285.480708 
L 79.74144 277.1712 
L 81.16992 283.223499 
L 81.52704 279.407435 
L 83.31264 286.19783 
L 83.66976 282.650984 
L 84.02688 283.9296 
L 84.384 280.505937 
L 85.45536 284.229023 
L 85.81248 280.9728 
L 87.59808 286.712471 
L 87.9552 287.780316 
L 88.31232 284.745269 
L 88.66944 285.8112 
L 89.02656 282.866481 
L 89.7408 284.969354 
L 90.09792 282.129809 
L 90.81216 284.181243 
L 91.16928 281.439663 
L 93.312 287.208428 
L 94.38336 289.8432 
L 95.0976 284.822219 
L 97.24032 289.8432 
L 97.59744 287.488227 
L 98.31168 289.071861 
L 98.6688 286.784441 
L 99.02592 287.568738 
L 99.38304 285.332827 
L 99.74016 286.116141 
L 100.09728 283.9296 
L 101.16864 286.237346 
L 101.52576 284.120361 
L 102.24 285.6192 
L 102.59712 283.55709 
L 102.95424 284.2992 
L 103.31136 282.279293 
L 103.66848 283.019815 
L 104.0256 281.040513 
L 105.8112 284.625318 
L 106.16832 282.720981 
L 107.95392 286.095144 
L 108.31104 284.260431 
L 110.81088 288.66048 
L 112.23936 290.9952 
L 112.59648 289.270916 
L 115.45344 293.652574 
L 116.16768 294.6816 
L 116.5248 293.049369 
L 117.23904 294.0672 
L 117.95328 290.886776 
L 118.3104 291.399411 
L 118.66752 289.8432 
L 119.02464 290.35594 
L 119.73888 287.3088 
L 121.16736 289.347647 
L 122.23872 284.969354 
L 122.59584 285.480708 
L 122.95296 284.058157 
L 123.31008 284.568908 
L 123.6672 283.166555 
L 124.02432 283.676612 
L 124.38144 282.293923 
L 124.73856 282.8032 
L 125.80992 278.7552 
L 126.16704 279.272257 
L 126.88128 276.651323 
L 127.2384 277.1712 
L 127.59552 275.884703 
L 127.95264 276.4032 
L 128.30976 275.133491 
L 129.38112 276.669339 
L 129.73824 275.423338 
L 132.5952 279.333247 
L 133.30944 276.933228 
L 136.52352 281.052714 
L 137.59488 282.35264 
L 138.66624 278.949726 
L 139.02336 279.38465 
L 139.38048 278.273113 
L 140.80896 279.9872 
L 141.88032 276.743453 
L 142.59456 277.595367 
L 142.95168 276.5376 
L 143.3088 276.960876 
L 143.66592 275.914473 
L 145.80864 278.397523 
L 146.16576 277.374766 
L 146.88 278.180921 
L 147.23712 277.1712 
L 148.6656 278.7552 
L 149.02272 277.762889 
L 151.52256 280.4352 
L 151.87968 279.466506 
L 152.59392 280.208683 
L 152.95104 279.251678 
L 154.37952 280.711906 
L 155.09376 278.836134 
L 156.16512 279.916038 
L 156.52224 278.994509 
L 160.09344 282.4512 
L 160.45056 281.555975 
L 160.80768 281.890428 
L 161.1648 281.003282 
L 162.23616 281.998629 
L 162.59328 281.123146 
L 164.37888 282.74688 
L 165.09312 281.031544 
L 165.45024 281.353378 
L 165.80736 280.505937 
L 166.5216 281.146729 
L 167.23584 279.4752 
L 168.66432 280.745354 
L 169.02144 279.924222 
L 169.37856 280.238308 
L 169.73568 279.424 
L 171.16416 280.666924 
L 171.8784 279.066079 
L 175.09248 281.7792 
L 176.87808 277.927737 
L 177.2352 278.2272 
L 177.59232 277.472019 
L 181.52064 280.666924 
L 181.87776 279.930719 
L 182.23488 280.21248 
L 182.592 279.481764 
L 182.94912 279.7632 
L 183.30624 279.037897 
L 183.66336 279.318997 
L 184.02048 278.599031 
L 184.3776 278.879784 
L 184.73472 278.165082 
L 185.09184 278.445479 
L 185.44896 277.735969 
L 186.87744 278.846836 
L 187.23456 278.145969 
L 188.30592 278.966688 
L 188.66304 278.273113 
L 190.44864 279.61727 
L 191.16288 278.252544 
L 191.87712 278.784611 
L 192.23424 278.109867 
L 192.94848 278.638484 
L 193.3056 277.969436 
L 198.30528 281.534218 
L 199.01952 282.022948 
L 199.37664 281.373974 
L 200.448 282.100956 
L 200.80512 281.458245 
L 201.51936 281.938883 
L 201.87648 281.301333 
L 202.94784 282.016376 
L 203.30496 281.384872 
L 204.0192 281.857682 
L 204.37632 281.231161 
L 204.73344 281.466793 
L 205.09056 280.844243 
L 205.44768 281.079672 
L 205.8048 280.461046 
L 206.51904 280.930358 
L 206.87616 280.316517 
L 208.30464 281.245413 
L 208.66176 280.638068 
L 210.09024 281.553107 
L 210.44736 280.952123 
L 210.80448 281.179088 
L 211.1616 280.581761 
L 212.23296 281.258942 
L 212.59008 280.666924 
L 213.66144 281.337337 
L 214.01856 280.750535 
L 215.08992 281.414313 
L 215.80416 280.253578 
L 216.16128 280.474463 
L 216.5184 279.898805 
L 217.23264 280.3392 
L 217.58976 279.76769 
L 219.01824 280.639915 
L 219.37536 280.074037 
L 220.0896 280.505937 
L 220.44672 279.944067 
L 223.30368 281.640465 
L 223.6608 281.087011 
L 224.73216 281.710424 
L 225.80352 280.070725 
L 226.16064 280.278921 
L 226.87488 279.19872 
L 230.08896 281.046109 
L 230.44608 280.515563 
L 232.23168 281.515886 
L 232.5888 280.990866 
L 233.66016 281.583313 
L 234.3744 280.543587 
L 235.44576 281.132787 
L 235.80288 280.617984 
L 236.51712 281.00814 
L 237.58848 279.479762 
L 237.9456 279.675548 
L 238.30272 279.170727 
L 239.01696 279.561204 
L 239.37408 279.059576 
L 240.44544 279.641375 
L 240.80256 279.143496 
L 241.5168 279.528781 
L 241.87392 279.034009 
L 242.94528 279.608123 
L 243.65952 278.627752 
L 245.44512 279.575754 
L 245.80224 279.0912 
L 246.51648 279.466506 
L 246.8736 278.984895 
L 247.94496 279.544234 
L 248.30208 279.066079 
L 249.01632 279.436585 
L 249.37344 278.961297 
L 249.73056 279.146057 
L 250.08768 278.673067 
L 250.4448 278.857677 
L 251.15904 277.917985 
L 251.51616 278.102965 
L 251.87328 277.636228 
L 252.58752 278.005189 
L 252.94464 277.541185 
L 254.016 278.091127 
L 254.37312 277.63033 
L 255.08736 277.994651 
L 256.87296 275.720381 
L 257.23008 275.904 
L 257.5872 275.454494 
L 257.94432 275.637933 
L 258.30144 275.190497 
L 259.01568 275.556361 
L 259.3728 275.11144 
L 260.08704 275.475651 
L 260.80128 274.592337 
L 263.30112 275.853488 
L 263.65824 275.41729 
L 264.01536 275.595407 
L 264.37248 275.161159 
L 265.08672 275.516437 
L 265.44384 275.084558 
L 265.80096 275.261721 
L 266.15808 274.831754 
L 266.87232 275.185128 
L 267.58656 274.331295 
L 268.65792 274.859416 
L 270.80064 272.339735 
L 271.51488 272.69376 
L 272.58624 271.45514 
L 273.6576 271.985299 
L 274.01472 271.576314 
L 274.72896 271.927614 
L 275.4432 271.115187 
L 276.15744 271.465699 
L 276.51456 271.062223 
L 277.58592 271.58484 
L 277.94304 271.183783 
L 278.65728 271.530116 
L 279.37152 270.733335 
L 279.72864 270.906391 
L 280.08576 270.510277 
L 280.8 270.855443 
L 281.15712 270.461305 
L 282.22848 270.976 
L 282.5856 270.58417 
L 282.94272 270.754997 
L 283.65696 269.975743 
L 285.08544 270.656441 
L 285.79968 269.8848 
L 286.1568 270.05432 
L 286.51392 269.670639 
L 287.22816 270.008765 
L 287.58528 269.62694 
L 287.9424 269.795547 
L 289.01376 268.658115 
L 289.37088 268.827175 
L 290.44224 267.70116 
L 291.15648 268.039621 
L 291.5136 267.6672 
L 292.94208 268.3392 
L 293.2992 267.969143 
L 297.22752 269.7792 
L 297.94176 269.049087 
L 298.656 269.373046 
L 299.37024 268.648439 
L 301.15584 269.452969 
L 301.51296 269.093726 
L 306.86976 271.442513 
L 307.584 270.735776 
L 309.01248 271.347472 
L 309.72672 270.647002 
L 310.79808 271.102918 
L 311.1552 270.754997 
L 311.86944 271.05736 
L 312.22656 270.710965 
L 314.01216 271.460869 
L 315.08352 270.431521 
L 315.44064 270.581059 
L 315.79776 270.240106 
L 318.65472 271.42379 
L 319.01184 271.085874 
L 320.0832 271.523896 
L 320.44032 271.187678 
L 323.29728 272.340532 
L 324.01152 271.674911 
L 325.08288 272.1024 
L 325.79712 271.441838 
L 326.15424 271.584076 
L 326.86848 270.927513 
L 327.2256 271.069867 
L 327.58272 270.743131 
L 327.93984 270.885353 
L 328.29696 270.559722 
L 328.65408 270.701811 
L 329.0112 270.377276 
L 329.36832 270.519231 
L 329.72544 270.195787 
L 330.43968 270.479059 
L 330.7968 270.156934 
L 332.22528 270.72 
L 332.5824 270.399651 
L 333.65376 270.818828 
L 334.01088 270.500005 
L 335.43936 271.054805 
L 335.79648 270.737723 
L 336.51072 271.013451 
L 336.86784 270.697637 
L 338.29632 271.245792 
L 339.36768 270.305863 
L 340.08192 270.5792 
L 340.43904 270.267916 
L 341.15328 270.540317 
L 341.5104 270.230255 
L 344.36736 271.308036 
L 344.72448 271.000487 
L 345.79584 271.399794 
L 346.15296 271.093652 
L 346.8672 271.358643 
L 347.93856 270.446011 
L 349.36704 270.974623 
L 349.72416 270.672738 
L 350.4384 270.935526 
L 350.79552 270.634791 
L 351.86688 271.0272 
L 352.93824 270.1312 
L 353.65248 270.392443 
L 354.36672 269.799508 
L 354.72384 269.930057 
L 355.43808 269.340359 
L 356.86656 269.861012 
L 357.22368 269.568 
L 357.5808 269.697583 
L 357.93792 269.405461 
L 359.00928 269.792947 
L 359.3664 269.502094 
L 360.08064 269.759275 
L 360.79488 269.180386 
L 361.50912 269.437115 
L 361.86624 269.149066 
L 363.29472 269.659676 
L 363.65184 269.373046 
L 364.36608 269.62694 
L 365.08032 269.056416 
L 365.43744 269.183288 
L 365.79456 268.8992 
L 370.43712 270.524541 
L 370.79424 270.243455 
L 372.57984 270.856727 
L 373.29408 270.298251 
L 373.6512 270.420428 
L 374.00832 270.142312 
L 377.93664 271.470211 
L 378.65088 270.91968 
L 382.22208 272.1024 
L 382.5792 271.829764 
L 383.29344 272.063537 
L 384.00768 271.520734 
L 384.3648 271.637576 
L 385.43616 270.828306 
L 386.1504 271.062223 
L 386.50752 270.793968 
L 386.86464 270.91071 
L 387.57888 270.376268 
L 387.936 270.493083 
L 388.29312 270.226889 
L 389.36448 270.57631 
L 389.7216 270.31117 
L 390.79296 270.658823 
L 391.5072 270.1312 
L 391.86432 270.246905 
L 392.22144 269.984096 
L 394.72128 270.788267 
L 395.0784 270.527107 
L 395.43552 270.641173 
L 396.14976 270.120814 
L 396.50688 270.234947 
L 397.57824 269.458965 
L 399.00672 269.914924 
L 399.36384 269.657947 
L 400.79232 270.110709 
L 401.14944 269.854864 
L 401.86368 270.080133 
L 402.2208 269.825113 
L 404.0064 270.384959 
L 404.72064 269.877963 
L 406.14912 270.322872 
L 407.5776 269.317402 
L 407.93472 269.428634 
L 408.29184 269.178687 
L 413.29152 270.714454 
L 413.64864 270.466976 
L 414.00576 270.575164 
L 414.00576 270.575164 
" clip-path="url(#pf9e49c8c62)" style="fill: none; stroke: #1f77b4; stroke-width: 1.5; stroke-linecap: square"/>
    <defs>
     <path id="m1238929dd1" d="M 0 -3 
L -3 3 
L 3 3 
z
" style="stroke: #1f77b4; stroke-linejoin: miter"/>
    </defs>
    <g clip-path="url(#pf9e49c8c62)">
     <use xlink:href="#m1238929dd1" x="57.6" y="23.7312" style="fill: #1f77b4; stroke: #1f77b4; stroke-linejoin: miter"/>
     <use xlink:href="#m1238929dd1" x="93.312" y="287.208428" style="fill: #1f77b4; stroke: #1f77b4; stroke-linejoin: miter"/>
     <use xlink:href="#m1238929dd1" x="129.024" y="276.162484" style="fill: #1f77b4; stroke: #1f77b4; stroke-linejoin: miter"/>
     <use xlink:href="#m1238929dd1" x="164.736" y="281.886363" style="fill: #1f77b4; stroke: #1f77b4; stroke-linejoin: miter"/>
     <use xlink:href="#m1238929dd1" x="200.448" y="282.100956" style="fill: #1f77b4; stroke: #1f77b4; stroke-linejoin: miter"/>
     <use xlink:href="#m1238929dd1" x="236.16" y="280.813451" style="fill: #1f77b4; stroke: #1f77b4; stroke-linejoin: miter"/>
     <use xlink:href="#m1238929dd1" x="271.872" y="272.279513" style="fill: #1f77b4; stroke: #1f77b4; stroke-linejoin: miter"/>
     <use xlink:href="#m1238929dd1" x="307.584" y="270.735776" style="fill: #1f77b4; stroke: #1f77b4; stroke-linejoin: miter"/>
     <use xlink:href="#m1238929dd1" x="343.296" y="270.906391" style="fill: #1f77b4; stroke: #1f77b4; stroke-linejoin: miter"/>
     <use xlink:href="#m1238929dd1" x="379.008" y="271.039133" style="fill: #1f77b4; stroke: #1f77b4; stroke-linejoin: miter"/>
    </g>
   </g>
   <g id="line2d_11">
    <path d="M 57.6 23.7312 
L 57.95712 201.1392 
L 58.31424 260.2752 
L 58.67136 289.8432 
L 59.02848 236.6208 
L 59.3856 201.1392 
L 60.09984 245.4912 
L 60.81408 272.1024 
L 61.1712 249.5232 
L 61.88544 269.373046 
L 62.24256 277.1712 
L 62.59968 260.2752 
L 62.9568 267.6672 
L 63.67104 240.5632 
L 64.02816 247.825516 
L 65.09952 217.2672 
L 65.45664 208.852591 
L 66.528 228.432738 
L 67.24224 239.1552 
L 67.59936 231.726786 
L 68.67072 245.4912 
L 69.38496 253.318024 
L 69.74208 246.7584 
L 70.0992 250.4192 
L 70.45632 244.292497 
L 71.8848 257.390517 
L 72.59904 263.025712 
L 72.95616 257.5872 
L 74.38464 267.6672 
L 75.81312 276.196431 
L 76.17024 278.127577 
L 76.52736 273.416533 
L 76.88448 275.328 
L 77.2416 270.8352 
L 77.95584 274.549407 
L 78.31296 270.298251 
L 78.67008 272.1024 
L 79.74144 260.2752 
L 81.16992 267.336215 
L 81.52704 263.753788 
L 83.31264 271.616351 
L 83.66976 268.266551 
L 84.02688 269.73696 
L 84.384 266.500042 
L 86.1696 273.416533 
L 87.59808 278.363859 
L 88.31232 272.510234 
L 88.66944 273.7152 
L 89.02656 270.906391 
L 89.7408 273.272123 
L 90.09792 270.559722 
L 90.81216 272.857328 
L 91.16928 270.234947 
L 91.5264 271.3632 
L 91.88352 268.810293 
L 92.24064 269.930057 
L 92.59776 267.4432 
L 94.38336 272.784738 
L 95.0976 268.085615 
L 97.24032 274.0032 
L 97.59744 271.788404 
L 97.95456 272.724884 
L 98.6688 268.43189 
L 99.02592 269.373046 
L 99.38304 267.291336 
L 99.74016 268.226259 
L 100.09728 266.1888 
L 101.16864 268.929249 
L 101.52576 266.951845 
L 102.24 268.7232 
L 102.59712 266.794129 
L 102.95424 267.6672 
L 103.31136 265.776223 
L 103.66848 266.643692 
L 104.0256 264.789398 
L 105.8112 268.971671 
L 106.16832 267.181594 
L 107.95392 271.102918 
L 108.31104 269.373046 
L 110.81088 274.46784 
L 112.23936 277.1712 
L 112.59648 275.536103 
L 115.45344 280.591863 
L 117.23904 283.5072 
L 117.95328 280.451012 
L 118.3104 281.024674 
L 118.66752 279.528781 
L 119.02464 280.101142 
L 119.73888 277.1712 
L 121.16736 279.436585 
L 121.52448 278.016 
L 121.8816 278.571421 
L 122.23872 277.1712 
L 122.59584 277.725167 
L 122.95296 276.344765 
L 123.31008 276.897211 
L 124.38144 272.857328 
L 124.73856 273.416533 
L 125.80992 269.5152 
L 126.16704 270.080133 
L 126.88128 267.553477 
L 127.2384 268.119771 
L 127.59552 266.87922 
L 127.95264 267.4432 
L 128.30976 266.218517 
L 129.38112 267.886764 
L 129.73824 266.684028 
L 132.5952 270.925285 
L 133.30944 268.604214 
L 136.52352 273.061362 
L 137.59488 274.46784 
L 138.66624 271.168674 
L 139.02336 271.637576 
L 139.38048 270.559722 
L 140.80896 272.405662 
L 141.88032 269.257884 
L 142.59456 270.172438 
L 142.95168 269.1456 
L 143.3088 269.599549 
L 143.66592 268.583564 
L 145.80864 271.243974 
L 146.16576 270.249947 
L 146.88 271.112873 
L 147.23712 270.1312 
L 148.6656 271.8252 
L 149.02272 270.859854 
L 149.73696 271.691416 
L 150.09408 270.737723 
L 151.52256 272.3712 
L 151.87968 271.432936 
L 152.59392 272.23529 
L 152.95104 271.308036 
L 154.37952 272.885082 
L 155.09376 271.066441 
L 156.16512 272.230492 
L 156.52224 271.33661 
L 158.66496 273.601623 
L 159.02208 272.724884 
L 160.09344 273.8272 
L 160.45056 272.961816 
L 160.80768 273.325903 
L 161.1648 272.46819 
L 162.23616 273.550629 
L 162.59328 272.703783 
L 164.02176 274.119748 
L 165.09312 271.632445 
L 165.45024 271.985299 
L 165.80736 271.168674 
L 166.5216 271.870494 
L 167.23584 270.2592 
L 168.66432 271.647508 
L 169.02144 270.855443 
L 169.37856 271.19841 
L 170.0928 269.632162 
L 170.44992 269.975743 
L 170.80704 269.201389 
L 171.52128 269.8848 
L 171.8784 269.117966 
L 172.23552 269.457809 
L 172.59264 268.697045 
L 175.09248 271.0272 
L 176.87808 267.336215 
L 177.2352 267.6672 
L 177.59232 266.943354 
L 180.8064 269.846345 
L 181.16352 269.137079 
L 181.52064 269.451476 
L 181.87776 268.747406 
L 182.23488 269.06112 
L 182.592 268.362174 
L 182.94912 268.6752 
L 183.30624 267.981308 
L 183.66336 268.293641 
L 184.02048 267.604732 
L 184.3776 267.916369 
L 184.73472 267.232376 
L 185.09184 267.543312 
L 185.44896 266.864169 
L 186.52032 267.789719 
L 187.23456 266.448738 
L 188.30592 267.365075 
L 188.66304 266.703026 
L 190.09152 267.905652 
L 190.44864 267.251028 
L 190.80576 267.548612 
L 191.16288 266.898432 
L 192.59136 268.076783 
L 192.94848 267.433768 
L 194.01984 268.304109 
L 194.37696 267.6672 
L 195.0912 268.241708 
L 195.44832 267.609898 
L 198.30528 269.856729 
L 198.6624 269.2352 
L 199.01952 269.510545 
L 199.37664 268.893009 
L 200.448 269.713365 
L 200.80512 269.101469 
L 201.51936 269.643279 
L 201.87648 269.036089 
L 202.94784 269.841318 
L 203.30496 269.239581 
L 204.0192 269.771492 
L 204.37632 269.174307 
L 204.73344 269.439132 
L 205.09056 268.845635 
L 205.44768 269.109976 
L 205.8048 268.520123 
L 206.16192 268.783977 
L 206.51904 268.197726 
L 207.5904 268.984065 
L 207.94752 268.402897 
L 208.30464 268.663285 
L 208.66176 268.085615 
L 210.09024 269.117966 
L 210.44736 268.545969 
L 210.80448 268.801786 
L 211.1616 268.233177 
L 212.23296 268.995716 
L 212.59008 268.43189 
L 213.66144 269.186104 
L 214.01856 268.626981 
L 215.08992 269.373046 
L 215.80416 268.266551 
L 216.16128 268.514373 
L 216.5184 267.965532 
L 217.23264 268.4592 
L 217.58976 267.914149 
L 219.01824 268.891041 
L 219.37536 268.351041 
L 220.0896 268.834358 
L 220.44672 268.298027 
L 223.30368 270.194787 
L 223.6608 269.665895 
L 224.73216 270.362364 
L 225.80352 268.794793 
L 226.16064 269.026828 
L 226.87488 267.994004 
L 230.08896 270.049745 
L 230.44608 269.541872 
L 230.8032 269.766163 
L 231.16032 269.260958 
L 232.23168 269.930057 
L 232.5888 269.428634 
L 233.66016 270.091297 
L 234.3744 269.09791 
L 235.44576 269.755921 
L 235.80288 269.263872 
L 236.51712 269.699264 
L 236.87424 269.210262 
L 237.23136 269.4272 
L 237.58848 268.940673 
L 237.9456 269.157287 
L 238.30272 268.673212 
L 239.01696 269.104937 
L 239.37408 268.623812 
L 240.44544 269.266639 
L 240.80256 268.788943 
L 241.5168 269.214363 
L 241.87392 268.73954 
L 242.94528 269.373046 
L 243.65952 268.43189 
L 245.44512 269.476627 
L 246.15936 268.547533 
L 246.51648 268.755079 
L 246.8736 268.293641 
L 247.94496 268.913043 
L 248.30208 268.454759 
L 249.01632 268.864787 
L 249.37344 268.409148 
L 249.73056 268.613486 
L 250.08768 268.16 
L 250.4448 268.364043 
L 251.15904 267.463001 
L 251.51616 267.6672 
L 251.87328 267.219611 
L 252.2304 267.423508 
L 252.94464 266.53412 
L 253.65888 266.94144 
L 254.37312 266.060243 
L 255.08736 266.466334 
L 256.87296 264.295179 
L 257.23008 264.4992 
L 257.5872 264.070024 
L 257.94432 264.27372 
L 258.30144 263.846468 
L 259.01568 264.252488 
L 259.3728 263.827539 
L 260.08704 264.231482 
L 260.80128 263.387621 
L 263.30112 264.784704 
L 263.65824 264.367657 
L 264.01536 264.564858 
L 264.37248 264.149628 
L 265.08672 264.542746 
L 265.44384 264.129691 
L 265.80096 264.325611 
L 266.15808 263.914338 
L 266.87232 264.30491 
L 267.58656 263.488022 
L 268.65792 264.071092 
L 270.80064 261.659655 
L 271.51488 262.04928 
L 272.58624 260.863618 
L 273.6576 261.44621 
L 274.01472 261.054587 
L 274.72896 261.440441 
L 275.4432 260.662342 
L 276.15744 261.046959 
L 276.51456 260.660451 
L 277.58592 261.233644 
L 277.94304 260.849336 
L 278.65728 261.229006 
L 279.37152 260.465348 
L 279.72864 260.654885 
L 280.08576 260.2752 
L 280.8 260.653066 
L 281.15712 260.2752 
L 282.94272 261.210896 
L 283.65696 260.461749 
L 284.01408 260.64771 
L 284.3712 260.2752 
L 284.72832 260.46087 
L 285.44256 259.719932 
L 285.79968 259.9056 
L 286.1568 259.537153 
L 287.22816 260.091548 
L 287.58528 259.725098 
L 287.9424 259.909033 
L 289.01376 258.817302 
L 289.728 259.185135 
L 290.44224 258.46399 
L 290.79936 258.647604 
L 291.15648 258.288953 
L 292.94208 259.2 
L 293.2992 258.843769 
L 294.72768 259.563789 
L 295.0848 259.209686 
L 296.15616 259.744832 
L 296.51328 259.392573 
L 296.8704 259.570151 
L 297.22752 259.2192 
L 297.58464 259.396508 
L 297.94176 259.046856 
L 299.01312 259.576399 
L 299.37024 259.228545 
L 300.79872 259.928361 
L 301.51296 259.237726 
L 306.86976 261.798015 
L 307.584 261.118795 
L 309.01248 261.785055 
L 309.72672 261.111636 
L 310.79808 261.607842 
L 311.1552 261.273276 
L 311.86944 261.602235 
L 312.22656 261.269082 
L 314.01216 262.084646 
L 314.7264 261.423472 
L 315.44064 261.747466 
L 315.79776 261.418714 
L 318.65472 262.698807 
L 319.01184 262.372793 
L 320.0832 262.84633 
L 320.44032 262.521887 
L 323.29728 263.767796 
L 324.01152 263.125128 
L 325.08288 263.586816 
L 325.79712 262.948902 
L 326.15424 263.102419 
L 326.51136 262.784951 
L 327.2256 263.0912 
L 327.58272 262.775004 
L 327.93984 262.927738 
L 328.29696 262.612591 
L 328.65408 262.765137 
L 329.0112 262.451032 
L 329.36832 262.603389 
L 329.72544 262.290319 
L 330.43968 262.594259 
L 330.7968 262.282427 
L 332.22528 262.8864 
L 332.5824 262.576212 
L 333.65376 263.025712 
L 334.01088 262.716945 
L 335.43936 263.311708 
L 335.79648 263.004554 
L 336.51072 263.300059 
L 336.86784 262.994097 
L 338.29632 263.581406 
L 339.36768 262.670582 
L 340.08192 262.9632 
L 340.43904 262.66152 
L 341.15328 262.953057 
L 341.5104 262.652527 
L 342.93888 263.232 
L 343.296 262.932998 
L 344.36736 263.364394 
L 344.72448 263.066713 
L 345.79584 263.495477 
L 346.15296 263.199106 
L 346.8672 263.483565 
L 347.93856 262.599957 
L 349.36704 263.166936 
L 349.72416 262.874585 
L 350.4384 263.156369 
L 350.79552 262.865098 
L 351.86688 263.28576 
L 352.93824 262.417809 
L 353.65248 262.697639 
L 354.36672 262.1232 
L 355.08096 262.402394 
L 355.7952 261.831411 
L 356.86656 262.248749 
L 357.22368 261.9648 
L 357.5808 262.103424 
L 357.93792 261.820321 
L 359.00928 262.234736 
L 359.3664 261.952817 
L 360.08064 262.227804 
L 360.79488 261.666635 
L 361.50912 261.941003 
L 362.22336 261.383134 
L 363.29472 261.793277 
L 363.65184 261.515815 
L 364.36608 261.787981 
L 365.08032 261.235645 
L 365.43744 261.37158 
L 365.79456 261.096533 
L 370.43712 262.837535 
L 370.79424 262.565205 
L 372.57984 263.221954 
L 373.29408 262.680732 
L 373.6512 262.811507 
L 374.00832 262.541969 
L 375.4368 263.062756 
L 375.79392 262.794447 
L 377.93664 263.56785 
L 379.008 262.769282 
L 379.72224 263.025712 
L 380.07936 262.761005 
L 382.22208 263.524431 
L 382.5792 263.261211 
L 383.29344 263.513754 
L 385.43616 261.948253 
L 386.1504 262.201454 
L 387.22176 261.4272 
L 387.936 261.680159 
L 388.29312 261.423472 
L 388.65024 261.549683 
L 389.00736 261.293689 
L 389.36448 261.419768 
L 389.7216 261.164463 
L 390.43584 261.416087 
L 391.5072 260.654277 
L 391.86432 260.780096 
L 392.22144 260.527379 
L 392.93568 260.778485 
L 393.2928 260.526575 
L 394.36416 260.901641 
L 395.0784 260.400223 
L 395.43552 260.524982 
L 396.14976 260.025944 
L 396.50688 260.150703 
L 397.57824 259.406465 
L 399.00672 259.904441 
L 399.36384 259.657914 
L 400.79232 260.152256 
L 401.14944 259.906751 
L 401.86368 260.152638 
L 402.2208 259.907896 
L 404.0064 260.518809 
L 404.72064 260.032092 
L 406.14912 260.517313 
L 407.5776 259.551824 
L 407.93472 259.673 
L 408.29184 259.432978 
L 408.64896 259.554029 
L 409.00608 259.314615 
L 413.29152 260.749712 
L 413.64864 260.512218 
L 414.00576 260.630371 
L 414.00576 260.630371 
" clip-path="url(#pf9e49c8c62)" style="fill: none; stroke: #ff7f0e; stroke-width: 1.5; stroke-linecap: square"/>
    <defs>
     <path id="mda104904bf" d="M -3 3 
L 3 -3 
M -3 -3 
L 3 3 
" style="stroke: #ff7f0e"/>
    </defs>
    <g clip-path="url(#pf9e49c8c62)">
     <use xlink:href="#mda104904bf" x="57.6" y="23.7312" style="fill: #ff7f0e; stroke: #ff7f0e"/>
     <use xlink:href="#mda104904bf" x="93.312" y="269.643279" style="fill: #ff7f0e; stroke: #ff7f0e"/>
     <use xlink:href="#mda104904bf" x="129.024" y="267.336215" style="fill: #ff7f0e; stroke: #ff7f0e"/>
     <use xlink:href="#mda104904bf" x="164.736" y="272.456037" style="fill: #ff7f0e; stroke: #ff7f0e"/>
     <use xlink:href="#mda104904bf" x="200.448" y="269.713365" style="fill: #ff7f0e; stroke: #ff7f0e"/>
     <use xlink:href="#mda104904bf" x="236.16" y="269.482002" style="fill: #ff7f0e; stroke: #ff7f0e"/>
     <use xlink:href="#mda104904bf" x="271.872" y="261.652744" style="fill: #ff7f0e; stroke: #ff7f0e"/>
     <use xlink:href="#mda104904bf" x="307.584" y="261.118795" style="fill: #ff7f0e; stroke: #ff7f0e"/>
     <use xlink:href="#mda104904bf" x="343.296" y="262.932998" style="fill: #ff7f0e; stroke: #ff7f0e"/>
     <use xlink:href="#mda104904bf" x="379.008" y="262.769282" style="fill: #ff7f0e; stroke: #ff7f0e"/>
    </g>
   </g>
   <g id="line2d_12">
    <path d="M 63.257167 -1 
L 64.02816 10.303809 
L 65.09952 23.209383 
L 69.38496 67.403828 
L 70.45632 76.477919 
L 72.95616 93.847059 
L 75.456 108.240647 
L 77.2416 117.362545 
L 80.09856 129.531682 
L 82.95552 138.864438 
L 84.74112 143.983495 
L 88.31232 152.974415 
L 90.09792 156.958336 
L 94.38336 165.346426 
L 98.31168 172.362999 
L 100.09728 174.947732 
L 104.38272 180.208815 
L 109.3824 185.459884 
L 118.66752 194.314996 
L 121.8816 196.860632 
L 125.4528 199.275321 
L 127.2384 200.231197 
L 132.5952 202.921608 
L 138.30912 206.25899 
L 140.45184 207.3765 
L 148.30848 211.116452 
L 155.09376 213.855303 
L 165.09312 217.147484 
L 170.80704 218.664029 
L 179.37792 220.774473 
L 186.87744 222.204032 
L 192.23424 223.077901 
L 204.0192 226.003627 
L 214.7328 228.296784 
L 220.44672 229.393312 
L 227.232 230.579425 
L 238.30272 232.178178 
L 249.01632 233.618804 
L 253.30176 234.144425 
L 257.94432 234.591393 
L 269.37216 235.34511 
L 272.94336 235.327728 
L 286.51392 235.065802 
L 295.44192 234.973928 
L 299.37024 235.243751 
L 301.15584 235.223811 
L 302.94144 235.156373 
L 312.22656 234.836639 
L 317.22624 234.857602 
L 320.44032 235.0725 
L 322.58304 235.249027 
L 324.36864 235.418728 
L 332.22528 235.464798 
L 340.79616 235.721875 
L 346.8672 236.072879 
L 357.5808 236.654843 
L 364.36608 237.065262 
L 368.65152 237.298008 
L 398.6496 238.791682 
L 413.29152 239.330571 
L 414.36288 239.489414 
L 414.36288 239.489414 
" clip-path="url(#pf9e49c8c62)" style="fill: none; stroke-dasharray: 5.55,2.4; stroke-dashoffset: 0; stroke: #2ca02c; stroke-width: 1.5"/>
    <defs>
     <path id="m2b50b21ab5" d="M -3 3 
L 3 -3 
M -3 -3 
L 3 3 
" style="stroke: #2ca02c"/>
    </defs>
    <g clip-path="url(#pf9e49c8c62)">
     <use xlink:href="#m2b50b21ab5" x="84.355964" y="-1" style="fill: #2ca02c; stroke: #2ca02c"/>
     <use xlink:href="#m2b50b21ab5" x="93.312" y="163.375509" style="fill: #2ca02c; stroke: #2ca02c"/>
     <use xlink:href="#m2b50b21ab5" x="129.024" y="201.086284" style="fill: #2ca02c; stroke: #2ca02c"/>
     <use xlink:href="#m2b50b21ab5" x="164.736" y="217.040959" style="fill: #2ca02c; stroke: #2ca02c"/>
     <use xlink:href="#m2b50b21ab5" x="200.448" y="225.13559" style="fill: #2ca02c; stroke: #2ca02c"/>
     <use xlink:href="#m2b50b21ab5" x="236.16" y="231.891169" style="fill: #2ca02c; stroke: #2ca02c"/>
     <use xlink:href="#m2b50b21ab5" x="271.872" y="235.351665" style="fill: #2ca02c; stroke: #2ca02c"/>
     <use xlink:href="#m2b50b21ab5" x="307.584" y="234.954915" style="fill: #2ca02c; stroke: #2ca02c"/>
     <use xlink:href="#m2b50b21ab5" x="343.296" y="235.854272" style="fill: #2ca02c; stroke: #2ca02c"/>
     <use xlink:href="#m2b50b21ab5" x="379.008" y="237.841695" style="fill: #2ca02c; stroke: #2ca02c"/>
    </g>
   </g>
   <g id="line2d_13">
    <path d="M 57.6 23.7312 
L 57.95712 201.1392 
L 58.31424 260.2752 
L 58.67136 201.1392 
L 59.02848 236.6208 
L 59.74272 277.1712 
L 60.09984 289.8432 
L 60.81408 236.6208 
L 61.52832 260.2752 
L 62.24256 226.4832 
L 62.59968 212.9664 
L 63.31392 232.446494 
L 63.67104 220.8512 
L 64.7424 243.3792 
L 65.81376 260.2752 
L 66.88512 273.416533 
L 67.95648 283.9296 
L 69.02784 292.5312 
L 70.0992 299.6992 
L 70.45632 292.240605 
L 71.8848 300.660761 
L 72.24192 302.5152 
L 72.59904 296.031851 
L 74.02752 303.054434 
L 74.38464 304.6272 
L 74.74176 298.894629 
L 75.09888 300.48768 
L 75.456 295.061082 
L 76.17024 298.211502 
L 76.52736 293.128533 
L 76.88448 294.6816 
L 77.2416 289.8432 
L 78.67008 295.7568 
L 79.0272 297.11402 
L 79.38432 292.704619 
L 81.16992 299.110782 
L 81.52704 295.061082 
L 83.31264 300.77931 
L 84.384 289.8432 
L 85.45536 293.211706 
L 85.81248 289.8432 
L 87.59808 295.061082 
L 87.9552 296.031851 
L 88.31232 292.901959 
L 88.66944 293.8752 
L 89.02656 290.839874 
L 89.7408 292.767508 
L 90.45504 286.981781 
L 92.59776 292.5312 
L 94.74048 297.4464 
L 95.0976 294.864181 
L 97.24032 299.3472 
L 97.59744 296.90812 
L 98.31168 298.32793 
L 98.6688 295.960717 
L 99.02592 296.666585 
L 99.38304 294.353573 
L 99.74016 295.061082 
L 100.09728 292.8 
L 101.16864 294.891395 
L 101.52576 292.704619 
L 102.24 294.0672 
L 102.59712 291.93857 
L 103.31136 293.28134 
L 104.0256 289.16607 
L 104.73984 290.510147 
L 105.09696 288.51926 
L 105.8112 289.8432 
L 106.16832 287.900777 
L 107.95392 291.092552 
L 108.31104 289.222892 
L 110.81088 293.39136 
L 112.23936 295.6032 
L 112.59648 293.849187 
L 115.09632 297.508978 
L 115.45344 295.82936 
L 116.16768 296.832 
L 116.5248 295.186814 
L 117.23904 296.1792 
L 117.95328 292.973929 
L 118.3104 293.474358 
L 118.66752 291.906084 
L 119.02464 292.406899 
L 119.73888 289.33632 
L 121.16736 291.329859 
L 122.23872 286.918892 
L 122.59584 287.419593 
L 122.95296 285.986504 
L 123.31008 286.486832 
L 123.6672 285.074168 
L 124.02432 285.574024 
L 124.38144 284.181243 
L 124.73856 284.680533 
L 125.09568 283.307116 
L 125.4528 283.805755 
L 125.80992 282.4512 
L 126.16704 282.949107 
L 126.88128 280.290462 
L 127.2384 280.791771 
L 127.59552 279.486895 
L 127.95264 279.9872 
L 128.30976 278.699481 
L 129.38112 280.182368 
L 129.73824 278.919062 
L 130.09536 279.407435 
L 130.45248 278.160234 
L 132.95232 281.474898 
L 133.30944 280.264834 
L 136.52352 284.249254 
L 138.30912 286.326301 
L 138.66624 285.174568 
L 139.02336 285.582309 
L 139.38048 284.443826 
L 140.80896 286.052431 
L 141.88032 282.731909 
L 142.59456 283.53371 
L 142.95168 282.4512 
L 143.3088 282.849939 
L 143.66592 281.7792 
L 146.88 285.248969 
L 147.23712 284.2112 
L 148.6656 285.6852 
L 149.02272 284.665924 
L 151.52256 287.1552 
L 151.87968 286.161147 
L 152.59392 286.853178 
L 152.95104 285.871379 
L 154.0224 286.897311 
L 154.73664 284.969354 
L 156.16512 286.320658 
L 156.52224 285.376092 
L 158.30784 287.022225 
L 159.02208 285.174568 
L 159.3792 285.501046 
L 159.73632 284.588956 
L 160.09344 284.9152 
L 160.45056 284.011449 
L 161.1648 284.661179 
L 161.52192 283.767584 
L 161.87904 284.091063 
L 162.23616 283.205486 
L 164.736 285.422735 
L 165.45024 283.695398 
L 166.5216 284.625318 
L 167.23584 282.9312 
L 168.3072 283.853541 
L 169.02144 282.191417 
L 173.30688 285.749169 
L 174.73536 286.877413 
L 175.4496 285.287405 
L 177.2352 286.6752 
L 177.94944 285.119318 
L 178.30656 285.394917 
L 179.0208 283.860232 
L 179.37792 284.137095 
L 179.73504 283.377894 
L 181.52064 284.745269 
L 181.87776 283.997378 
L 182.23488 284.26752 
L 182.592 283.525251 
L 183.66336 284.330522 
L 184.73472 282.140612 
L 186.87744 283.734109 
L 187.23456 283.019815 
L 187.9488 283.541823 
L 188.30592 282.833892 
L 190.09152 284.120361 
L 190.44864 283.422267 
L 195.0912 286.625956 
L 195.44832 285.946642 
L 196.8768 286.893962 
L 197.23392 286.222629 
L 197.94816 286.691281 
L 198.6624 285.3632 
L 199.01952 285.59792 
L 199.37664 284.939964 
L 201.51936 286.33017 
L 201.87648 285.681778 
L 202.94784 286.364612 
L 203.30496 285.722476 
L 204.0192 286.174178 
L 204.37632 285.537181 
L 204.73344 285.762386 
L 205.09056 285.129461 
L 205.44768 285.354564 
L 206.16192 284.099776 
L 206.51904 284.325726 
L 206.87616 283.703782 
L 208.30464 284.600647 
L 208.66176 283.985389 
L 210.09024 284.869144 
L 210.44736 284.260431 
L 211.1616 284.697956 
L 211.51872 284.093867 
L 212.23296 284.529135 
L 212.59008 283.9296 
L 213.30432 284.362632 
L 213.66144 283.767584 
L 214.37568 284.1984 
L 214.7328 283.607771 
L 215.08992 283.822567 
L 215.44704 283.235453 
L 217.23264 284.2992 
L 217.58976 283.71887 
L 220.0896 285.174568 
L 220.44672 284.602482 
L 221.16096 285.011827 
L 221.51808 284.443826 
L 223.30368 285.45569 
L 224.01792 284.334815 
L 225.08928 284.93617 
L 225.80352 283.829369 
L 226.16064 284.029619 
L 226.51776 283.480466 
L 227.232 283.879906 
L 227.58912 283.334521 
L 230.08896 284.711564 
L 230.44608 284.17346 
L 230.8032 284.367644 
L 231.16032 283.832457 
L 233.66016 285.174568 
L 234.01728 284.6464 
L 237.23136 286.3232 
L 237.58848 285.803216 
L 239.01696 286.532049 
L 239.37408 286.016753 
L 240.08832 286.3782 
L 240.44544 285.866218 
L 241.5168 286.40506 
L 241.87392 285.896987 
L 242.94528 286.431508 
L 243.3024 285.927284 
L 246.15936 287.327964 
L 246.51648 286.830611 
L 249.73056 288.362057 
L 250.08768 287.872 
L 250.4448 288.039607 
L 251.15904 287.066095 
L 255.08736 288.882507 
L 255.44448 288.404757 
L 255.8016 288.566883 
L 256.15872 288.091415 
L 256.51584 288.253523 
L 256.87296 287.780316 
L 258.65856 288.584987 
L 259.01568 288.116219 
L 259.72992 288.4352 
L 260.08704 287.969172 
L 260.80128 288.286989 
L 261.1584 287.823669 
L 262.22976 288.297834 
L 262.58688 287.837718 
L 264.01536 288.464381 
L 264.37248 288.007945 
L 266.15808 288.781785 
L 266.5152 288.32948 
L 266.87232 288.483173 
L 267.58656 287.584185 
L 269.01504 288.197763 
L 269.37216 287.752533 
L 270.0864 288.057213 
L 270.80064 287.17318 
L 271.51488 287.47776 
L 271.872 287.038914 
L 272.22912 287.190921 
L 272.58624 286.754006 
L 272.94336 286.905981 
L 273.30048 286.470982 
L 275.08608 287.225705 
L 275.80032 286.364612 
L 276.15744 286.514991 
L 277.58592 284.811369 
L 278.65728 285.264929 
L 279.72864 284.005537 
L 281.87136 284.907365 
L 282.22848 284.4928 
L 284.3712 285.380106 
L 284.72832 284.969354 
L 286.1568 285.553303 
L 286.51392 285.14548 
L 287.22816 285.435548 
L 288.29952 284.222081 
L 289.01376 284.512759 
L 289.728 283.711587 
L 290.79936 284.146613 
L 291.15648 283.749032 
L 291.5136 283.893541 
L 292.22784 283.102774 
L 292.94208 283.392 
L 293.2992 282.99917 
L 294.37056 283.430863 
L 295.44192 282.262798 
L 296.8704 282.836774 
L 297.22752 282.4512 
L 297.58464 282.593988 
L 297.94176 282.209918 
L 299.01312 282.636819 
L 299.37024 282.254952 
L 301.15584 282.959873 
L 301.87008 282.203001 
L 302.2272 282.343445 
L 302.94144 281.591665 
L 305.7984 282.706097 
L 306.15552 282.33454 
L 306.86976 282.609827 
L 307.584 281.871229 
L 309.01248 282.419745 
L 309.3696 282.05333 
L 310.79808 282.596958 
L 311.1552 282.232871 
L 314.01216 283.304518 
L 314.7264 282.584482 
L 317.58336 283.63757 
L 317.94048 283.281534 
L 319.72608 283.9296 
L 320.0832 283.57607 
L 322.58304 284.470818 
L 322.94016 284.120361 
L 323.29728 284.247109 
L 324.01152 283.54961 
L 325.08288 283.9296 
L 325.79712 283.237583 
L 326.15424 283.364156 
L 326.51136 283.019815 
L 327.2256 283.272533 
L 327.58272 282.929678 
L 327.93984 283.055823 
L 328.29696 282.714157 
L 329.36832 283.091452 
L 329.72544 282.75153 
L 330.43968 283.001976 
L 330.7968 282.663503 
L 332.22528 283.1616 
L 332.5824 282.825114 
L 335.43936 283.80814 
L 335.79648 283.474708 
L 336.51072 283.71786 
L 336.86784 283.385821 
L 338.65344 283.989637 
L 339.36768 283.330754 
L 341.15328 283.9296 
L 341.5104 283.602718 
L 345.43872 284.89688 
L 346.15296 284.25123 
L 346.8672 284.483772 
L 347.22432 284.162648 
L 347.93856 284.394551 
L 348.29568 284.074719 
L 349.36704 284.421195 
L 349.72416 284.102892 
L 350.4384 284.332964 
L 350.79552 284.01593 
L 351.86688 284.35968 
L 353.29536 283.102124 
L 354.72384 283.560444 
L 355.43808 282.938098 
L 357.5808 283.620208 
L 357.93792 283.311552 
L 359.00928 283.649666 
L 359.3664 283.342434 
L 360.08064 283.566974 
L 360.79488 282.955595 
L 361.86624 283.291791 
L 362.22336 282.987856 
L 363.29472 283.322369 
L 363.65184 283.019815 
L 364.36608 283.241972 
L 365.08032 282.639859 
L 366.15168 282.972486 
L 366.5088 282.673131 
L 367.22304 282.894039 
L 367.58016 282.595808 
L 372.57984 284.117121 
L 373.29408 283.528678 
L 376.86528 284.590337 
L 377.2224 284.2992 
L 377.93664 284.509106 
L 378.29376 284.219031 
L 380.07936 284.740758 
L 380.43648 284.452349 
L 383.65056 285.378885 
L 384.00768 285.092931 
L 385.79328 285.600835 
L 386.1504 285.316503 
L 386.50752 285.417621 
L 386.86464 285.134104 
L 387.57888 285.336078 
L 388.29312 284.771666 
L 389.36448 285.074168 
L 389.7216 284.793456 
L 390.43584 284.994428 
L 390.79296 284.714703 
L 391.15008 284.815059 
L 391.86432 284.257783 
L 394.00704 284.857715 
L 394.72128 284.305067 
L 395.79264 284.603301 
L 396.14976 284.32841 
L 396.864 284.526556 
L 397.22112 284.252612 
L 397.57824 284.351557 
L 397.93536 284.07837 
L 399.36384 284.472812 
L 399.72096 284.200923 
L 400.07808 284.2992 
L 400.4352 284.028057 
L 400.79232 284.12631 
L 401.14944 283.85591 
L 401.86368 284.052162 
L 402.57792 283.513752 
L 406.14912 284.486459 
L 406.50624 284.219838 
L 407.5776 284.508301 
L 408.29184 283.977727 
L 408.64896 284.073834 
L 409.3632 283.545756 
L 411.50592 284.120361 
L 411.86304 283.858137 
L 414.00576 284.42684 
L 414.00576 284.42684 
" clip-path="url(#pf9e49c8c62)" style="fill: none; stroke: #d62728; stroke-width: 1.5; stroke-linecap: square"/>
    <defs>
     <path id="m84d68c3a9b" d="M -0 4.242641 
L 4.242641 0 
L 0 -4.242641 
L -4.242641 -0 
z
" style="stroke: #d62728; stroke-linejoin: miter"/>
    </defs>
    <g clip-path="url(#pf9e49c8c62)">
     <use xlink:href="#m84d68c3a9b" x="57.6" y="23.7312" style="fill: #d62728; stroke: #d62728; stroke-linejoin: miter"/>
     <use xlink:href="#m84d68c3a9b" x="93.312" y="294.234487" style="fill: #d62728; stroke: #d62728; stroke-linejoin: miter"/>
     <use xlink:href="#m84d68c3a9b" x="129.024" y="279.692991" style="fill: #d62728; stroke: #d62728; stroke-linejoin: miter"/>
     <use xlink:href="#m84d68c3a9b" x="164.736" y="285.422735" style="fill: #d62728; stroke: #d62728; stroke-linejoin: miter"/>
     <use xlink:href="#m84d68c3a9b" x="200.448" y="285.640267" style="fill: #d62728; stroke: #d62728; stroke-linejoin: miter"/>
     <use xlink:href="#m84d68c3a9b" x="236.16" y="285.77096" style="fill: #d62728; stroke: #d62728; stroke-linejoin: miter"/>
     <use xlink:href="#m84d68c3a9b" x="271.872" y="287.038914" style="fill: #d62728; stroke: #d62728; stroke-linejoin: miter"/>
     <use xlink:href="#m84d68c3a9b" x="307.584" y="281.871229" style="fill: #d62728; stroke: #d62728; stroke-linejoin: miter"/>
     <use xlink:href="#m84d68c3a9b" x="343.296" y="284.19538" style="fill: #d62728; stroke: #d62728; stroke-linejoin: miter"/>
     <use xlink:href="#m84d68c3a9b" x="379.008" y="284.428416" style="fill: #d62728; stroke: #d62728; stroke-linejoin: miter"/>
    </g>
   </g>
   <g id="patch_3">
    <path d="M 57.6 307.584 
L 57.6 41.472 
" style="fill: none; stroke: #000000; stroke-width: 0.8; stroke-linejoin: miter; stroke-linecap: square"/>
   </g>
   <g id="patch_4">
    <path d="M 414.72 307.584 
L 414.72 41.472 
" style="fill: none; stroke: #000000; stroke-width: 0.8; stroke-linejoin: miter; stroke-linecap: square"/>
   </g>
   <g id="patch_5">
    <path d="M 57.6 307.584 
L 414.72 307.584 
" style="fill: none; stroke: #000000; stroke-width: 0.8; stroke-linejoin: miter; stroke-linecap: square"/>
   </g>
   <g id="patch_6">
    <path d="M 57.6 41.472 
L 414.72 41.472 
" style="fill: none; stroke: #000000; stroke-width: 0.8; stroke-linejoin: miter; stroke-linecap: square"/>
   </g>
   <g id="legend_1">
    <g id="patch_7">
     <path d="M 276.73875 108.1845 
L 407.72 108.1845 
Q 409.72 108.1845 409.72 106.1845 
L 409.72 48.472 
Q 409.72 46.472 407.72 46.472 
L 276.73875 46.472 
Q 274.73875 46.472 274.73875 48.472 
L 274.73875 106.1845 
Q 274.73875 108.1845 276.73875 108.1845 
z
" style="fill: #ffffff; opacity: 0.8; stroke: #cccccc; stroke-linejoin: miter"/>
    </g>
    <g id="line2d_14">
     <path d="M 278.73875 54.570438 
L 288.73875 54.570438 
L 298.73875 54.570438 
" style="fill: none; stroke: #1f77b4; stroke-width: 1.5; stroke-linecap: square"/>
     <g>
      <use xlink:href="#m1238929dd1" x="288.73875" y="54.570438" style="fill: #1f77b4; stroke: #1f77b4; stroke-linejoin: miter"/>
     </g>
    </g>
    <g id="text_12">
     <!-- Deterministic AMRC -->
     <g transform="translate(306.73875 58.070438)scale(0.1 -0.1)">
      <defs>
       <path id="DejaVuSans-44" d="M 1259 4147 
L 1259 519 
L 2022 519 
Q 2988 519 3436 956 
Q 3884 1394 3884 2338 
Q 3884 3275 3436 3711 
Q 2988 4147 2022 4147 
L 1259 4147 
z
M 628 4666 
L 1925 4666 
Q 3281 4666 3915 4102 
Q 4550 3538 4550 2338 
Q 4550 1131 3912 565 
Q 3275 0 1925 0 
L 628 0 
L 628 4666 
z
" transform="scale(0.015625)"/>
       <path id="DejaVuSans-6e" d="M 3513 2113 
L 3513 0 
L 2938 0 
L 2938 2094 
Q 2938 2591 2744 2837 
Q 2550 3084 2163 3084 
Q 1697 3084 1428 2787 
Q 1159 2491 1159 1978 
L 1159 0 
L 581 0 
L 581 3500 
L 1159 3500 
L 1159 2956 
Q 1366 3272 1645 3428 
Q 1925 3584 2291 3584 
Q 2894 3584 3203 3211 
Q 3513 2838 3513 2113 
z
" transform="scale(0.015625)"/>
       <path id="DejaVuSans-4d" d="M 628 4666 
L 1569 4666 
L 2759 1491 
L 3956 4666 
L 4897 4666 
L 4897 0 
L 4281 0 
L 4281 4097 
L 3078 897 
L 2444 897 
L 1241 4097 
L 1241 0 
L 628 0 
L 628 4666 
z
" transform="scale(0.015625)"/>
       <path id="DejaVuSans-52" d="M 2841 2188 
Q 3044 2119 3236 1894 
Q 3428 1669 3622 1275 
L 4263 0 
L 3584 0 
L 2988 1197 
Q 2756 1666 2539 1819 
Q 2322 1972 1947 1972 
L 1259 1972 
L 1259 0 
L 628 0 
L 628 4666 
L 2053 4666 
Q 2853 4666 3247 4331 
Q 3641 3997 3641 3322 
Q 3641 2881 3436 2590 
Q 3231 2300 2841 2188 
z
M 1259 4147 
L 1259 2491 
L 2053 2491 
Q 2509 2491 2742 2702 
Q 2975 2913 2975 3322 
Q 2975 3731 2742 3939 
Q 2509 4147 2053 4147 
L 1259 4147 
z
" transform="scale(0.015625)"/>
       <path id="DejaVuSans-43" d="M 4122 4306 
L 4122 3641 
Q 3803 3938 3442 4084 
Q 3081 4231 2675 4231 
Q 1875 4231 1450 3742 
Q 1025 3253 1025 2328 
Q 1025 1406 1450 917 
Q 1875 428 2675 428 
Q 3081 428 3442 575 
Q 3803 722 4122 1019 
L 4122 359 
Q 3791 134 3420 21 
Q 3050 -91 2638 -91 
Q 1578 -91 968 557 
Q 359 1206 359 2328 
Q 359 3453 968 4101 
Q 1578 4750 2638 4750 
Q 3056 4750 3426 4639 
Q 3797 4528 4122 4306 
z
" transform="scale(0.015625)"/>
      </defs>
      <use xlink:href="#DejaVuSans-44"/>
      <use xlink:href="#DejaVuSans-65" x="77.001953"/>
      <use xlink:href="#DejaVuSans-74" x="138.525391"/>
      <use xlink:href="#DejaVuSans-65" x="177.734375"/>
      <use xlink:href="#DejaVuSans-72" x="239.257812"/>
      <use xlink:href="#DejaVuSans-6d" x="278.621094"/>
      <use xlink:href="#DejaVuSans-69" x="376.033203"/>
      <use xlink:href="#DejaVuSans-6e" x="403.816406"/>
      <use xlink:href="#DejaVuSans-69" x="467.195312"/>
      <use xlink:href="#DejaVuSans-73" x="494.978516"/>
      <use xlink:href="#DejaVuSans-74" x="547.078125"/>
      <use xlink:href="#DejaVuSans-69" x="586.287109"/>
      <use xlink:href="#DejaVuSans-63" x="614.070312"/>
      <use xlink:href="#DejaVuSans-20" x="669.050781"/>
      <use xlink:href="#DejaVuSans-41" x="700.837891"/>
      <use xlink:href="#DejaVuSans-4d" x="769.246094"/>
      <use xlink:href="#DejaVuSans-52" x="855.525391"/>
      <use xlink:href="#DejaVuSans-43" x="920.007812"/>
     </g>
    </g>
    <g id="line2d_15">
     <path d="M 278.73875 69.248563 
L 288.73875 69.248563 
L 298.73875 69.248563 
" style="fill: none; stroke: #ff7f0e; stroke-width: 1.5; stroke-linecap: square"/>
     <g>
      <use xlink:href="#mda104904bf" x="288.73875" y="69.248563" style="fill: #ff7f0e; stroke: #ff7f0e"/>
     </g>
    </g>
    <g id="text_13">
     <!-- AMRC -->
     <g transform="translate(306.73875 72.748563)scale(0.1 -0.1)">
      <use xlink:href="#DejaVuSans-41"/>
      <use xlink:href="#DejaVuSans-4d" x="68.408203"/>
      <use xlink:href="#DejaVuSans-52" x="154.6875"/>
      <use xlink:href="#DejaVuSans-43" x="219.169922"/>
     </g>
    </g>
    <g id="line2d_16">
     <path d="M 278.73875 83.926688 
L 288.73875 83.926688 
L 298.73875 83.926688 
" style="fill: none; stroke-dasharray: 5.55,2.4; stroke-dashoffset: 0; stroke: #2ca02c; stroke-width: 1.5"/>
     <g>
      <use xlink:href="#m2b50b21ab5" x="288.73875" y="83.926688" style="fill: #2ca02c; stroke: #2ca02c"/>
     </g>
    </g>
    <g id="text_14">
     <!-- Bound AMRC -->
     <g transform="translate(306.73875 87.426688)scale(0.1 -0.1)">
      <defs>
       <path id="DejaVuSans-42" d="M 1259 2228 
L 1259 519 
L 2272 519 
Q 2781 519 3026 730 
Q 3272 941 3272 1375 
Q 3272 1813 3026 2020 
Q 2781 2228 2272 2228 
L 1259 2228 
z
M 1259 4147 
L 1259 2741 
L 2194 2741 
Q 2656 2741 2882 2914 
Q 3109 3088 3109 3444 
Q 3109 3797 2882 3972 
Q 2656 4147 2194 4147 
L 1259 4147 
z
M 628 4666 
L 2241 4666 
Q 2963 4666 3353 4366 
Q 3744 4066 3744 3513 
Q 3744 3084 3544 2831 
Q 3344 2578 2956 2516 
Q 3422 2416 3680 2098 
Q 3938 1781 3938 1306 
Q 3938 681 3513 340 
Q 3088 0 2303 0 
L 628 0 
L 628 4666 
z
" transform="scale(0.015625)"/>
       <path id="DejaVuSans-6f" d="M 1959 3097 
Q 1497 3097 1228 2736 
Q 959 2375 959 1747 
Q 959 1119 1226 758 
Q 1494 397 1959 397 
Q 2419 397 2687 759 
Q 2956 1122 2956 1747 
Q 2956 2369 2687 2733 
Q 2419 3097 1959 3097 
z
M 1959 3584 
Q 2709 3584 3137 3096 
Q 3566 2609 3566 1747 
Q 3566 888 3137 398 
Q 2709 -91 1959 -91 
Q 1206 -91 779 398 
Q 353 888 353 1747 
Q 353 2609 779 3096 
Q 1206 3584 1959 3584 
z
" transform="scale(0.015625)"/>
      </defs>
      <use xlink:href="#DejaVuSans-42"/>
      <use xlink:href="#DejaVuSans-6f" x="68.603516"/>
      <use xlink:href="#DejaVuSans-75" x="129.785156"/>
      <use xlink:href="#DejaVuSans-6e" x="193.164062"/>
      <use xlink:href="#DejaVuSans-64" x="256.542969"/>
      <use xlink:href="#DejaVuSans-20" x="320.019531"/>
      <use xlink:href="#DejaVuSans-41" x="351.806641"/>
      <use xlink:href="#DejaVuSans-4d" x="420.214844"/>
      <use xlink:href="#DejaVuSans-52" x="506.494141"/>
      <use xlink:href="#DejaVuSans-43" x="570.976562"/>
     </g>
    </g>
    <g id="line2d_17">
     <path d="M 278.73875 98.604813 
L 288.73875 98.604813 
L 298.73875 98.604813 
" style="fill: none; stroke: #d62728; stroke-width: 1.5; stroke-linecap: square"/>
     <g>
      <use xlink:href="#m84d68c3a9b" x="288.73875" y="98.604813" style="fill: #d62728; stroke: #d62728; stroke-linejoin: miter"/>
     </g>
    </g>
    <g id="text_15">
     <!-- DWM-Hoeffding -->
     <g transform="translate(306.73875 102.104813)scale(0.1 -0.1)">
      <defs>
       <path id="DejaVuSans-57" d="M 213 4666 
L 850 4666 
L 1831 722 
L 2809 4666 
L 3519 4666 
L 4500 722 
L 5478 4666 
L 6119 4666 
L 4947 0 
L 4153 0 
L 3169 4050 
L 2175 0 
L 1381 0 
L 213 4666 
z
" transform="scale(0.015625)"/>
       <path id="DejaVuSans-2d" d="M 313 2009 
L 1997 2009 
L 1997 1497 
L 313 1497 
L 313 2009 
z
" transform="scale(0.015625)"/>
       <path id="DejaVuSans-48" d="M 628 4666 
L 1259 4666 
L 1259 2753 
L 3553 2753 
L 3553 4666 
L 4184 4666 
L 4184 0 
L 3553 0 
L 3553 2222 
L 1259 2222 
L 1259 0 
L 628 0 
L 628 4666 
z
" transform="scale(0.015625)"/>
       <path id="DejaVuSans-66" d="M 2375 4863 
L 2375 4384 
L 1825 4384 
Q 1516 4384 1395 4259 
Q 1275 4134 1275 3809 
L 1275 3500 
L 2222 3500 
L 2222 3053 
L 1275 3053 
L 1275 0 
L 697 0 
L 697 3053 
L 147 3053 
L 147 3500 
L 697 3500 
L 697 3744 
Q 697 4328 969 4595 
Q 1241 4863 1831 4863 
L 2375 4863 
z
" transform="scale(0.015625)"/>
       <path id="DejaVuSans-67" d="M 2906 1791 
Q 2906 2416 2648 2759 
Q 2391 3103 1925 3103 
Q 1463 3103 1205 2759 
Q 947 2416 947 1791 
Q 947 1169 1205 825 
Q 1463 481 1925 481 
Q 2391 481 2648 825 
Q 2906 1169 2906 1791 
z
M 3481 434 
Q 3481 -459 3084 -895 
Q 2688 -1331 1869 -1331 
Q 1566 -1331 1297 -1286 
Q 1028 -1241 775 -1147 
L 775 -588 
Q 1028 -725 1275 -790 
Q 1522 -856 1778 -856 
Q 2344 -856 2625 -561 
Q 2906 -266 2906 331 
L 2906 616 
Q 2728 306 2450 153 
Q 2172 0 1784 0 
Q 1141 0 747 490 
Q 353 981 353 1791 
Q 353 2603 747 3093 
Q 1141 3584 1784 3584 
Q 2172 3584 2450 3431 
Q 2728 3278 2906 2969 
L 2906 3500 
L 3481 3500 
L 3481 434 
z
" transform="scale(0.015625)"/>
      </defs>
      <use xlink:href="#DejaVuSans-44"/>
      <use xlink:href="#DejaVuSans-57" x="77.001953"/>
      <use xlink:href="#DejaVuSans-4d" x="175.878906"/>
      <use xlink:href="#DejaVuSans-2d" x="262.158203"/>
      <use xlink:href="#DejaVuSans-48" x="298.242188"/>
      <use xlink:href="#DejaVuSans-6f" x="373.4375"/>
      <use xlink:href="#DejaVuSans-65" x="434.619141"/>
      <use xlink:href="#DejaVuSans-66" x="496.142578"/>
      <use xlink:href="#DejaVuSans-66" x="531.347656"/>
      <use xlink:href="#DejaVuSans-64" x="566.552734"/>
      <use xlink:href="#DejaVuSans-69" x="630.029297"/>
      <use xlink:href="#DejaVuSans-6e" x="657.8125"/>
      <use xlink:href="#DejaVuSans-67" x="721.191406"/>
     </g>
    </g>
   </g>
  </g>
 </g>
 <defs>
  <clipPath id="pf9e49c8c62">
   <rect x="57.6" y="41.472" width="357.12" height="266.112"/>
  </clipPath>
 </defs>
</svg>
