<?xml version="1.0" encoding="utf-8" standalone="no"?>
<!DOCTYPE svg PUBLIC "-//W3C//DTD SVG 1.1//EN"
  "http://www.w3.org/Graphics/SVG/1.1/DTD/svg11.dtd">
<svg xmlns:xlink="http://www.w3.org/1999/xlink" width="460.8pt" height="345.6pt" viewBox="0 0 460.8 345.6" xmlns="http://www.w3.org/2000/svg" version="1.1">
 <metadata>
  <rdf:RDF xmlns:dc="http://purl.org/dc/elements/1.1/" xmlns:cc="http://creativecommons.org/ns#" xmlns:rdf="http://www.w3.org/1999/02/22-rdf-syntax-ns#">
   <cc:Work>
    <dc:type rdf:resource="http://purl.org/dc/dcmitype/StillImage"/>
    <dc:date>2022-11-07T22:32:30.337190</dc:date>
    <dc:format>image/svg+xml</dc:format>
    <dc:creator>
     <cc:Agent>
      <dc:title>Matplotlib v3.5.2, https://matplotlib.org/</dc:title>
     </cc:Agent>
    </dc:creator>
   </cc:Work>
  </rdf:RDF>
 </metadata>
 <defs>
  <style type="text/css">*{stroke-linejoin: round; stroke-linecap: butt}</style>
 </defs>
 <g id="figure_1">
  <g id="patch_1">
   <path d="M 0 345.6 
L 460.8 345.6 
L 460.8 0 
L 0 0 
z
" style="fill: #ffffff"/>
  </g>
  <g id="axes_1">
   <g id="patch_2">
    <path d="M 57.6 307.584 
L 414.72 307.584 
L 414.72 41.472 
L 57.6 41.472 
z
" style="fill: #ffffff"/>
   </g>
   <g id="matplotlib.axis_1">
    <g id="xtick_1">
     <g id="line2d_1">
      <defs>
       <path id="m7ca28ccda1" d="M 0 0 
L 0 3.5 
" style="stroke: #000000; stroke-width: 0.8"/>
      </defs>
      <g>
       <use xlink:href="#m7ca28ccda1" x="57.6" y="307.584" style="stroke: #000000; stroke-width: 0.8"/>
      </g>
     </g>
     <g id="text_1">
      <!-- 0 -->
      <g transform="translate(54.41875 322.182437)scale(0.1 -0.1)">
       <defs>
        <path id="DejaVuSans-30" d="M 2034 4250 
Q 1547 4250 1301 3770 
Q 1056 3291 1056 2328 
Q 1056 1369 1301 889 
Q 1547 409 2034 409 
Q 2525 409 2770 889 
Q 3016 1369 3016 2328 
Q 3016 3291 2770 3770 
Q 2525 4250 2034 4250 
z
M 2034 4750 
Q 2819 4750 3233 4129 
Q 3647 3509 3647 2328 
Q 3647 1150 3233 529 
Q 2819 -91 2034 -91 
Q 1250 -91 836 529 
Q 422 1150 422 2328 
Q 422 3509 836 4129 
Q 1250 4750 2034 4750 
z
" transform="scale(0.015625)"/>
       </defs>
       <use xlink:href="#DejaVuSans-30"/>
      </g>
     </g>
    </g>
    <g id="xtick_2">
     <g id="line2d_2">
      <g>
       <use xlink:href="#m7ca28ccda1" x="176.64" y="307.584" style="stroke: #000000; stroke-width: 0.8"/>
      </g>
     </g>
     <g id="text_2">
      <!-- 500 -->
      <g transform="translate(167.09625 322.182437)scale(0.1 -0.1)">
       <defs>
        <path id="DejaVuSans-35" d="M 691 4666 
L 3169 4666 
L 3169 4134 
L 1269 4134 
L 1269 2991 
Q 1406 3038 1543 3061 
Q 1681 3084 1819 3084 
Q 2600 3084 3056 2656 
Q 3513 2228 3513 1497 
Q 3513 744 3044 326 
Q 2575 -91 1722 -91 
Q 1428 -91 1123 -41 
Q 819 9 494 109 
L 494 744 
Q 775 591 1075 516 
Q 1375 441 1709 441 
Q 2250 441 2565 725 
Q 2881 1009 2881 1497 
Q 2881 1984 2565 2268 
Q 2250 2553 1709 2553 
Q 1456 2553 1204 2497 
Q 953 2441 691 2322 
L 691 4666 
z
" transform="scale(0.015625)"/>
       </defs>
       <use xlink:href="#DejaVuSans-35"/>
       <use xlink:href="#DejaVuSans-30" x="63.623047"/>
       <use xlink:href="#DejaVuSans-30" x="127.246094"/>
      </g>
     </g>
    </g>
    <g id="xtick_3">
     <g id="line2d_3">
      <g>
       <use xlink:href="#m7ca28ccda1" x="295.68" y="307.584" style="stroke: #000000; stroke-width: 0.8"/>
      </g>
     </g>
     <g id="text_3">
      <!-- 1000 -->
      <g transform="translate(282.955 322.182437)scale(0.1 -0.1)">
       <defs>
        <path id="DejaVuSans-31" d="M 794 531 
L 1825 531 
L 1825 4091 
L 703 3866 
L 703 4441 
L 1819 4666 
L 2450 4666 
L 2450 531 
L 3481 531 
L 3481 0 
L 794 0 
L 794 531 
z
" transform="scale(0.015625)"/>
       </defs>
       <use xlink:href="#DejaVuSans-31"/>
       <use xlink:href="#DejaVuSans-30" x="63.623047"/>
       <use xlink:href="#DejaVuSans-30" x="127.246094"/>
       <use xlink:href="#DejaVuSans-30" x="190.869141"/>
      </g>
     </g>
    </g>
    <g id="xtick_4">
     <g id="line2d_4">
      <g>
       <use xlink:href="#m7ca28ccda1" x="414.72" y="307.584" style="stroke: #000000; stroke-width: 0.8"/>
      </g>
     </g>
     <g id="text_4">
      <!-- 1500 -->
      <g transform="translate(401.995 322.182437)scale(0.1 -0.1)">
       <use xlink:href="#DejaVuSans-31"/>
       <use xlink:href="#DejaVuSans-35" x="63.623047"/>
       <use xlink:href="#DejaVuSans-30" x="127.246094"/>
       <use xlink:href="#DejaVuSans-30" x="190.869141"/>
      </g>
     </g>
    </g>
    <g id="text_5">
     <!-- Time t -->
     <g transform="translate(220.377187 335.860562)scale(0.1 -0.1)">
      <defs>
       <path id="DejaVuSans-54" d="M -19 4666 
L 3928 4666 
L 3928 4134 
L 2272 4134 
L 2272 0 
L 1638 0 
L 1638 4134 
L -19 4134 
L -19 4666 
z
" transform="scale(0.015625)"/>
       <path id="DejaVuSans-69" d="M 603 3500 
L 1178 3500 
L 1178 0 
L 603 0 
L 603 3500 
z
M 603 4863 
L 1178 4863 
L 1178 4134 
L 603 4134 
L 603 4863 
z
" transform="scale(0.015625)"/>
       <path id="DejaVuSans-6d" d="M 3328 2828 
Q 3544 3216 3844 3400 
Q 4144 3584 4550 3584 
Q 5097 3584 5394 3201 
Q 5691 2819 5691 2113 
L 5691 0 
L 5113 0 
L 5113 2094 
Q 5113 2597 4934 2840 
Q 4756 3084 4391 3084 
Q 3944 3084 3684 2787 
Q 3425 2491 3425 1978 
L 3425 0 
L 2847 0 
L 2847 2094 
Q 2847 2600 2669 2842 
Q 2491 3084 2119 3084 
Q 1678 3084 1418 2786 
Q 1159 2488 1159 1978 
L 1159 0 
L 581 0 
L 581 3500 
L 1159 3500 
L 1159 2956 
Q 1356 3278 1631 3431 
Q 1906 3584 2284 3584 
Q 2666 3584 2933 3390 
Q 3200 3197 3328 2828 
z
" transform="scale(0.015625)"/>
       <path id="DejaVuSans-65" d="M 3597 1894 
L 3597 1613 
L 953 1613 
Q 991 1019 1311 708 
Q 1631 397 2203 397 
Q 2534 397 2845 478 
Q 3156 559 3463 722 
L 3463 178 
Q 3153 47 2828 -22 
Q 2503 -91 2169 -91 
Q 1331 -91 842 396 
Q 353 884 353 1716 
Q 353 2575 817 3079 
Q 1281 3584 2069 3584 
Q 2775 3584 3186 3129 
Q 3597 2675 3597 1894 
z
M 3022 2063 
Q 3016 2534 2758 2815 
Q 2500 3097 2075 3097 
Q 1594 3097 1305 2825 
Q 1016 2553 972 2059 
L 3022 2063 
z
" transform="scale(0.015625)"/>
       <path id="DejaVuSans-20" transform="scale(0.015625)"/>
       <path id="DejaVuSans-74" d="M 1172 4494 
L 1172 3500 
L 2356 3500 
L 2356 3053 
L 1172 3053 
L 1172 1153 
Q 1172 725 1289 603 
Q 1406 481 1766 481 
L 2356 481 
L 2356 0 
L 1766 0 
Q 1100 0 847 248 
Q 594 497 594 1153 
L 594 3053 
L 172 3053 
L 172 3500 
L 594 3500 
L 594 4494 
L 1172 4494 
z
" transform="scale(0.015625)"/>
      </defs>
      <use xlink:href="#DejaVuSans-54"/>
      <use xlink:href="#DejaVuSans-69" x="57.958984"/>
      <use xlink:href="#DejaVuSans-6d" x="85.742188"/>
      <use xlink:href="#DejaVuSans-65" x="183.154297"/>
      <use xlink:href="#DejaVuSans-20" x="244.677734"/>
      <use xlink:href="#DejaVuSans-74" x="276.464844"/>
     </g>
    </g>
   </g>
   <g id="matplotlib.axis_2">
    <g id="ytick_1">
     <g id="line2d_5">
      <defs>
       <path id="mf7279607bc" d="M 0 0 
L -3.5 0 
" style="stroke: #000000; stroke-width: 0.8"/>
      </defs>
      <g>
       <use xlink:href="#mf7279607bc" x="57.6" y="307.584" style="stroke: #000000; stroke-width: 0.8"/>
      </g>
     </g>
     <g id="text_6">
      <!-- 0.1 -->
      <g transform="translate(34.696875 311.383219)scale(0.1 -0.1)">
       <defs>
        <path id="DejaVuSans-2e" d="M 684 794 
L 1344 794 
L 1344 0 
L 684 0 
L 684 794 
z
" transform="scale(0.015625)"/>
       </defs>
       <use xlink:href="#DejaVuSans-30"/>
       <use xlink:href="#DejaVuSans-2e" x="63.623047"/>
       <use xlink:href="#DejaVuSans-31" x="95.410156"/>
      </g>
     </g>
    </g>
    <g id="ytick_2">
     <g id="line2d_6">
      <g>
       <use xlink:href="#mf7279607bc" x="57.6" y="218.88" style="stroke: #000000; stroke-width: 0.8"/>
      </g>
     </g>
     <g id="text_7">
      <!-- 0.4 -->
      <g transform="translate(34.696875 222.679219)scale(0.1 -0.1)">
       <defs>
        <path id="DejaVuSans-34" d="M 2419 4116 
L 825 1625 
L 2419 1625 
L 2419 4116 
z
M 2253 4666 
L 3047 4666 
L 3047 1625 
L 3713 1625 
L 3713 1100 
L 3047 1100 
L 3047 0 
L 2419 0 
L 2419 1100 
L 313 1100 
L 313 1709 
L 2253 4666 
z
" transform="scale(0.015625)"/>
       </defs>
       <use xlink:href="#DejaVuSans-30"/>
       <use xlink:href="#DejaVuSans-2e" x="63.623047"/>
       <use xlink:href="#DejaVuSans-34" x="95.410156"/>
      </g>
     </g>
    </g>
    <g id="ytick_3">
     <g id="line2d_7">
      <g>
       <use xlink:href="#mf7279607bc" x="57.6" y="130.176" style="stroke: #000000; stroke-width: 0.8"/>
      </g>
     </g>
     <g id="text_8">
      <!-- 0.7 -->
      <g transform="translate(34.696875 133.975219)scale(0.1 -0.1)">
       <defs>
        <path id="DejaVuSans-37" d="M 525 4666 
L 3525 4666 
L 3525 4397 
L 1831 0 
L 1172 0 
L 2766 4134 
L 525 4134 
L 525 4666 
z
" transform="scale(0.015625)"/>
       </defs>
       <use xlink:href="#DejaVuSans-30"/>
       <use xlink:href="#DejaVuSans-2e" x="63.623047"/>
       <use xlink:href="#DejaVuSans-37" x="95.410156"/>
      </g>
     </g>
    </g>
    <g id="ytick_4">
     <g id="line2d_8">
      <g>
       <use xlink:href="#mf7279607bc" x="57.6" y="41.472" style="stroke: #000000; stroke-width: 0.8"/>
      </g>
     </g>
     <g id="text_9">
      <!-- 1.0 -->
      <g transform="translate(34.696875 45.271219)scale(0.1 -0.1)">
       <use xlink:href="#DejaVuSans-31"/>
       <use xlink:href="#DejaVuSans-2e" x="63.623047"/>
       <use xlink:href="#DejaVuSans-30" x="95.410156"/>
      </g>
     </g>
    </g>
    <g id="text_10">
     <!-- Accumulated mistakes per time -->
     <g transform="translate(28.617187 253.88425)rotate(-90)scale(0.1 -0.1)">
      <defs>
       <path id="DejaVuSans-41" d="M 2188 4044 
L 1331 1722 
L 3047 1722 
L 2188 4044 
z
M 1831 4666 
L 2547 4666 
L 4325 0 
L 3669 0 
L 3244 1197 
L 1141 1197 
L 716 0 
L 50 0 
L 1831 4666 
z
" transform="scale(0.015625)"/>
       <path id="DejaVuSans-63" d="M 3122 3366 
L 3122 2828 
Q 2878 2963 2633 3030 
Q 2388 3097 2138 3097 
Q 1578 3097 1268 2742 
Q 959 2388 959 1747 
Q 959 1106 1268 751 
Q 1578 397 2138 397 
Q 2388 397 2633 464 
Q 2878 531 3122 666 
L 3122 134 
Q 2881 22 2623 -34 
Q 2366 -91 2075 -91 
Q 1284 -91 818 406 
Q 353 903 353 1747 
Q 353 2603 823 3093 
Q 1294 3584 2113 3584 
Q 2378 3584 2631 3529 
Q 2884 3475 3122 3366 
z
" transform="scale(0.015625)"/>
       <path id="DejaVuSans-75" d="M 544 1381 
L 544 3500 
L 1119 3500 
L 1119 1403 
Q 1119 906 1312 657 
Q 1506 409 1894 409 
Q 2359 409 2629 706 
Q 2900 1003 2900 1516 
L 2900 3500 
L 3475 3500 
L 3475 0 
L 2900 0 
L 2900 538 
Q 2691 219 2414 64 
Q 2138 -91 1772 -91 
Q 1169 -91 856 284 
Q 544 659 544 1381 
z
M 1991 3584 
L 1991 3584 
z
" transform="scale(0.015625)"/>
       <path id="DejaVuSans-6c" d="M 603 4863 
L 1178 4863 
L 1178 0 
L 603 0 
L 603 4863 
z
" transform="scale(0.015625)"/>
       <path id="DejaVuSans-61" d="M 2194 1759 
Q 1497 1759 1228 1600 
Q 959 1441 959 1056 
Q 959 750 1161 570 
Q 1363 391 1709 391 
Q 2188 391 2477 730 
Q 2766 1069 2766 1631 
L 2766 1759 
L 2194 1759 
z
M 3341 1997 
L 3341 0 
L 2766 0 
L 2766 531 
Q 2569 213 2275 61 
Q 1981 -91 1556 -91 
Q 1019 -91 701 211 
Q 384 513 384 1019 
Q 384 1609 779 1909 
Q 1175 2209 1959 2209 
L 2766 2209 
L 2766 2266 
Q 2766 2663 2505 2880 
Q 2244 3097 1772 3097 
Q 1472 3097 1187 3025 
Q 903 2953 641 2809 
L 641 3341 
Q 956 3463 1253 3523 
Q 1550 3584 1831 3584 
Q 2591 3584 2966 3190 
Q 3341 2797 3341 1997 
z
" transform="scale(0.015625)"/>
       <path id="DejaVuSans-64" d="M 2906 2969 
L 2906 4863 
L 3481 4863 
L 3481 0 
L 2906 0 
L 2906 525 
Q 2725 213 2448 61 
Q 2172 -91 1784 -91 
Q 1150 -91 751 415 
Q 353 922 353 1747 
Q 353 2572 751 3078 
Q 1150 3584 1784 3584 
Q 2172 3584 2448 3432 
Q 2725 3281 2906 2969 
z
M 947 1747 
Q 947 1113 1208 752 
Q 1469 391 1925 391 
Q 2381 391 2643 752 
Q 2906 1113 2906 1747 
Q 2906 2381 2643 2742 
Q 2381 3103 1925 3103 
Q 1469 3103 1208 2742 
Q 947 2381 947 1747 
z
" transform="scale(0.015625)"/>
       <path id="DejaVuSans-73" d="M 2834 3397 
L 2834 2853 
Q 2591 2978 2328 3040 
Q 2066 3103 1784 3103 
Q 1356 3103 1142 2972 
Q 928 2841 928 2578 
Q 928 2378 1081 2264 
Q 1234 2150 1697 2047 
L 1894 2003 
Q 2506 1872 2764 1633 
Q 3022 1394 3022 966 
Q 3022 478 2636 193 
Q 2250 -91 1575 -91 
Q 1294 -91 989 -36 
Q 684 19 347 128 
L 347 722 
Q 666 556 975 473 
Q 1284 391 1588 391 
Q 1994 391 2212 530 
Q 2431 669 2431 922 
Q 2431 1156 2273 1281 
Q 2116 1406 1581 1522 
L 1381 1569 
Q 847 1681 609 1914 
Q 372 2147 372 2553 
Q 372 3047 722 3315 
Q 1072 3584 1716 3584 
Q 2034 3584 2315 3537 
Q 2597 3491 2834 3397 
z
" transform="scale(0.015625)"/>
       <path id="DejaVuSans-6b" d="M 581 4863 
L 1159 4863 
L 1159 1991 
L 2875 3500 
L 3609 3500 
L 1753 1863 
L 3688 0 
L 2938 0 
L 1159 1709 
L 1159 0 
L 581 0 
L 581 4863 
z
" transform="scale(0.015625)"/>
       <path id="DejaVuSans-70" d="M 1159 525 
L 1159 -1331 
L 581 -1331 
L 581 3500 
L 1159 3500 
L 1159 2969 
Q 1341 3281 1617 3432 
Q 1894 3584 2278 3584 
Q 2916 3584 3314 3078 
Q 3713 2572 3713 1747 
Q 3713 922 3314 415 
Q 2916 -91 2278 -91 
Q 1894 -91 1617 61 
Q 1341 213 1159 525 
z
M 3116 1747 
Q 3116 2381 2855 2742 
Q 2594 3103 2138 3103 
Q 1681 3103 1420 2742 
Q 1159 2381 1159 1747 
Q 1159 1113 1420 752 
Q 1681 391 2138 391 
Q 2594 391 2855 752 
Q 3116 1113 3116 1747 
z
" transform="scale(0.015625)"/>
       <path id="DejaVuSans-72" d="M 2631 2963 
Q 2534 3019 2420 3045 
Q 2306 3072 2169 3072 
Q 1681 3072 1420 2755 
Q 1159 2438 1159 1844 
L 1159 0 
L 581 0 
L 581 3500 
L 1159 3500 
L 1159 2956 
Q 1341 3275 1631 3429 
Q 1922 3584 2338 3584 
Q 2397 3584 2469 3576 
Q 2541 3569 2628 3553 
L 2631 2963 
z
" transform="scale(0.015625)"/>
      </defs>
      <use xlink:href="#DejaVuSans-41"/>
      <use xlink:href="#DejaVuSans-63" x="66.658203"/>
      <use xlink:href="#DejaVuSans-63" x="121.638672"/>
      <use xlink:href="#DejaVuSans-75" x="176.619141"/>
      <use xlink:href="#DejaVuSans-6d" x="239.998047"/>
      <use xlink:href="#DejaVuSans-75" x="337.410156"/>
      <use xlink:href="#DejaVuSans-6c" x="400.789062"/>
      <use xlink:href="#DejaVuSans-61" x="428.572266"/>
      <use xlink:href="#DejaVuSans-74" x="489.851562"/>
      <use xlink:href="#DejaVuSans-65" x="529.060547"/>
      <use xlink:href="#DejaVuSans-64" x="590.583984"/>
      <use xlink:href="#DejaVuSans-20" x="654.060547"/>
      <use xlink:href="#DejaVuSans-6d" x="685.847656"/>
      <use xlink:href="#DejaVuSans-69" x="783.259766"/>
      <use xlink:href="#DejaVuSans-73" x="811.042969"/>
      <use xlink:href="#DejaVuSans-74" x="863.142578"/>
      <use xlink:href="#DejaVuSans-61" x="902.351562"/>
      <use xlink:href="#DejaVuSans-6b" x="963.630859"/>
      <use xlink:href="#DejaVuSans-65" x="1017.916016"/>
      <use xlink:href="#DejaVuSans-73" x="1079.439453"/>
      <use xlink:href="#DejaVuSans-20" x="1131.539062"/>
      <use xlink:href="#DejaVuSans-70" x="1163.326172"/>
      <use xlink:href="#DejaVuSans-65" x="1226.802734"/>
      <use xlink:href="#DejaVuSans-72" x="1288.326172"/>
      <use xlink:href="#DejaVuSans-20" x="1329.439453"/>
      <use xlink:href="#DejaVuSans-74" x="1361.226562"/>
      <use xlink:href="#DejaVuSans-69" x="1400.435547"/>
      <use xlink:href="#DejaVuSans-6d" x="1428.21875"/>
      <use xlink:href="#DejaVuSans-65" x="1525.630859"/>
     </g>
    </g>
   </g>
   <g id="line2d_9">
    <path d="M 57.83808 41.472 
L 58.07616 189.312 
L 58.31424 238.592 
L 58.55232 189.312 
L 59.02848 238.592 
L 59.26656 210.432 
L 59.74272 238.592 
L 59.9808 218.88 
L 60.45696 238.592 
L 60.69504 223.428923 
L 61.1712 238.592 
L 61.40928 226.272 
L 61.88544 238.592 
L 62.12352 228.217263 
L 62.59968 238.592 
L 62.83776 229.632 
L 63.31392 238.592 
L 63.552 230.7072 
L 64.02816 238.592 
L 64.26624 231.552 
L 64.7424 238.592 
L 64.98048 232.23329 
L 65.45664 238.592 
L 65.69472 232.794353 
L 66.17088 238.592 
L 66.40896 233.264432 
L 66.88512 238.592 
L 67.1232 233.664 
L 67.59936 238.592 
L 67.83744 234.007814 
L 68.3136 238.592 
L 68.55168 234.306783 
L 69.02784 238.592 
L 69.26592 234.569143 
L 69.504 236.6208 
L 69.98016 229.115077 
L 70.45632 233.116444 
L 70.6944 229.632 
L 71.17056 233.404632 
L 71.40864 230.095448 
L 71.8848 233.664 
L 72.12288 230.513311 
L 72.59904 233.898667 
L 72.83712 230.892 
L 73.31328 234.112 
L 73.55136 231.236776 
L 74.02752 234.306783 
L 74.2656 231.552 
L 74.74176 234.485333 
L 74.97984 231.841315 
L 75.456 234.6496 
L 75.69408 232.107789 
L 76.17024 234.801231 
L 76.40832 232.354025 
L 76.88448 234.94163 
L 77.12256 232.582244 
L 77.59872 235.072 
L 77.8368 232.794353 
L 78.31296 235.193379 
L 78.55104 232.992 
L 79.0272 235.306667 
L 79.26528 233.176615 
L 79.74144 235.412645 
L 79.97952 233.349447 
L 80.45568 235.512 
L 80.69376 233.511588 
L 82.36032 240.487385 
L 82.5984 241.408 
L 82.83648 239.521811 
L 83.31264 241.329778 
L 83.55072 239.49622 
L 84.02688 241.255784 
L 84.26496 239.472 
L 84.74112 241.185684 
L 84.9792 239.449043 
L 85.69344 241.933017 
L 85.93152 240.248471 
L 86.1696 241.056 
L 86.40768 239.406545 
L 86.88384 240.995902 
L 87.12192 239.386839 
L 88.31232 243.176186 
L 88.5504 241.624615 
L 89.02656 243.072 
L 89.26464 241.556211 
L 89.7408 242.972444 
L 89.97888 241.490824 
L 90.45504 242.877217 
L 90.69312 241.428259 
L 91.16928 242.786043 
L 91.40736 241.368338 
L 91.88352 242.698667 
L 92.1216 241.310897 
L 92.59776 242.614857 
L 92.83584 241.255784 
L 93.312 242.5344 
L 93.55008 241.202861 
L 95.6928 246.6 
L 97.59744 250.912 
L 97.83552 249.67271 
L 98.31168 250.69586 
L 98.54976 249.479442 
L 99.02592 250.487172 
L 99.264 249.2928 
L 99.74016 250.285559 
L 99.97824 249.112449 
L 100.4544 250.090667 
L 100.69248 248.938077 
L 101.16864 249.902164 
L 101.40672 248.769391 
L 101.88288 249.719742 
L 102.12096 248.606118 
L 104.50176 253.100832 
L 105.45408 254.773493 
L 105.69216 253.717545 
L 107.5968 256.896 
L 107.83488 255.875033 
L 108.31104 256.638197 
L 108.54912 255.632748 
L 111.168 259.618133 
L 114.02496 263.543899 
L 116.88192 267.091277 
L 119.97696 270.567573 
L 121.16736 271.814472 
L 121.40544 270.954985 
L 124.73856 274.241362 
L 128.07168 277.216865 
L 128.78592 277.818221 
L 129.73824 274.698139 
L 129.97632 274.903579 
L 130.45248 273.377882 
L 130.69056 273.585616 
L 131.16672 272.083262 
L 131.88096 272.708923 
L 132.35712 271.236076 
L 132.5952 271.445333 
L 133.30944 269.275774 
L 133.54752 269.488552 
L 134.02368 268.067888 
L 134.26176 268.282435 
L 134.73792 266.88237 
L 134.976 267.098585 
L 135.45216 265.718606 
L 136.1664 266.368 
L 136.40448 265.688556 
L 137.59488 266.752 
L 137.83296 266.083513 
L 138.07104 266.293775 
L 138.30912 265.630584 
L 139.26144 266.464653 
L 139.49952 265.810605 
L 140.45184 266.630621 
L 140.68992 265.985467 
L 142.59456 267.580235 
L 143.07072 266.320579 
L 144.02304 267.101091 
L 144.73728 265.251672 
L 145.45152 265.836228 
L 146.16576 264.026839 
L 146.40384 264.222885 
L 147.11808 262.445617 
L 147.35616 262.643777 
L 147.59424 262.058667 
L 147.83232 262.256802 
L 148.30848 261.097827 
L 149.02272 261.692 
L 149.2608 261.12 
L 149.73696 261.51293 
L 149.97504 260.945814 
L 150.21312 261.141717 
L 150.4512 260.578462 
L 152.11776 261.928625 
L 152.35584 261.374714 
L 153.07008 261.941626 
L 153.54624 260.847484 
L 154.49856 261.597405 
L 154.97472 260.520998 
L 155.45088 260.893898 
L 155.68896 260.36132 
L 156.87936 261.282072 
L 157.35552 260.232859 
L 159.02208 261.496789 
L 159.26016 260.981508 
L 159.73632 261.336615 
L 159.9744 260.825302 
L 160.45056 261.178667 
L 160.68864 260.671261 
L 161.1648 261.022897 
L 161.40288 260.519339 
L 161.87904 260.86926 
L 162.3552 259.872 
L 163.30752 260.568216 
L 163.5456 260.075865 
L 164.736 260.932267 
L 164.97408 260.445659 
L 165.68832 260.952529 
L 165.9264 260.470154 
L 166.64064 260.972437 
L 167.1168 260.018087 
L 167.83104 260.517875 
L 168.06912 260.045793 
L 168.3072 260.211613 
L 168.54528 259.742215 
L 169.02144 260.073026 
L 169.25952 259.606925 
L 169.73568 259.936204 
L 169.97376 259.473356 
L 170.44992 259.801114 
L 170.688 259.341474 
L 171.16416 259.667723 
L 171.40224 259.211247 
L 172.59264 260.018087 
L 172.83072 259.566545 
L 173.30688 259.885827 
L 173.54496 259.437339 
L 174.02112 259.75519 
L 174.2592 259.309714 
L 174.73536 259.626146 
L 174.97344 259.183643 
L 175.4496 259.498667 
L 175.68768 259.059097 
L 176.16384 259.372723 
L 176.40192 258.936048 
L 176.87808 259.248287 
L 177.11616 258.81447 
L 177.59232 259.125333 
L 177.8304 258.694337 
L 178.30656 259.003834 
L 178.54464 258.575622 
L 179.0208 258.883765 
L 179.25888 258.458301 
L 179.73504 258.765099 
L 179.97312 258.34235 
L 180.44928 258.647814 
L 180.68736 258.227745 
L 181.16352 258.531884 
L 181.4016 258.114462 
L 181.87776 258.417287 
L 182.11584 258.002478 
L 182.592 258.304 
L 182.83008 257.891772 
L 183.30624 258.192 
L 183.54432 257.782321 
L 184.02048 258.081266 
L 184.25856 257.674105 
L 184.73472 257.971775 
L 184.9728 257.567103 
L 185.44896 257.863508 
L 185.68704 257.461294 
L 186.1632 257.756444 
L 186.40128 257.356658 
L 186.87744 257.650564 
L 187.11552 257.253176 
L 187.59168 257.545846 
L 187.82976 257.15083 
L 188.30592 257.442273 
L 188.544 257.0496 
L 189.02016 257.339826 
L 189.25824 256.949468 
L 189.7344 257.238486 
L 189.97248 256.850417 
L 190.44864 257.138237 
L 190.68672 256.752429 
L 191.16288 257.039059 
L 191.40096 256.655488 
L 192.59136 257.365333 
L 192.82944 256.985239 
L 193.3056 257.266526 
L 193.54368 256.888602 
L 194.01984 257.168754 
L 194.25792 256.792976 
L 194.73408 257.072 
L 194.97216 256.698343 
L 195.44832 256.976249 
L 195.6864 256.60469 
L 196.16256 256.881485 
L 196.40064 256.512 
L 196.8768 256.787692 
L 197.11488 256.420259 
L 197.59104 256.694857 
L 197.82912 256.329453 
L 198.30528 256.602964 
L 198.54336 256.239568 
L 199.01952 256.512 
L 199.49568 255.790389 
L 199.73376 255.926673 
L 199.97184 255.568054 
L 200.20992 255.704254 
L 200.448 255.3472 
L 200.68608 255.483314 
L 201.16224 254.773493 
L 201.40032 254.909881 
L 201.87648 254.205465 
L 202.11456 254.342115 
L 202.59072 253.643034 
L 202.8288 253.779934 
L 203.30496 253.086118 
L 203.54304 253.223256 
L 204.0192 252.534634 
L 204.25728 252.672 
L 204.73344 251.988505 
L 204.97152 252.126087 
L 205.44768 251.447652 
L 205.68576 251.585441 
L 206.16192 250.912 
L 206.4 251.049984 
L 206.87616 250.381474 
L 207.35232 250.657374 
L 207.5904 250.325333 
L 207.82848 250.462935 
L 208.30464 249.802616 
L 208.54272 249.940391 
L 209.01888 249.28483 
L 209.25696 249.422769 
L 209.73312 248.771906 
L 209.9712 248.91 
L 210.44736 248.263776 
L 210.68544 248.402016 
L 211.1616 247.760372 
L 211.39968 247.898749 
L 212.59008 246.31329 
L 213.30432 246.729982 
L 213.5424 246.416611 
L 214.01856 246.692822 
L 214.7328 245.76 
L 214.97088 245.898263 
L 215.44704 245.281593 
L 215.68512 245.419952 
L 215.9232 245.113263 
L 216.39936 245.389241 
L 216.63744 245.083976 
L 216.87552 245.221596 
L 217.1136 244.917493 
L 217.58976 245.192 
L 218.304 244.286578 
L 218.54208 244.423953 
L 219.01824 243.825274 
L 219.4944 244.099765 
L 219.73248 243.80222 
L 219.97056 243.939097 
L 220.20864 243.642659 
L 220.44672 243.779368 
L 220.6848 243.484029 
L 223.30368 244.964414 
L 223.77984 244.381341 
L 224.01792 244.51406 
L 224.256 244.224 
L 224.49408 244.356565 
L 224.73216 244.067556 
L 225.20832 244.332 
L 225.4464 244.044255 
L 227.58912 245.217882 
L 227.8272 244.932923 
L 228.30336 245.190159 
L 228.77952 244.623488 
L 229.49376 245.007956 
L 229.96992 244.445702 
L 230.44608 244.701091 
L 230.68416 244.421546 
L 231.16032 244.675951 
L 231.3984 244.397589 
L 231.87456 244.651016 
L 232.11264 244.373828 
L 232.35072 244.500229 
L 232.82688 243.948522 
L 233.30304 244.201106 
L 233.54112 243.926777 
L 234.73152 244.55329 
L 234.9696 244.280698 
L 235.44576 244.529349 
L 235.68384 244.257882 
L 235.92192 244.381907 
L 236.16 244.11136 
L 236.87424 244.48204 
L 237.11232 244.212796 
L 238.30272 244.825043 
L 238.5408 244.557474 
L 239.01696 244.800504 
L 239.25504 244.534018 
L 240.44544 245.137 
L 240.68352 244.872156 
L 240.9216 244.992 
L 241.39776 244.464746 
L 241.87392 244.704248 
L 242.112 244.442013 
L 242.58816 244.680649 
L 242.82624 244.419455 
L 243.3024 244.657231 
L 243.54048 244.39707 
L 244.01664 244.633992 
L 244.25472 244.374857 
L 244.73088 244.610931 
L 244.96896 244.352813 
L 245.44512 244.588046 
L 245.6832 244.330937 
L 245.92128 244.448283 
L 246.15936 244.192 
L 246.8736 244.542792 
L 247.11168 244.287678 
L 247.34976 244.404196 
L 247.82592 243.89623 
L 248.30208 244.129079 
L 248.54016 243.876389 
L 249.49248 244.339295 
L 249.96864 243.837149 
L 250.4448 244.067556 
L 250.68288 243.817746 
L 251.15904 244.047351 
L 251.39712 243.798486 
L 251.87328 244.027294 
L 252.11136 243.779368 
L 252.58752 244.007385 
L 252.8256 243.76039 
L 253.30176 243.98762 
L 253.53984 243.74155 
L 254.016 243.968 
L 254.25408 243.722847 
L 254.73024 243.948522 
L 254.96832 243.70428 
L 255.44448 243.929184 
L 255.68256 243.685846 
L 256.15872 243.909986 
L 256.3968 243.667545 
L 256.63488 243.779368 
L 257.11104 243.296535 
L 257.5872 243.52 
L 257.82528 243.279753 
L 258.30144 243.502463 
L 258.53952 243.26309 
L 259.72992 243.816028 
L 259.968 243.577976 
L 260.44416 243.797634 
L 260.68224 243.560441 
L 263.30112 244.752 
L 263.5392 244.516994 
L 264.01536 244.730685 
L 264.25344 244.496516 
L 264.7296 244.709517 
L 264.96768 244.476179 
L 265.44384 244.688495 
L 265.68192 244.455982 
L 266.15808 244.667616 
L 266.39616 244.435922 
L 266.87232 244.646881 
L 267.1104 244.416 
L 267.58656 244.626286 
L 267.82464 244.396213 
L 268.3008 244.605831 
L 268.53888 244.37656 
L 269.01504 244.585514 
L 269.25312 244.357039 
L 269.72928 244.565333 
L 269.96736 244.33765 
L 270.44352 244.545289 
L 270.6816 244.318391 
L 271.15776 244.525378 
L 271.39584 244.299261 
L 271.63392 244.402545 
L 271.872 244.177067 
L 272.11008 244.280257 
L 272.58624 243.83107 
L 272.82432 243.934301 
L 273.30048 243.487364 
L 273.53856 243.590633 
L 274.01472 243.145927 
L 274.2528 243.249231 
L 274.72896 242.806737 
L 274.96704 242.910072 
L 275.4432 242.46977 
L 275.68128 242.573135 
L 276.15744 242.135007 
L 276.39552 242.238398 
L 276.87168 241.802423 
L 277.34784 242.009031 
L 277.58592 241.792 
L 278.06208 241.997961 
L 279.0144 241.135484 
L 279.72864 241.444219 
L 279.96672 241.230116 
L 280.44288 241.435077 
L 281.15712 240.796217 
L 281.3952 240.898723 
L 281.87136 240.475312 
L 282.10944 240.577832 
L 282.5856 240.156444 
L 282.82368 240.258977 
L 284.01408 239.21383 
L 284.25216 239.316706 
L 284.72832 238.901937 
L 284.9664 239.004817 
L 285.44256 238.592 
L 285.68064 238.694881 
L 285.91872 238.489226 
L 286.1568 238.592 
L 286.87104 237.977919 
L 287.10912 238.080797 
L 287.58528 237.673739 
L 287.82336 237.776612 
L 288.29952 237.371443 
L 288.5376 237.474309 
L 289.01376 237.071012 
L 289.25184 237.173871 
L 289.728 236.772431 
L 290.9184 237.284571 
L 291.15648 237.084966 
L 291.39456 237.186868 
L 291.63264 236.987768 
L 291.87072 237.089561 
L 292.34688 236.692771 
L 292.58496 236.794553 
L 292.82304 236.596858 
L 294.01344 237.103178 
L 294.25152 236.906366 
L 296.8704 238.003582 
L 297.10848 237.808223 
L 297.58464 238.005333 
L 298.0608 237.616158 
L 298.29888 237.714611 
L 298.53696 237.520696 
L 299.01312 237.717207 
L 299.2512 237.523862 
L 299.72736 237.719788 
L 299.96544 237.52701 
L 300.4416 237.722353 
L 300.67968 237.530139 
L 301.15584 237.724903 
L 301.632 237.341971 
L 301.87008 237.439251 
L 302.10816 237.248436 
L 302.58432 237.442612 
L 302.8224 237.25235 
L 303.29856 237.445953 
L 303.53664 237.25624 
L 304.25088 237.545514 
L 304.48896 237.356436 
L 305.44128 237.739896 
L 305.67936 237.551539 
L 305.91744 237.647034 
L 306.3936 237.271579 
L 306.86976 237.462372 
L 307.10784 237.275359 
L 307.584 237.4656 
L 307.82208 237.279117 
L 309.01248 237.752 
L 309.25056 237.566305 
L 309.72672 237.75438 
L 309.9648 237.569208 
L 310.44096 237.756746 
L 310.67904 237.572094 
L 310.91712 237.665684 
L 311.1552 237.481465 
L 311.86944 237.761438 
L 312.10752 237.577819 
L 312.58368 237.763765 
L 312.82176 237.580657 
L 313.29792 237.766078 
L 313.536 237.583479 
L 314.01216 237.768379 
L 314.25024 237.586286 
L 315.44064 238.045961 
L 315.67872 237.86462 
L 316.15488 238.04747 
L 316.39296 237.866627 
L 316.86912 238.04897 
L 317.1072 237.868624 
L 317.58336 238.050462 
L 317.82144 237.870609 
L 318.2976 238.051945 
L 318.53568 237.872584 
L 319.01184 238.053421 
L 319.24992 237.874548 
L 319.488 237.9648 
L 319.96416 237.608189 
L 320.44032 237.788522 
L 320.6784 237.61086 
L 321.15456 237.790699 
L 321.39264 237.613516 
L 321.8688 237.792865 
L 322.10688 237.616158 
L 322.58304 237.795019 
L 322.82112 237.618786 
L 323.29728 237.797161 
L 323.53536 237.6214 
L 324.01152 237.799292 
L 324.2496 237.624 
L 324.72576 237.801412 
L 324.96384 237.626586 
L 325.44 237.80352 
L 325.67808 237.629158 
L 326.15424 237.805617 
L 326.39232 237.631717 
L 326.86848 237.807703 
L 327.10656 237.634261 
L 327.58272 237.809778 
L 327.8208 237.636793 
L 328.29696 237.811842 
L 328.53504 237.639311 
L 329.0112 237.813895 
L 329.24928 237.641816 
L 329.72544 237.815937 
L 329.96352 237.644308 
L 331.15392 238.077326 
L 331.392 237.906365 
L 332.10624 238.164593 
L 332.34432 237.994149 
L 332.5824 238.08 
L 332.82048 237.909924 
L 333.29664 238.081326 
L 333.53472 237.911689 
L 334.01088 238.082646 
L 334.24896 237.913446 
L 334.72512 238.083959 
L 334.9632 237.915193 
L 335.43936 238.085265 
L 335.67744 237.916932 
L 336.1536 238.086564 
L 336.39168 237.918661 
L 336.86784 238.087857 
L 337.10592 237.920382 
L 337.58208 238.089143 
L 337.82016 237.922093 
L 338.29632 238.090422 
L 338.5344 237.923797 
L 339.01056 238.091695 
L 339.24864 237.925491 
L 339.7248 238.092962 
L 339.96288 237.927177 
L 340.43904 238.094222 
L 340.67712 237.928854 
L 341.15328 238.095476 
L 341.39136 237.930523 
L 341.86752 238.096724 
L 342.1056 237.932184 
L 343.05792 238.263193 
L 344.01024 237.608858 
L 344.24832 237.691535 
L 344.72448 237.366129 
L 344.96256 237.448802 
L 345.43872 237.124605 
L 345.6768 237.207273 
L 346.15296 236.884277 
L 346.39104 236.966938 
L 346.8672 236.645136 
L 347.10528 236.727789 
L 347.58144 236.407172 
L 347.81952 236.489818 
L 348.29568 236.170378 
L 348.53376 236.253015 
L 349.00992 235.934745 
L 349.248 236.017371 
L 349.72416 235.700264 
L 349.96224 235.782879 
L 350.4384 235.466927 
L 350.91456 235.632 
L 351.15264 235.47453 
L 351.39072 235.556927 
L 351.6288 235.399773 
L 351.86688 235.482097 
L 352.58112 235.012339 
L 353.29536 235.259053 
L 354.0096 234.792096 
L 354.48576 234.956266 
L 354.72384 234.801231 
L 354.96192 234.883177 
L 355.43808 234.573966 
L 355.67616 234.655898 
L 355.91424 234.501721 
L 356.62848 234.746904 
L 356.86656 234.593146 
L 357.34272 234.756067 
L 357.5808 234.602667 
L 357.81888 234.68399 
L 358.29504 234.378033 
L 358.53312 234.459342 
L 358.7712 234.306783 
L 359.24736 234.469127 
L 359.72352 234.164955 
L 360.19968 234.327012 
L 360.67584 234.024019 
L 361.152 234.185788 
L 361.39008 234.034759 
L 362.10432 234.276629 
L 362.58048 233.975607 
L 364.00896 234.456615 
L 364.24704 234.306783 
L 366.15168 234.94163 
L 366.38976 234.792463 
L 366.62784 234.871322 
L 367.104 234.573785 
L 367.58016 234.731355 
L 367.81824 234.583036 
L 368.53248 234.818646 
L 368.77056 234.670715 
L 369.00864 234.749064 
L 369.72288 234.306783 
L 371.8656 235.008 
L 372.10368 234.861493 
L 372.34176 234.938868 
L 372.57984 234.792635 
L 372.81792 234.869946 
L 373.056 234.723985 
L 373.53216 234.87836 
L 373.77024 234.732723 
L 374.00832 234.809788 
L 374.2464 234.664421 
L 374.72256 234.818306 
L 374.96064 234.67326 
L 375.91296 234.979853 
L 376.38912 234.69082 
L 376.86528 234.843633 
L 377.34144 234.555663 
L 377.57952 234.632 
L 377.8176 234.488387 
L 378.29376 234.64082 
L 378.53184 234.497519 
L 379.008 234.6496 
L 379.24608 234.506611 
L 379.72224 234.658341 
L 379.96032 234.515663 
L 380.43648 234.667044 
L 380.67456 234.524675 
L 381.15072 234.675709 
L 381.3888 234.533647 
L 381.86496 234.684335 
L 382.10304 234.54258 
L 382.5792 234.692923 
L 382.81728 234.551473 
L 384.72192 235.148856 
L 384.96 235.008 
L 385.43616 235.156357 
L 385.67424 235.015803 
L 386.1504 235.163826 
L 386.38848 235.023571 
L 386.86464 235.171262 
L 387.10272 235.031306 
L 387.57888 235.178667 
L 387.81696 235.039008 
L 388.29312 235.186039 
L 388.5312 235.046676 
L 389.00736 235.193379 
L 389.24544 235.054312 
L 389.7216 235.200688 
L 389.95968 235.061914 
L 390.43584 235.207966 
L 390.67392 235.069484 
L 391.15008 235.215212 
L 391.38816 235.077021 
L 394.00704 235.87166 
L 394.24512 235.734178 
L 394.72128 235.877424 
L 394.95936 235.740229 
L 395.43552 235.883163 
L 395.6736 235.746254 
L 396.14976 235.888878 
L 396.38784 235.752253 
L 396.864 235.894568 
L 397.10208 235.758227 
L 398.29248 236.112503 
L 398.53056 235.976581 
L 398.76864 236.047185 
L 399.48288 235.640691 
L 399.72096 235.711332 
L 399.95904 235.576256 
L 400.4352 235.717333 
L 400.67328 235.582534 
L 401.14944 235.72331 
L 401.38752 235.588787 
L 401.86368 235.729261 
L 402.10176 235.595013 
L 402.57792 235.735188 
L 402.816 235.601214 
L 403.29216 235.741091 
L 403.53024 235.607389 
L 404.0064 235.746969 
L 404.24448 235.613538 
L 406.14912 236.168393 
L 406.3872 236.035495 
L 406.86336 236.17335 
L 407.10144 236.040719 
L 407.5776 236.178286 
L 407.81568 236.045923 
L 408.29184 236.183202 
L 408.52992 236.051104 
L 409.00608 236.188098 
L 409.24416 236.056265 
L 409.72032 236.192974 
L 409.9584 236.061405 
L 410.43456 236.19783 
L 410.67264 236.066525 
L 411.1488 236.202667 
L 411.38688 236.071623 
L 411.86304 236.207484 
L 412.10112 236.076701 
L 412.57728 236.212282 
L 412.81536 236.081759 
L 413.29152 236.21706 
L 413.5296 236.086796 
L 414.00576 236.22182 
L 414.24384 236.091813 
L 414.48192 236.159231 
L 414.48192 236.159231 
" clip-path="url(#pe27a883963)" style="fill: none; stroke: #1f77b4; stroke-width: 1.5; stroke-linecap: square"/>
    <defs>
     <path id="m67ad668ad8" d="M 0 -3 
L -3 3 
L 3 3 
z
" style="stroke: #1f77b4; stroke-linejoin: miter"/>
    </defs>
    <g clip-path="url(#pe27a883963)">
     <use xlink:href="#m67ad668ad8" x="81.408" y="236.6208" style="fill: #1f77b4; stroke: #1f77b4; stroke-linejoin: miter"/>
     <use xlink:href="#m67ad668ad8" x="105.216" y="254.3616" style="fill: #1f77b4; stroke: #1f77b4; stroke-linejoin: miter"/>
     <use xlink:href="#m67ad668ad8" x="129.024" y="277.0304" style="fill: #1f77b4; stroke: #1f77b4; stroke-linejoin: miter"/>
     <use xlink:href="#m67ad668ad8" x="152.832" y="261.7536" style="fill: #1f77b4; stroke: #1f77b4; stroke-linejoin: miter"/>
     <use xlink:href="#m67ad668ad8" x="176.64" y="259.09248" style="fill: #1f77b4; stroke: #1f77b4; stroke-linejoin: miter"/>
     <use xlink:href="#m67ad668ad8" x="200.448" y="255.3472" style="fill: #1f77b4; stroke: #1f77b4; stroke-linejoin: miter"/>
     <use xlink:href="#m67ad668ad8" x="224.256" y="244.224" style="fill: #1f77b4; stroke: #1f77b4; stroke-linejoin: miter"/>
     <use xlink:href="#m67ad668ad8" x="248.064" y="244.0128" style="fill: #1f77b4; stroke: #1f77b4; stroke-linejoin: miter"/>
     <use xlink:href="#m67ad668ad8" x="271.872" y="244.177067" style="fill: #1f77b4; stroke: #1f77b4; stroke-linejoin: miter"/>
     <use xlink:href="#m67ad668ad8" x="295.68" y="237.50784" style="fill: #1f77b4; stroke: #1f77b4; stroke-linejoin: miter"/>
     <use xlink:href="#m67ad668ad8" x="319.488" y="237.9648" style="fill: #1f77b4; stroke: #1f77b4; stroke-linejoin: miter"/>
     <use xlink:href="#m67ad668ad8" x="343.296" y="238.0992" style="fill: #1f77b4; stroke: #1f77b4; stroke-linejoin: miter"/>
     <use xlink:href="#m67ad668ad8" x="367.104" y="234.573785" style="fill: #1f77b4; stroke: #1f77b4; stroke-linejoin: miter"/>
     <use xlink:href="#m67ad668ad8" x="390.912" y="235.1424" style="fill: #1f77b4; stroke: #1f77b4; stroke-linejoin: miter"/>
    </g>
   </g>
   <g id="line2d_10">
    <path d="M 57.83808 41.472 
L 58.07616 189.312 
L 58.31424 140.032 
L 58.7904 218.88 
L 59.26656 168.192 
L 59.74272 205.738667 
L 59.9808 218.88 
L 60.45696 189.312 
L 60.69504 200.684308 
L 60.93312 189.312 
L 61.1712 199.168 
L 61.40928 189.312 
L 61.64736 198.008471 
L 62.12352 181.530947 
L 62.59968 196.352 
L 62.83776 189.312 
L 63.31392 201.632 
L 63.552 195.2256 
L 64.02816 205.738667 
L 64.26624 199.872 
L 64.7424 209.024 
L 64.98048 203.619097 
L 65.45664 211.712 
L 65.69472 206.704941 
L 65.9328 210.432 
L 66.40896 201.299027 
L 66.88512 208.265846 
L 67.1232 204.096 
L 67.59936 210.432 
L 67.83744 206.502698 
L 68.3136 212.309333 
L 68.55168 208.595478 
L 69.74208 221.199059 
L 69.98016 217.742769 
L 70.45632 222.165333 
L 70.93248 215.712 
L 71.17056 217.842526 
L 71.40864 214.801655 
L 71.8848 218.88 
L 72.12288 215.971672 
L 72.59904 219.818667 
L 72.83712 217.032 
L 73.31328 220.672 
L 73.55136 217.997373 
L 73.78944 219.749647 
L 74.50368 212.216789 
L 74.74176 213.952 
L 74.97984 211.58926 
L 75.456 214.9376 
L 75.69408 212.655158 
L 76.17024 215.847385 
L 76.40832 213.640101 
L 76.88448 216.689778 
L 77.12256 214.552976 
L 78.31296 221.598897 
L 78.55104 219.552 
L 79.50336 224.665043 
L 79.97952 220.767319 
L 80.45568 223.192 
L 80.69376 221.318598 
L 81.408 224.7936 
L 81.64608 222.978535 
L 81.88416 224.097882 
L 82.36032 220.585846 
L 82.5984 221.696 
L 82.83648 219.995774 
L 83.31264 222.165333 
L 83.55072 220.507596 
L 84.02688 222.609297 
L 84.26496 220.992 
L 84.74112 223.029895 
L 85.21728 219.899586 
L 85.45536 220.901744 
L 85.93152 217.886118 
L 86.1696 218.88 
L 86.64576 215.971672 
L 86.88384 216.956878 
L 87.12192 215.541677 
L 87.59808 217.472 
L 88.5504 212.056615 
L 89.02656 213.952 
L 89.26464 212.655158 
L 89.7408 214.499556 
L 89.97888 213.227294 
L 90.45504 215.023304 
L 90.69312 213.774734 
L 91.16928 215.524766 
L 91.40736 214.299042 
L 92.1216 216.840828 
L 92.35968 215.639671 
L 92.59776 216.466286 
L 92.83584 215.283892 
L 93.312 216.9088 
L 93.55008 215.746967 
L 95.6928 222.576 
L 97.59744 228.032 
L 97.83552 226.928095 
L 98.31168 228.217263 
L 98.54976 227.131535 
L 99.02592 228.396138 
L 99.264 227.328 
L 99.74016 228.568949 
L 99.97824 227.517843 
L 100.21632 228.130324 
L 100.4544 227.093333 
L 100.93056 228.302769 
L 101.40672 226.272 
L 101.88288 227.464258 
L 102.12096 226.469647 
L 104.50176 232.088041 
L 105.45408 234.178866 
L 105.69216 233.224871 
L 107.5968 237.184 
L 107.83488 236.256455 
L 108.31104 237.203831 
L 108.7872 235.38307 
L 111.40608 240.336425 
L 114.02496 244.829975 
L 116.88192 249.279229 
L 119.73888 253.319356 
L 121.16736 255.203236 
L 121.40544 254.405731 
L 124.50048 258.233851 
L 127.59552 261.723429 
L 128.78592 262.984776 
L 129.024 262.2464 
L 129.26208 262.495256 
L 129.73824 261.036356 
L 129.97632 261.286737 
L 130.45248 259.850039 
L 130.69056 260.101837 
L 131.16672 258.686757 
L 131.64288 259.191357 
L 132.35712 257.111236 
L 132.5952 257.365333 
L 133.30944 255.328604 
L 133.54752 255.585103 
L 134.02368 254.251065 
L 134.26176 254.508522 
L 134.73792 253.193481 
L 134.976 253.451815 
L 135.45216 252.155303 
L 135.92832 252.672 
L 136.40448 251.395867 
L 137.59488 252.672 
L 137.83296 252.045294 
L 138.07104 252.297089 
L 138.30912 251.675186 
L 139.26144 252.672 
L 139.49952 252.058047 
L 140.21376 252.793729 
L 140.45184 252.186483 
L 140.68992 252.429937 
L 140.928 251.8272 
L 143.07072 253.966262 
L 143.3088 253.376 
L 143.78496 253.838851 
L 144.73728 251.517902 
L 145.45152 252.214114 
L 145.92768 251.078038 
L 146.64192 251.768471 
L 147.35616 250.095024 
L 148.54656 251.234513 
L 148.78464 250.68683 
L 149.02272 250.912 
L 149.2608 250.368 
L 149.97504 251.03901 
L 150.68928 249.431079 
L 151.16544 249.877496 
L 151.6416 248.822278 
L 152.11776 249.267264 
L 152.35584 248.745166 
L 152.59392 248.966737 
L 153.07008 247.93185 
L 153.30816 248.153791 
L 153.54624 247.640933 
L 155.2128 249.169171 
L 155.68896 248.160932 
L 156.64128 249.016615 
L 157.35552 247.530616 
L 157.5936 247.744 
L 157.83168 247.254043 
L 158.784 248.100141 
L 159.26016 247.132328 
L 159.73632 247.552 
L 159.9744 247.072744 
L 160.21248 247.281745 
L 160.68864 246.331122 
L 161.1648 246.74869 
L 161.64096 245.809208 
L 161.87904 246.017753 
L 162.3552 245.088 
L 162.83136 245.504579 
L 163.06944 245.044009 
L 164.02176 245.868242 
L 164.25984 245.412 
L 164.736 245.819733 
L 164.97408 245.366634 
L 166.16448 246.373053 
L 166.40256 245.924691 
L 166.64064 246.123878 
L 166.87872 245.678013 
L 167.1168 245.87687 
L 167.59296 244.992 
L 167.83104 245.19105 
L 168.06912 244.752 
L 168.3072 244.95071 
L 168.54528 244.51406 
L 169.02144 244.909949 
L 169.25952 244.476179 
L 169.4976 244.673362 
L 169.97376 243.812339 
L 170.44992 244.206177 
L 170.688 243.779368 
L 171.16416 244.170868 
L 171.64032 243.324526 
L 172.11648 243.714661 
L 172.35456 243.295071 
L 172.59264 243.489391 
L 172.83072 243.072 
L 173.30688 243.45916 
L 173.54496 243.044402 
L 174.02112 243.429301 
L 174.2592 243.017143 
L 176.16384 244.529349 
L 176.40192 244.122421 
L 177.59232 245.045333 
L 177.8304 244.642218 
L 178.30656 245.007148 
L 178.54464 244.606488 
L 179.73504 245.508491 
L 179.97312 245.111533 
L 180.44928 245.468279 
L 180.68736 245.073702 
L 181.16352 245.428532 
L 181.4016 245.036308 
L 181.87776 245.389241 
L 182.11584 244.999342 
L 182.592 245.3504 
L 182.83008 244.962798 
L 183.30624 245.312 
L 183.54432 244.926669 
L 184.73472 245.790202 
L 184.9728 245.408299 
L 185.44896 245.749989 
L 185.68704 245.37029 
L 186.87744 246.215425 
L 187.11552 245.839059 
L 188.30592 246.670689 
L 188.78208 245.925866 
L 189.02016 246.09113 
L 189.25824 245.721114 
L 189.7344 246.050595 
L 189.97248 245.682647 
L 190.44864 246.010495 
L 190.68672 245.644594 
L 191.16288 245.970824 
L 191.40096 245.606947 
L 191.87712 245.931574 
L 192.1152 245.569699 
L 192.59136 245.892741 
L 192.82944 245.532845 
L 193.06752 245.693863 
L 193.54368 244.97855 
L 193.78176 245.139692 
L 194.25792 244.430049 
L 194.496 244.591304 
L 194.73408 244.238667 
L 194.97216 244.399695 
L 195.21024 244.048609 
L 195.44832 244.209409 
L 195.6864 243.859862 
L 196.16256 244.180454 
L 196.40064 243.832755 
L 196.8768 244.151795 
L 197.11488 243.805925 
L 197.59104 244.123429 
L 197.82912 243.779368 
L 198.30528 244.09535 
L 198.54336 243.753081 
L 199.01952 244.067556 
L 199.2576 243.727059 
L 199.73376 244.04004 
L 199.97184 243.701298 
L 200.68608 244.167774 
L 201.16224 243.495483 
L 201.6384 243.805091 
L 201.87648 243.471208 
L 202.11456 243.625542 
L 202.59072 242.961655 
L 202.8288 243.116066 
L 203.30496 242.457098 
L 203.54304 242.611576 
L 204.0192 241.957463 
L 204.25728 242.112 
L 205.44768 240.496541 
L 205.92384 240.806831 
L 206.16192 240.487385 
L 206.63808 240.796217 
L 206.87616 240.478316 
L 207.35232 240.785704 
L 207.5904 240.469333 
L 207.82848 240.622555 
L 208.30464 239.993327 
L 208.54272 240.146574 
L 209.73312 238.592 
L 209.9712 238.746 
L 210.44736 238.131439 
L 210.68544 238.285437 
L 211.1616 237.675163 
L 211.39968 237.829152 
L 211.63776 237.525663 
L 211.87584 237.679407 
L 212.59008 236.775226 
L 213.30432 237.23567 
L 213.5424 236.936794 
L 214.01856 237.241863 
L 214.7328 236.352 
L 214.97088 236.504496 
L 215.20896 236.209885 
L 216.39936 236.966573 
L 216.63744 236.673916 
L 216.87552 236.824108 
L 217.1136 236.532537 
L 218.304 237.277867 
L 218.78016 236.699415 
L 219.4944 237.142588 
L 219.73248 236.85526 
L 219.97056 237.002323 
L 220.44672 236.430596 
L 220.6848 236.577635 
L 220.92288 236.293224 
L 222.35136 237.167723 
L 222.58944 236.885333 
L 223.30368 237.317517 
L 224.256 236.1984 
L 224.49408 236.342414 
L 224.73216 236.064821 
L 225.20832 236.352 
L 225.4464 236.075574 
L 226.16064 236.503864 
L 226.6368 235.954479 
L 227.58912 236.521412 
L 228.06528 235.976581 
L 228.30336 236.11769 
L 228.77952 235.576256 
L 229.49376 235.998316 
L 229.73184 235.729261 
L 230.208 236.009048 
L 230.68416 235.473871 
L 231.16032 235.752823 
L 231.3984 235.486685 
L 231.87456 235.764459 
L 232.11264 235.499394 
L 232.5888 235.776 
L 232.82688 235.512 
L 233.30304 235.787447 
L 233.54112 235.524503 
L 233.7792 235.661838 
L 234.01728 235.399773 
L 234.73152 235.810065 
L 234.9696 235.549208 
L 235.68384 235.956706 
L 236.16 235.43808 
L 236.39808 235.573518 
L 236.63616 235.315404 
L 236.87424 235.450645 
L 237.11232 235.193379 
L 237.3504 235.328424 
L 237.58848 235.072 
L 238.30272 235.475478 
L 238.5408 235.220211 
L 238.77888 235.354155 
L 239.7312 234.340392 
L 240.44544 234.742 
L 240.68352 234.490674 
L 240.9216 234.624 
L 241.39776 234.123606 
L 241.87392 234.389829 
L 242.112 234.140903 
L 242.58816 234.406054 
L 242.82624 234.158067 
L 243.3024 234.422154 
L 243.77856 233.928675 
L 244.01664 234.060506 
L 244.25472 233.814857 
L 244.73088 234.077802 
L 244.96896 233.833067 
L 245.44512 234.094966 
L 245.6832 233.851139 
L 245.92128 233.981735 
L 246.15936 233.738667 
L 246.39744 233.869074 
L 246.63552 233.626761 
L 247.34976 234.016442 
L 247.82592 233.534478 
L 248.30208 233.793199 
L 248.54016 233.553397 
L 249.49248 234.067533 
L 249.96864 233.590812 
L 250.20672 233.718823 
L 250.68288 233.244725 
L 251.15904 233.500339 
L 251.39712 233.264432 
L 251.87328 233.519059 
L 252.11136 233.283995 
L 252.58752 233.537641 
L 252.8256 233.303415 
L 253.30176 233.556088 
L 253.53984 233.322693 
L 253.77792 233.448699 
L 254.25408 232.983864 
L 254.73024 233.235478 
L 254.96832 233.004159 
L 255.44448 233.254816 
L 255.68256 233.024308 
L 256.15872 233.274014 
L 256.3968 233.044311 
L 256.63488 233.168842 
L 257.11104 232.711332 
L 258.30144 233.33079 
L 258.53952 233.103469 
L 259.72992 233.71624 
L 259.968 233.490071 
L 260.44416 233.733408 
L 260.68224 233.508014 
L 263.30112 234.827556 
L 263.5392 234.604023 
L 263.77728 234.722439 
L 264.25344 234.277161 
L 264.7296 234.513655 
L 264.96768 234.292023 
L 265.92 234.76224 
L 266.39616 234.321441 
L 266.87232 234.555413 
L 267.1104 234.336 
L 267.34848 234.452704 
L 267.58656 234.233905 
L 268.3008 234.58278 
L 268.53888 234.364822 
L 268.77696 234.480703 
L 269.25312 234.046488 
L 269.72928 234.277926 
L 269.96736 234.061776 
L 270.44352 234.292403 
L 270.6816 234.076961 
L 271.15776 234.306783 
L 271.39584 234.092045 
L 271.63392 234.206683 
L 271.872 233.992533 
L 272.11008 234.107028 
L 272.58624 233.680372 
L 272.82432 233.794832 
L 273.30048 233.370278 
L 273.53856 233.484701 
L 274.01472 233.062231 
L 274.2528 233.176615 
L 274.72896 232.756211 
L 274.96704 232.870554 
L 275.4432 232.452197 
L 275.68128 232.566498 
L 276.15744 232.15017 
L 276.39552 232.264427 
L 277.10976 231.643627 
L 277.34784 231.757937 
L 277.58592 231.552 
L 278.06208 231.780078 
L 278.77632 231.16552 
L 279.0144 231.279484 
L 279.25248 231.075609 
L 279.72864 231.302997 
L 279.96672 231.099752 
L 280.44288 231.326359 
L 281.15712 230.719796 
L 281.3952 230.833021 
L 281.87136 230.430981 
L 282.10944 230.544153 
L 282.5856 230.144 
L 282.82368 230.257116 
L 283.29984 229.858835 
L 283.53792 229.971895 
L 284.01408 229.57547 
L 284.25216 229.688471 
L 284.72832 229.293887 
L 284.9664 229.406827 
L 286.1568 228.428 
L 286.39488 228.541136 
L 286.87104 228.152623 
L 287.10912 228.265693 
L 287.58528 227.878957 
L 287.82336 227.991959 
L 288.29952 227.606985 
L 288.5376 227.719918 
L 289.728 226.7648 
L 289.96608 226.877902 
L 290.20416 226.688131 
L 291.39456 227.250574 
L 291.63264 227.061583 
L 291.87072 227.173463 
L 292.34688 226.796787 
L 292.58496 226.908596 
L 292.82304 226.720907 
L 293.77536 227.166194 
L 294.25152 226.792563 
L 295.68 227.45472 
L 295.91808 227.268923 
L 296.8704 227.706269 
L 297.10848 227.521145 
L 297.34656 227.630014 
L 298.0608 227.077069 
L 298.29888 227.185947 
L 298.77504 226.819285 
L 299.01312 226.928095 
L 299.72736 226.381027 
L 301.15584 227.03071 
L 301.39392 226.8495 
L 301.87008 227.064515 
L 302.10816 226.883801 
L 302.58432 227.098122 
L 303.06048 226.738033 
L 303.53664 226.951806 
L 304.0128 226.593391 
L 304.25088 226.700108 
L 304.48896 226.521489 
L 305.67936 227.052345 
L 306.63168 226.342669 
L 306.86976 226.448504 
L 307.10784 226.272 
L 307.82208 226.588499 
L 308.06016 226.412532 
L 308.53632 226.622664 
L 308.7744 226.447166 
L 309.01248 226.552 
L 309.25056 226.376901 
L 309.72672 226.586108 
L 309.9648 226.411472 
L 310.20288 226.515845 
L 310.44096 226.341605 
L 310.91712 226.549895 
L 311.39328 226.202657 
L 311.86944 226.410427 
L 312.10752 226.237426 
L 312.58368 226.444549 
L 312.82176 226.272 
L 313.05984 226.375336 
L 313.29792 226.203173 
L 314.01216 226.512223 
L 314.25024 226.340571 
L 315.44064 226.852166 
L 315.67872 226.681151 
L 315.9168 226.782968 
L 316.39296 226.442009 
L 316.86912 226.645333 
L 317.1072 226.47545 
L 317.58336 226.678154 
L 317.82144 226.508706 
L 318.2976 226.710795 
L 318.53568 226.541781 
L 319.24992 226.84372 
L 319.96416 226.339078 
L 320.44032 226.539826 
L 320.6784 226.372344 
L 320.91648 226.472506 
L 321.39264 226.13857 
L 321.8688 226.338595 
L 322.10688 226.172198 
L 322.58304 226.371623 
L 322.82112 226.205645 
L 323.29728 226.404473 
L 323.53536 226.238911 
L 324.01152 226.437147 
L 324.2496 226.272 
L 324.72576 226.469647 
L 324.96384 226.304912 
L 325.44 226.501973 
L 325.67808 226.337648 
L 326.15424 226.534128 
L 326.39232 226.370211 
L 326.86848 226.566111 
L 327.10656 226.402601 
L 327.58272 226.597926 
L 327.8208 226.434819 
L 328.05888 226.532282 
L 328.53504 226.207044 
L 329.0112 226.401684 
L 329.24928 226.239607 
L 329.72544 226.43368 
L 330.2016 226.110603 
L 332.5824 227.072 
L 332.82048 226.911446 
L 333.29664 227.101845 
L 333.53472 226.941681 
L 334.01088 227.131535 
L 334.24896 226.971759 
L 334.72512 227.161072 
L 334.9632 227.001682 
L 335.43936 227.190458 
L 335.67744 227.031452 
L 336.1536 227.219692 
L 336.39168 227.061069 
L 336.86784 227.248777 
L 337.10592 227.090535 
L 337.58208 227.277714 
L 337.82016 227.11985 
L 338.05824 227.213256 
L 338.5344 226.898441 
L 339.01056 227.084995 
L 339.24864 226.928095 
L 339.7248 227.114127 
L 339.96288 226.957599 
L 340.43904 227.143111 
L 340.67712 226.986954 
L 341.15328 227.17195 
L 341.39136 227.016161 
L 341.86752 227.200643 
L 342.34368 226.89006 
L 343.05792 227.165945 
L 344.01024 226.548509 
L 344.24832 226.640372 
L 344.72448 226.333294 
L 344.96256 226.425107 
L 345.43872 226.119146 
L 345.6768 226.210909 
L 346.15296 225.906059 
L 346.39104 225.997771 
L 346.8672 225.694025 
L 347.10528 225.785684 
L 347.34336 225.634235 
L 347.81952 225.817201 
L 348.29568 225.515243 
L 348.53376 225.606599 
L 349.00992 225.305725 
L 349.248 225.397029 
L 349.72416 225.097232 
L 349.96224 225.188482 
L 350.4384 224.889756 
L 350.91456 225.072 
L 351.15264 224.923095 
L 351.39072 225.014042 
L 351.6288 224.865425 
L 352.34304 225.137525 
L 352.58112 224.989288 
L 352.8192 225.079742 
L 353.05728 224.93179 
L 353.53344 225.112354 
L 354.0096 224.817349 
L 354.24768 224.907506 
L 354.48576 224.760404 
L 354.96192 224.940375 
L 355.43808 224.64706 
L 355.67616 224.73692 
L 356.15232 224.444632 
L 356.62848 224.624102 
L 356.86656 224.478396 
L 357.34272 224.657385 
L 357.5808 224.512 
L 357.81888 224.601326 
L 358.29504 224.311335 
L 358.7712 224.489739 
L 359.00928 224.345175 
L 359.48544 224.523104 
L 359.9616 224.234835 
L 360.19968 224.323676 
L 361.62816 223.464545 
L 363.29472 224.084336 
L 363.5328 223.942226 
L 364.7232 224.381023 
L 364.96128 224.239343 
L 365.9136 224.588108 
L 366.15168 224.446815 
L 366.86592 224.707104 
L 367.58016 224.284903 
L 368.2944 224.544368 
L 369.72288 223.706508 
L 371.15136 224.223344 
L 371.38944 224.084686 
L 371.62752 224.170408 
L 371.8656 224.032 
L 372.81792 224.373752 
L 373.056 224.235713 
L 373.29408 224.320869 
L 374.48448 223.633983 
L 374.72256 223.719207 
L 374.96064 223.582488 
L 375.19872 223.667622 
L 375.67488 223.394874 
L 375.91296 223.479958 
L 376.38912 223.208102 
L 377.10336 223.46282 
L 377.34144 223.327309 
L 378.29376 223.665318 
L 379.008 223.260444 
L 379.72224 223.512976 
L 380.1984 223.24428 
L 380.43648 223.328283 
L 380.67456 223.19427 
L 381.15072 223.361978 
L 381.3888 223.228235 
L 382.10304 223.478985 
L 382.34112 223.345548 
L 382.5792 223.428923 
L 382.81728 223.295719 
L 384.24576 223.793633 
L 384.48384 223.660842 
L 385.43616 223.990519 
L 385.67424 223.858067 
L 386.1504 224.022261 
L 386.38848 223.890074 
L 386.86464 224.053866 
L 387.10272 223.921942 
L 387.57888 224.085333 
L 387.81696 223.953673 
L 388.29312 224.116665 
L 388.76928 223.854056 
L 389.00736 223.935448 
L 389.24544 223.804462 
L 389.7216 223.966968 
L 389.95968 223.836241 
L 390.43584 223.998352 
L 390.67392 223.867883 
L 391.15008 224.029602 
L 391.38816 223.899389 
L 391.86432 224.060718 
L 392.1024 223.930762 
L 394.00704 224.571788 
L 394.24512 224.442297 
L 394.72128 224.601492 
L 394.95936 224.472254 
L 395.43552 224.63107 
L 395.91168 224.373281 
L 396.14976 224.452591 
L 396.62592 224.195596 
L 396.864 224.274863 
L 397.10208 224.14667 
L 398.29248 224.541518 
L 398.53056 224.413676 
L 398.76864 224.492349 
L 399.00672 224.36472 
L 399.72096 224.600184 
L 399.95904 224.472834 
L 400.4352 224.629333 
L 400.67328 224.502229 
L 401.14944 224.658362 
L 401.38752 224.531501 
L 401.6256 224.609439 
L 402.33984 224.230011 
L 402.57792 224.307942 
L 402.816 224.181848 
L 403.29216 224.337455 
L 403.53024 224.211601 
L 406.14912 225.060197 
L 406.3872 224.934881 
L 407.5776 225.316571 
L 407.81568 225.191592 
L 409.00608 225.570862 
L 409.24416 225.446218 
L 409.72032 225.597274 
L 409.9584 225.472865 
L 410.43456 225.623579 
L 410.67264 225.499404 
L 411.1488 225.649778 
L 411.38688 225.525836 
L 411.86304 225.675871 
L 412.10112 225.552161 
L 412.57728 225.701859 
L 412.81536 225.578381 
L 413.29152 225.727743 
L 413.5296 225.604495 
L 414.00576 225.753523 
L 414.24384 225.630505 
L 414.48192 225.704902 
L 414.48192 225.704902 
" clip-path="url(#pe27a883963)" style="fill: none; stroke: #ff7f0e; stroke-width: 1.5; stroke-linecap: square"/>
    <defs>
     <path id="m6095e5daf4" d="M -3 3 
L 3 -3 
M -3 -3 
L 3 3 
" style="stroke: #ff7f0e"/>
    </defs>
    <g clip-path="url(#pe27a883963)">
     <use xlink:href="#m6095e5daf4" x="81.408" y="224.7936" style="fill: #ff7f0e; stroke: #ff7f0e"/>
     <use xlink:href="#m6095e5daf4" x="105.216" y="233.664" style="fill: #ff7f0e; stroke: #ff7f0e"/>
     <use xlink:href="#m6095e5daf4" x="129.024" y="262.2464" style="fill: #ff7f0e; stroke: #ff7f0e"/>
     <use xlink:href="#m6095e5daf4" x="152.832" y="248.448" style="fill: #ff7f0e; stroke: #ff7f0e"/>
     <use xlink:href="#m6095e5daf4" x="176.64" y="244.30848" style="fill: #ff7f0e; stroke: #ff7f0e"/>
     <use xlink:href="#m6095e5daf4" x="200.448" y="244.0128" style="fill: #ff7f0e; stroke: #ff7f0e"/>
     <use xlink:href="#m6095e5daf4" x="224.256" y="236.1984" style="fill: #ff7f0e; stroke: #ff7f0e"/>
     <use xlink:href="#m6095e5daf4" x="248.064" y="233.664" style="fill: #ff7f0e; stroke: #ff7f0e"/>
     <use xlink:href="#m6095e5daf4" x="271.872" y="233.992533" style="fill: #ff7f0e; stroke: #ff7f0e"/>
     <use xlink:href="#m6095e5daf4" x="295.68" y="227.45472" style="fill: #ff7f0e; stroke: #ff7f0e"/>
     <use xlink:href="#m6095e5daf4" x="319.488" y="226.6752" style="fill: #ff7f0e; stroke: #ff7f0e"/>
     <use xlink:href="#m6095e5daf4" x="343.296" y="227.0112" style="fill: #ff7f0e; stroke: #ff7f0e"/>
     <use xlink:href="#m6095e5daf4" x="367.104" y="224.566154" style="fill: #ff7f0e; stroke: #ff7f0e"/>
     <use xlink:href="#m6095e5daf4" x="390.912" y="223.9488" style="fill: #ff7f0e; stroke: #ff7f0e"/>
    </g>
   </g>
   <g id="line2d_11">
    <path d="M 60.458634 -1 
L 61.1712 16.724107 
L 62.12352 34.097598 
L 63.31392 50.549902 
L 65.45664 74.852946 
L 66.88512 87.313697 
L 68.55168 98.944325 
L 69.98016 108.373884 
L 71.40864 115.232395 
L 72.83712 121.157397 
L 75.69408 132.26946 
L 77.59872 137.683601 
L 79.74144 143.027822 
L 81.16992 146.303066 
L 82.36032 149.518971 
L 83.7888 152.19389 
L 86.88384 157.578734 
L 87.83616 158.967532 
L 89.7408 161.536934 
L 91.88352 164.042096 
L 93.07392 165.384546 
L 94.02624 166.551298 
L 95.21664 168.589189 
L 96.16896 170.678591 
L 98.0736 175.097429 
L 98.78784 176.387183 
L 99.264 177.085152 
L 100.4544 178.380661 
L 102.35904 179.920606 
L 103.31136 181.086815 
L 105.216 184.119238 
L 105.69216 184.835098 
L 108.31104 187.979513 
L 109.50144 189.298024 
L 110.69184 190.988765 
L 112.59648 194.182924 
L 115.69152 199.721124 
L 120.21504 207.387214 
L 121.40544 209.148539 
L 124.73856 213.226046 
L 129.024 218.59602 
L 131.64288 218.657661 
L 132.11904 218.745512 
L 133.07136 218.695354 
L 135.45216 218.482804 
L 137.3568 218.789729 
L 138.07104 218.951223 
L 139.02336 218.913527 
L 142.83264 219.137431 
L 145.92768 218.457728 
L 147.11808 217.952762 
L 148.0704 217.622473 
L 148.78464 217.349793 
L 150.68928 216.971664 
L 152.11776 216.745277 
L 154.0224 216.256291 
L 157.11744 216.001128 
L 158.06976 215.721789 
L 159.73632 215.555984 
L 160.92672 215.288527 
L 163.30752 215.030888 
L 164.736 214.968716 
L 165.9264 215.051354 
L 167.35488 214.964585 
L 168.3072 214.975002 
L 170.92608 214.400326 
L 178.78272 213.576484 
L 183.7824 213.380383 
L 185.92512 213.255561 
L 192.1152 213.05568 
L 194.97216 213.013599 
L 198.78144 212.955 
L 204.97152 212.84036 
L 206.16192 212.88623 
L 207.35232 212.901802 
L 214.97088 212.513435 
L 216.39936 212.372979 
L 218.06592 212.20255 
L 222.35136 211.752093 
L 224.256 211.8408 
L 225.92256 211.81333 
L 227.8272 211.758504 
L 230.44608 211.533907 
L 238.5408 211.251407 
L 239.7312 211.274513 
L 244.25472 211.121014 
L 247.11168 211.048059 
L 253.06368 211.204096 
L 259.72992 211.33211 
L 261.63456 211.471011 
L 263.06304 211.769971 
L 264.49152 212.025408 
L 267.1104 212.21741 
L 269.96736 212.296066 
L 279.49056 212.349101 
L 281.3952 212.396306 
L 289.25184 211.807638 
L 290.68032 211.720401 
L 292.1088 211.676461 
L 294.25152 211.68869 
L 296.63232 211.931001 
L 297.34656 211.978734 
L 299.48928 211.903659 
L 302.58432 211.67202 
L 314.96448 211.392503 
L 317.58336 211.397262 
L 321.8688 211.404126 
L 331.392 211.433114 
L 333.29664 211.5219 
L 338.77248 211.557505 
L 342.81984 211.717903 
L 344.72448 211.777273 
L 352.58112 211.806751 
L 377.10336 211.838211 
L 382.34112 211.598831 
L 384.48384 211.629403 
L 388.05504 211.754711 
L 392.1024 211.753788 
L 399.95904 212.234138 
L 404.24448 212.285193 
L 410.91072 212.5624 
L 414.48192 212.682815 
L 414.48192 212.682815 
" clip-path="url(#pe27a883963)" style="fill: none; stroke-dasharray: 5.55,2.4; stroke-dashoffset: 0; stroke: #2ca02c; stroke-width: 1.5"/>
    <defs>
     <path id="m02294aeb56" d="M -3 3 
L 3 -3 
M -3 -3 
L 3 3 
" style="stroke: #2ca02c"/>
    </defs>
    <g clip-path="url(#pe27a883963)">
     <use xlink:href="#m02294aeb56" x="74.825645" y="-1" style="fill: #2ca02c; stroke: #2ca02c"/>
     <use xlink:href="#m02294aeb56" x="81.408" y="146.988811" style="fill: #2ca02c; stroke: #2ca02c"/>
     <use xlink:href="#m02294aeb56" x="105.216" y="184.119238" style="fill: #2ca02c; stroke: #2ca02c"/>
     <use xlink:href="#m02294aeb56" x="129.024" y="218.59602" style="fill: #2ca02c; stroke: #2ca02c"/>
     <use xlink:href="#m02294aeb56" x="152.832" y="216.564139" style="fill: #2ca02c; stroke: #2ca02c"/>
     <use xlink:href="#m02294aeb56" x="176.64" y="213.69783" style="fill: #2ca02c; stroke: #2ca02c"/>
     <use xlink:href="#m02294aeb56" x="200.448" y="212.974331" style="fill: #2ca02c; stroke: #2ca02c"/>
     <use xlink:href="#m02294aeb56" x="224.256" y="211.8408" style="fill: #2ca02c; stroke: #2ca02c"/>
     <use xlink:href="#m02294aeb56" x="248.064" y="211.057998" style="fill: #2ca02c; stroke: #2ca02c"/>
     <use xlink:href="#m02294aeb56" x="271.872" y="212.303341" style="fill: #2ca02c; stroke: #2ca02c"/>
     <use xlink:href="#m02294aeb56" x="295.68" y="211.799734" style="fill: #2ca02c; stroke: #2ca02c"/>
     <use xlink:href="#m02294aeb56" x="319.488" y="211.402333" style="fill: #2ca02c; stroke: #2ca02c"/>
     <use xlink:href="#m02294aeb56" x="343.296" y="211.752671" style="fill: #2ca02c; stroke: #2ca02c"/>
     <use xlink:href="#m02294aeb56" x="367.104" y="211.96548" style="fill: #2ca02c; stroke: #2ca02c"/>
     <use xlink:href="#m02294aeb56" x="390.912" y="211.718869" style="fill: #2ca02c; stroke: #2ca02c"/>
    </g>
   </g>
   <g id="line2d_12">
    <path d="M 57.6 41.472 
L 57.83808 189.312 
L 58.07616 238.592 
L 58.31424 189.312 
L 58.55232 218.88 
L 59.02848 168.192 
L 59.50464 205.738667 
L 59.74272 189.312 
L 60.21888 213.952 
L 60.45696 200.684308 
L 60.93312 218.88 
L 61.1712 207.792 
L 61.64736 222.165333 
L 61.88544 212.655158 
L 62.3616 224.512 
L 62.59968 216.192 
L 63.07584 226.272 
L 63.31392 218.88 
L 63.79008 227.640889 
L 64.02816 220.992 
L 64.50432 228.736 
L 64.7424 222.695226 
L 65.21856 229.632 
L 65.45664 224.097882 
L 65.9328 230.378667 
L 66.17088 225.273081 
L 66.64704 231.010462 
L 66.88512 226.272 
L 67.36128 231.552 
L 67.59936 227.131535 
L 68.07552 232.021333 
L 68.3136 227.878957 
L 68.78976 232.432 
L 69.02784 228.534857 
L 69.504 232.794353 
L 69.74208 229.115077 
L 70.21824 233.116444 
L 70.45632 229.632 
L 70.6944 231.552 
L 71.40864 221.886915 
L 71.64672 223.808 
L 71.8848 220.818885 
L 72.36096 224.512 
L 72.59904 221.652 
L 73.0752 225.152 
L 73.31328 222.410507 
L 73.78944 225.736348 
L 74.02752 223.104 
L 74.50368 226.272 
L 74.74176 223.740493 
L 75.21792 226.7648 
L 75.456 224.326737 
L 75.93216 227.219692 
L 76.17024 224.868456 
L 76.6464 227.640889 
L 76.88448 225.370537 
L 78.07488 231.794759 
L 78.31296 229.632 
L 78.78912 232.021333 
L 79.0272 229.927385 
L 79.50336 232.23329 
L 79.74144 230.203915 
L 81.408 237.616158 
L 83.07456 244.067556 
L 83.31264 244.921541 
L 83.55072 243.072 
L 85.45536 249.450305 
L 85.93152 250.912 
L 86.1696 249.181091 
L 86.64576 250.611512 
L 86.88384 248.924903 
L 88.78848 254.272 
L 89.50272 256.113778 
L 89.7408 254.535529 
L 90.21696 255.73287 
L 90.45504 254.191424 
L 90.9312 255.36817 
L 91.16928 253.861859 
L 93.07392 258.304 
L 93.312 256.868026 
L 95.21664 260.907472 
L 95.45472 259.536 
L 96.64512 261.888 
L 96.8832 260.560193 
L 99.264 264.912 
L 101.6448 268.795871 
L 102.35904 269.880889 
L 102.59712 268.678737 
L 103.07328 269.392 
L 103.31136 268.211067 
L 105.93024 271.928471 
L 106.64448 272.873739 
L 106.88256 271.761231 
L 107.35872 272.384 
L 107.5968 271.28963 
L 110.21568 274.553081 
L 113.07264 277.763282 
L 116.16768 280.889004 
L 119.26272 283.702154 
L 122.59584 286.433168 
L 123.78624 287.342108 
L 124.02432 286.464 
L 127.59552 289.041356 
L 128.07168 289.365333 
L 128.30976 288.533477 
L 128.54784 288.69608 
L 128.78592 287.872 
L 129.024 288.035721 
L 131.88096 278.582799 
L 132.35712 277.077333 
L 132.5952 277.267443 
L 133.7856 273.594617 
L 134.02368 273.792 
L 134.49984 272.357926 
L 134.73792 272.557292 
L 135.21408 271.143927 
L 135.45216 271.345171 
L 136.64256 267.893622 
L 136.88064 268.100982 
L 137.3568 266.752 
L 137.59488 266.960902 
L 137.83296 266.293775 
L 138.07104 266.502796 
L 138.78528 264.528842 
L 139.02336 264.740571 
L 139.49952 263.446261 
L 139.7376 263.659283 
L 140.21376 262.382345 
L 140.45184 262.596585 
L 140.928 261.336615 
L 141.16608 261.552 
L 141.64224 260.30861 
L 141.88032 260.52507 
L 142.35648 259.297882 
L 142.59456 259.515352 
L 143.07072 258.304 
L 143.3088 258.522416 
L 143.78496 257.326545 
L 144.02304 257.545846 
L 144.26112 256.953863 
L 144.73728 257.39091 
L 145.21344 256.220618 
L 145.45152 256.439351 
L 145.92768 255.283613 
L 146.16576 255.503099 
L 146.64192 254.3616 
L 146.88 254.581787 
L 147.11808 254.016509 
L 147.59424 254.455219 
L 148.0704 253.337197 
L 148.30848 253.556607 
L 148.78464 252.452 
L 149.02272 252.672 
L 149.49888 251.580527 
L 149.73696 251.801072 
L 150.21312 250.722462 
L 150.4512 250.943509 
L 150.92736 249.877496 
L 151.40352 250.319392 
L 151.6416 249.792 
L 151.87968 250.01205 
L 152.35584 248.966737 
L 152.59392 249.1872 
L 153.07008 248.153791 
L 153.30816 248.37463 
L 153.78432 247.352889 
L 154.0224 247.574069 
L 154.49856 246.563765 
L 154.73664 246.785252 
L 155.2128 245.786161 
L 155.45088 246.007922 
L 155.92704 245.019826 
L 156.16512 245.241831 
L 156.64128 244.264518 
L 156.87936 244.486737 
L 157.35552 243.52 
L 157.5936 243.742404 
L 158.06976 242.786043 
L 158.30784 243.008604 
L 158.784 242.062423 
L 159.02208 242.285115 
L 159.49824 241.348923 
L 159.9744 241.793485 
L 160.21248 241.329778 
L 160.45056 241.551076 
L 160.92672 240.631172 
L 161.1648 240.85255 
L 161.64096 239.942137 
L 161.87904 240.163572 
L 162.3552 239.262476 
L 162.59328 239.483946 
L 163.06944 238.592 
L 163.30752 238.813483 
L 164.25984 237.05543 
L 164.736 237.499317 
L 164.97408 237.065628 
L 166.16448 238.160665 
L 166.40256 237.731214 
L 168.06912 239.227871 
L 168.3072 238.803502 
L 168.78336 239.223795 
L 169.02144 238.802149 
L 169.4976 239.219771 
L 169.97376 238.383628 
L 170.92608 239.211874 
L 171.16416 238.798192 
L 173.0688 240.417185 
L 173.30688 240.008674 
L 173.78304 240.405988 
L 174.2592 239.595666 
L 175.68768 240.773408 
L 175.92576 240.373205 
L 176.16384 240.56715 
L 176.40192 240.16896 
L 176.87808 240.555347 
L 177.11616 240.159555 
L 179.49696 242.050246 
L 179.73504 241.660016 
L 180.92544 242.579977 
L 181.16352 242.193231 
L 183.06816 243.632 
L 183.7824 242.489853 
L 184.49664 243.021663 
L 184.73472 242.644935 
L 185.92512 243.52 
L 186.1632 243.146529 
L 188.06784 244.516372 
L 188.544 243.779368 
L 189.49632 244.452324 
L 189.7344 244.087252 
L 190.44864 244.586705 
L 190.68672 244.224 
L 190.9248 244.389647 
L 191.16288 244.028584 
L 191.40096 244.193989 
L 191.63904 243.834553 
L 193.06752 244.816842 
L 193.54368 244.105846 
L 194.25792 244.591304 
L 194.73408 243.887251 
L 195.92448 244.688495 
L 196.16256 244.339925 
L 198.30528 245.750919 
L 198.54336 245.406435 
L 199.01952 245.714824 
L 199.2576 245.372134 
L 199.73376 245.67909 
L 199.97184 245.338177 
L 200.20992 245.4912 
L 202.35264 242.476138 
L 202.8288 242.786043 
L 203.06688 242.457098 
L 203.54304 242.76555 
L 203.78112 242.438244 
L 204.25728 242.745258 
L 204.49536 242.419573 
L 204.73344 242.572614 
L 205.2096 241.924947 
L 205.68576 242.230652 
L 206.4 241.26855 
L 206.63808 241.421474 
L 207.35232 240.469333 
L 208.06656 240.927545 
L 209.49504 239.054723 
L 209.9712 239.360799 
L 210.68544 238.438957 
L 211.39968 238.896668 
L 211.63776 238.592 
L 211.87584 238.743864 
L 212.352 238.137806 
L 212.82816 238.441066 
L 213.30432 237.839634 
L 213.5424 237.991024 
L 213.78048 237.691909 
L 214.01856 237.843064 
L 214.25664 237.54508 
L 214.49472 237.696 
L 214.7328 237.399141 
L 214.97088 237.549825 
L 216.63744 235.498188 
L 217.1136 235.80118 
L 217.35168 235.512 
L 217.58976 235.663025 
L 218.06592 235.087644 
L 218.304 235.238627 
L 219.01824 234.382515 
L 219.73248 234.834581 
L 220.20864 234.269193 
L 220.44672 234.419387 
L 220.6848 234.138122 
L 221.16096 234.437581 
L 221.8752 233.599815 
L 222.11328 233.749457 
L 222.35136 233.472 
L 222.58944 233.621395 
L 223.77984 232.246936 
L 224.256 232.546237 
L 224.49408 232.274051 
L 224.73216 232.423238 
L 225.4464 231.61183 
L 225.68448 231.761109 
L 225.92256 231.492339 
L 226.16064 231.641365 
L 226.6368 231.10643 
L 227.11296 231.403893 
L 228.06528 230.344301 
L 228.30336 230.493058 
L 228.77952 229.968 
L 229.0176 230.11666 
L 229.25568 229.85538 
L 229.96992 230.299366 
L 230.208 230.039273 
L 230.68416 230.333538 
L 230.92224 230.074469 
L 231.3984 230.367431 
L 232.35072 229.339429 
L 233.06496 229.777691 
L 233.7792 229.01532 
L 234.01728 229.161057 
L 234.49344 228.656516 
L 234.73152 228.802148 
L 235.68384 227.80172 
L 235.92192 227.94752 
L 236.63616 227.20459 
L 236.87424 227.350408 
L 237.58848 226.61377 
L 237.82656 226.759599 
L 238.77888 225.786961 
L 239.01696 225.932917 
L 239.49312 225.450667 
L 239.7312 225.596491 
L 240.20736 225.117 
L 240.68352 225.408 
L 241.15968 224.931482 
L 241.39776 225.076657 
L 242.35008 224.131459 
L 242.58816 224.27673 
L 243.06432 223.808 
L 243.3024 223.953127 
L 243.54048 223.719775 
L 244.25472 224.153274 
L 244.73088 223.689027 
L 244.96896 223.833015 
L 245.20704 223.601886 
L 245.44512 223.74562 
L 246.39744 222.827365 
L 246.8736 223.114613 
L 247.11168 222.886705 
L 247.34976 223.029895 
L 247.58784 222.802663 
L 248.064 223.08818 
L 248.30208 222.861726 
L 248.54016 223.004055 
L 249.2544 222.328377 
L 249.96864 222.754176 
L 250.20672 222.53037 
L 250.4448 222.671704 
L 250.92096 222.225948 
L 251.15904 222.367135 
L 251.6352 221.923765 
L 251.87328 222.064803 
L 252.34944 221.623795 
L 252.8256 221.905228 
L 253.06368 221.685723 
L 253.30176 221.826022 
L 253.77792 221.3888 
L 254.016 221.528949 
L 254.25408 221.311226 
L 254.49216 221.45113 
L 254.96832 221.017446 
L 255.2064 221.157199 
L 255.44448 220.941231 
L 255.68256 221.080739 
L 255.92064 220.865381 
L 256.3968 221.143579 
L 256.63488 220.928918 
L 257.82528 221.619078 
L 258.30144 221.19219 
L 258.53952 221.32942 
L 258.7776 221.116823 
L 259.968 221.79858 
L 261.1584 220.745271 
L 261.39648 220.881102 
L 261.87264 220.463385 
L 262.11072 220.59907 
L 263.5392 219.358005 
L 264.49152 219.899586 
L 265.20576 219.286433 
L 266.15808 219.824018 
L 266.63424 219.418212 
L 266.87232 219.552 
L 267.34848 219.14819 
L 268.06272 219.548203 
L 268.77696 218.946595 
L 269.25312 219.212225 
L 269.4912 219.012741 
L 269.72928 219.145184 
L 270.20544 218.747705 
L 271.63392 219.537067 
L 271.872 219.339436 
L 273.0624 219.989616 
L 273.30048 219.792794 
L 273.77664 220.05101 
L 274.01472 219.854769 
L 274.49088 220.112 
L 274.72896 219.916337 
L 275.20512 220.17259 
L 275.68128 219.78284 
L 275.91936 219.910693 
L 276.15744 219.716527 
L 276.6336 219.971544 
L 277.10976 219.584763 
L 280.2048 221.217641 
L 280.44288 221.02581 
L 280.91904 221.27315 
L 281.87136 220.510473 
L 282.10944 220.634034 
L 282.34752 220.444444 
L 282.5856 220.567814 
L 282.82368 220.378695 
L 283.29984 220.624792 
L 283.776 220.248025 
L 284.25216 220.493364 
L 284.9664 219.931582 
L 285.44256 220.176301 
L 285.91872 219.804 
L 286.1568 219.92611 
L 286.39488 219.740607 
L 286.63296 219.86253 
L 287.3472 219.308522 
L 287.58528 219.430387 
L 287.82336 219.246545 
L 288.29952 219.489649 
L 288.77568 219.123358 
L 289.01376 219.244662 
L 289.25184 219.062144 
L 289.48992 219.183262 
L 290.9184 218.096343 
L 291.39456 218.338572 
L 291.87072 217.979452 
L 292.1088 218.100316 
L 292.34688 217.921362 
L 294.01344 218.761014 
L 294.25152 218.582834 
L 294.72768 218.820686 
L 294.96576 218.642982 
L 296.63232 219.468418 
L 296.8704 219.291483 
L 298.29888 219.990261 
L 298.53696 219.814034 
L 299.01312 220.045241 
L 299.2512 219.86948 
L 299.48928 219.984802 
L 299.72736 219.809446 
L 300.91776 220.382968 
L 301.39392 220.033873 
L 301.632 220.148023 
L 302.10816 219.800405 
L 303.06048 220.255256 
L 303.29856 220.082184 
L 303.53664 220.195404 
L 304.0128 219.850378 
L 304.48896 220.076393 
L 304.72704 219.904493 
L 305.2032 220.129752 
L 305.44128 219.958296 
L 306.63168 220.51796 
L 306.86976 220.347115 
L 307.34592 220.5696 
L 307.82208 220.22911 
L 308.06016 220.340148 
L 308.29824 220.170444 
L 309.48864 220.722765 
L 309.72672 220.55366 
L 310.20288 220.773243 
L 310.44096 220.604568 
L 310.67904 220.714105 
L 310.91712 220.545803 
L 311.63136 220.873348 
L 311.86944 220.705527 
L 312.3456 220.92298 
L 312.58368 220.755582 
L 313.05984 220.972335 
L 313.29792 220.805358 
L 313.77408 221.021415 
L 314.01216 220.854857 
L 314.48832 221.070222 
L 314.7264 220.904081 
L 315.20256 221.118759 
L 315.44064 220.953033 
L 315.9168 221.167028 
L 316.15488 221.001715 
L 317.58336 221.639319 
L 317.82144 221.474633 
L 319.24992 222.1056 
L 319.72608 221.777771 
L 320.44032 222.091005 
L 320.6784 221.927696 
L 320.91648 222.031783 
L 321.39264 221.706157 
L 321.8688 221.91398 
L 322.10688 221.751712 
L 322.34496 221.855396 
L 322.58304 221.693472 
L 322.82112 221.797022 
L 323.0592 221.635441 
L 323.29728 221.738858 
L 323.53536 221.577617 
L 323.77344 221.680901 
L 324.2496 221.359386 
L 325.20192 221.771093 
L 325.44 221.61097 
L 326.39232 222.019965 
L 326.86848 221.700975 
L 327.10656 221.802874 
L 327.34464 221.643852 
L 328.05888 221.948623 
L 328.53504 221.631719 
L 329.96352 222.237066 
L 330.2016 222.07933 
L 331.63008 222.678667 
L 332.10624 222.364617 
L 332.5824 222.563211 
L 332.82048 222.406693 
L 333.05856 222.505782 
L 333.29664 222.349584 
L 333.7728 222.547349 
L 334.01088 222.391518 
L 334.72512 222.687039 
L 334.9632 222.531623 
L 335.20128 222.629841 
L 335.43936 222.47474 
L 335.67744 222.572838 
L 335.91552 222.418051 
L 338.05824 223.293883 
L 338.29632 223.139797 
L 338.77248 223.332711 
L 339.01056 223.178982 
L 340.20096 223.658667 
L 340.43904 223.50544 
L 341.86752 224.07605 
L 342.1056 223.923371 
L 343.05792 224.3008 
L 343.296 224.14857 
L 343.53408 224.242582 
L 344.24832 223.787552 
L 344.96256 224.069086 
L 345.20064 223.918055 
L 345.43872 224.011636 
L 345.91488 223.710416 
L 347.10528 224.176486 
L 347.58144 223.876725 
L 347.81952 223.969574 
L 348.0576 223.820108 
L 349.48608 224.374298 
L 349.96224 224.076654 
L 351.15264 224.53482 
L 351.39072 224.386591 
L 351.86688 224.568912 
L 352.10496 224.421015 
L 352.34304 224.512 
L 352.58112 224.364387 
L 353.29536 224.636602 
L 354.48576 223.902769 
L 355.2 224.17435 
L 355.67616 223.882726 
L 356.15232 224.063235 
L 356.3904 223.91786 
L 356.62848 224.007943 
L 356.86656 223.862843 
L 357.10464 223.952826 
L 357.34272 223.808 
L 357.5808 223.897884 
L 358.05696 223.609007 
L 358.29504 223.698835 
L 358.7712 223.410957 
L 359.00928 223.500729 
L 359.24736 223.357174 
L 359.72352 223.536378 
L 359.9616 223.393133 
L 360.43776 223.571859 
L 360.91392 223.286212 
L 361.152 223.375448 
L 361.62816 223.090779 
L 362.3424 223.357902 
L 363.05664 222.932935 
L 363.29472 223.021821 
L 363.77088 222.739692 
L 364.00896 222.828522 
L 364.24704 222.687826 
L 364.7232 222.865153 
L 365.19936 222.584575 
L 366.62784 223.113755 
L 367.34208 222.695226 
L 367.58016 222.783067 
L 367.81824 222.644025 
L 368.05632 222.73177 
L 368.2944 222.59298 
L 368.53248 222.68063 
L 369.00864 222.403765 
L 369.72288 222.666146 
L 369.96096 222.528146 
L 370.19904 222.615379 
L 370.91328 222.202752 
L 371.38944 222.377049 
L 371.62752 222.24 
L 372.10368 222.413846 
L 372.34176 222.277079 
L 372.81792 222.450475 
L 373.056 222.313991 
L 373.53216 222.48694 
L 373.77024 222.350736 
L 374.00832 222.437053 
L 374.2464 222.301091 
L 374.96064 222.559376 
L 375.19872 222.42373 
L 375.67488 222.595351 
L 375.91296 222.459982 
L 376.38912 222.631164 
L 376.6272 222.496072 
L 376.86528 222.581508 
L 377.10336 222.446654 
L 377.57952 222.617219 
L 378.05568 222.348258 
L 378.29376 222.433424 
L 379.008 222.031585 
L 379.96032 222.371424 
L 380.67456 221.971794 
L 380.91264 222.056547 
L 381.15072 221.923765 
L 381.62688 222.092969 
L 381.86496 221.960452 
L 382.34112 222.129231 
L 382.5792 221.996978 
L 383.05536 222.165333 
L 383.29344 222.033344 
L 383.7696 222.201278 
L 384.00768 222.069551 
L 384.48384 222.237066 
L 384.72192 222.1056 
L 385.19808 222.272697 
L 385.43616 222.141492 
L 385.91232 222.308174 
L 386.1504 222.177228 
L 386.62656 222.343497 
L 386.86464 222.212809 
L 387.3408 222.378667 
L 387.57888 222.248236 
L 388.05504 222.413685 
L 388.29312 222.283511 
L 388.76928 222.448552 
L 389.00736 222.318633 
L 389.48352 222.483269 
L 389.7216 222.353605 
L 390.19776 222.517837 
L 390.43584 222.388426 
L 390.912 222.552257 
L 391.15008 222.423098 
L 394.4832 223.557424 
L 394.72128 223.428923 
L 395.19744 223.589209 
L 395.43552 223.460958 
L 395.91168 223.620861 
L 396.14976 223.492857 
L 396.62592 223.652379 
L 396.864 223.524623 
L 397.34016 223.683765 
L 397.57824 223.556255 
L 398.0544 223.715019 
L 398.29248 223.587754 
L 398.76864 223.746142 
L 399.00672 223.619122 
L 400.91136 224.248549 
L 401.14944 224.121972 
L 401.6256 224.278307 
L 401.86368 224.151972 
L 402.33984 224.307942 
L 402.57792 224.181848 
L 403.05408 224.337455 
L 403.29216 224.211601 
L 403.76832 224.366845 
L 404.0064 224.241231 
L 404.48256 224.396115 
L 404.72064 224.270739 
L 407.33952 225.115429 
L 407.5776 224.990586 
L 408.05376 225.142876 
L 408.29184 225.018269 
L 408.768 225.170211 
L 409.00608 225.045839 
L 409.48224 225.197436 
L 409.72032 225.073297 
L 410.19648 225.224551 
L 410.43456 225.100645 
L 410.91072 225.251556 
L 411.1488 225.127882 
L 414.24384 226.099405 
L 414.24384 226.099405 
" clip-path="url(#pe27a883963)" style="fill: none; stroke: #d62728; stroke-width: 1.5; stroke-linecap: square"/>
    <defs>
     <path id="m89a7c1f73f" d="M -0 4.242641 
L 4.242641 0 
L 0 -4.242641 
L -4.242641 -0 
z
" style="stroke: #d62728; stroke-linejoin: miter"/>
    </defs>
    <g clip-path="url(#pe27a883963)">
     <use xlink:href="#m89a7c1f73f" x="57.6" y="41.472" style="fill: #d62728; stroke: #d62728; stroke-linejoin: miter"/>
     <use xlink:href="#m89a7c1f73f" x="81.408" y="237.616158" style="fill: #d62728; stroke: #d62728; stroke-linejoin: miter"/>
     <use xlink:href="#m89a7c1f73f" x="105.216" y="270.954985" style="fill: #d62728; stroke: #d62728; stroke-linejoin: miter"/>
     <use xlink:href="#m89a7c1f73f" x="129.024" y="288.035721" style="fill: #d62728; stroke: #d62728; stroke-linejoin: miter"/>
     <use xlink:href="#m89a7c1f73f" x="152.832" y="248.669207" style="fill: #d62728; stroke: #d62728; stroke-linejoin: miter"/>
     <use xlink:href="#m89a7c1f73f" x="176.64" y="240.362539" style="fill: #d62728; stroke: #d62728; stroke-linejoin: miter"/>
     <use xlink:href="#m89a7c1f73f" x="200.448" y="245.151734" style="fill: #d62728; stroke: #d62728; stroke-linejoin: miter"/>
     <use xlink:href="#m89a7c1f73f" x="224.256" y="232.546237" style="fill: #d62728; stroke: #d62728; stroke-linejoin: miter"/>
     <use xlink:href="#m89a7c1f73f" x="248.064" y="223.08818" style="fill: #d62728; stroke: #d62728; stroke-linejoin: miter"/>
     <use xlink:href="#m89a7c1f73f" x="271.872" y="219.339436" style="fill: #d62728; stroke: #d62728; stroke-linejoin: miter"/>
     <use xlink:href="#m89a7c1f73f" x="295.68" y="218.998154" style="fill: #d62728; stroke: #d62728; stroke-linejoin: miter"/>
     <use xlink:href="#m89a7c1f73f" x="319.488" y="221.941537" style="fill: #d62728; stroke: #d62728; stroke-linejoin: miter"/>
     <use xlink:href="#m89a7c1f73f" x="343.296" y="224.14857" style="fill: #d62728; stroke: #d62728; stroke-linejoin: miter"/>
     <use xlink:href="#m89a7c1f73f" x="367.104" y="222.834521" style="fill: #d62728; stroke: #d62728; stroke-linejoin: miter"/>
     <use xlink:href="#m89a7c1f73f" x="390.912" y="222.552257" style="fill: #d62728; stroke: #d62728; stroke-linejoin: miter"/>
    </g>
   </g>
   <g id="patch_3">
    <path d="M 57.6 307.584 
L 57.6 41.472 
" style="fill: none; stroke: #000000; stroke-width: 0.8; stroke-linejoin: miter; stroke-linecap: square"/>
   </g>
   <g id="patch_4">
    <path d="M 414.72 307.584 
L 414.72 41.472 
" style="fill: none; stroke: #000000; stroke-width: 0.8; stroke-linejoin: miter; stroke-linecap: square"/>
   </g>
   <g id="patch_5">
    <path d="M 57.6 307.584 
L 414.72 307.584 
" style="fill: none; stroke: #000000; stroke-width: 0.8; stroke-linejoin: miter; stroke-linecap: square"/>
   </g>
   <g id="patch_6">
    <path d="M 57.6 41.472 
L 414.72 41.472 
" style="fill: none; stroke: #000000; stroke-width: 0.8; stroke-linejoin: miter; stroke-linecap: square"/>
   </g>
   <g id="legend_1">
    <g id="patch_7">
     <path d="M 276.73875 108.1845 
L 407.72 108.1845 
Q 409.72 108.1845 409.72 106.1845 
L 409.72 48.472 
Q 409.72 46.472 407.72 46.472 
L 276.73875 46.472 
Q 274.73875 46.472 274.73875 48.472 
L 274.73875 106.1845 
Q 274.73875 108.1845 276.73875 108.1845 
z
" style="fill: #ffffff; opacity: 0.8; stroke: #cccccc; stroke-linejoin: miter"/>
    </g>
    <g id="line2d_13">
     <path d="M 278.73875 54.570438 
L 288.73875 54.570438 
L 298.73875 54.570438 
" style="fill: none; stroke: #1f77b4; stroke-width: 1.5; stroke-linecap: square"/>
     <g>
      <use xlink:href="#m67ad668ad8" x="288.73875" y="54.570438" style="fill: #1f77b4; stroke: #1f77b4; stroke-linejoin: miter"/>
     </g>
    </g>
    <g id="text_11">
     <!-- Deterministic AMRC -->
     <g transform="translate(306.73875 58.070438)scale(0.1 -0.1)">
      <defs>
       <path id="DejaVuSans-44" d="M 1259 4147 
L 1259 519 
L 2022 519 
Q 2988 519 3436 956 
Q 3884 1394 3884 2338 
Q 3884 3275 3436 3711 
Q 2988 4147 2022 4147 
L 1259 4147 
z
M 628 4666 
L 1925 4666 
Q 3281 4666 3915 4102 
Q 4550 3538 4550 2338 
Q 4550 1131 3912 565 
Q 3275 0 1925 0 
L 628 0 
L 628 4666 
z
" transform="scale(0.015625)"/>
       <path id="DejaVuSans-6e" d="M 3513 2113 
L 3513 0 
L 2938 0 
L 2938 2094 
Q 2938 2591 2744 2837 
Q 2550 3084 2163 3084 
Q 1697 3084 1428 2787 
Q 1159 2491 1159 1978 
L 1159 0 
L 581 0 
L 581 3500 
L 1159 3500 
L 1159 2956 
Q 1366 3272 1645 3428 
Q 1925 3584 2291 3584 
Q 2894 3584 3203 3211 
Q 3513 2838 3513 2113 
z
" transform="scale(0.015625)"/>
       <path id="DejaVuSans-4d" d="M 628 4666 
L 1569 4666 
L 2759 1491 
L 3956 4666 
L 4897 4666 
L 4897 0 
L 4281 0 
L 4281 4097 
L 3078 897 
L 2444 897 
L 1241 4097 
L 1241 0 
L 628 0 
L 628 4666 
z
" transform="scale(0.015625)"/>
       <path id="DejaVuSans-52" d="M 2841 2188 
Q 3044 2119 3236 1894 
Q 3428 1669 3622 1275 
L 4263 0 
L 3584 0 
L 2988 1197 
Q 2756 1666 2539 1819 
Q 2322 1972 1947 1972 
L 1259 1972 
L 1259 0 
L 628 0 
L 628 4666 
L 2053 4666 
Q 2853 4666 3247 4331 
Q 3641 3997 3641 3322 
Q 3641 2881 3436 2590 
Q 3231 2300 2841 2188 
z
M 1259 4147 
L 1259 2491 
L 2053 2491 
Q 2509 2491 2742 2702 
Q 2975 2913 2975 3322 
Q 2975 3731 2742 3939 
Q 2509 4147 2053 4147 
L 1259 4147 
z
" transform="scale(0.015625)"/>
       <path id="DejaVuSans-43" d="M 4122 4306 
L 4122 3641 
Q 3803 3938 3442 4084 
Q 3081 4231 2675 4231 
Q 1875 4231 1450 3742 
Q 1025 3253 1025 2328 
Q 1025 1406 1450 917 
Q 1875 428 2675 428 
Q 3081 428 3442 575 
Q 3803 722 4122 1019 
L 4122 359 
Q 3791 134 3420 21 
Q 3050 -91 2638 -91 
Q 1578 -91 968 557 
Q 359 1206 359 2328 
Q 359 3453 968 4101 
Q 1578 4750 2638 4750 
Q 3056 4750 3426 4639 
Q 3797 4528 4122 4306 
z
" transform="scale(0.015625)"/>
      </defs>
      <use xlink:href="#DejaVuSans-44"/>
      <use xlink:href="#DejaVuSans-65" x="77.001953"/>
      <use xlink:href="#DejaVuSans-74" x="138.525391"/>
      <use xlink:href="#DejaVuSans-65" x="177.734375"/>
      <use xlink:href="#DejaVuSans-72" x="239.257812"/>
      <use xlink:href="#DejaVuSans-6d" x="278.621094"/>
      <use xlink:href="#DejaVuSans-69" x="376.033203"/>
      <use xlink:href="#DejaVuSans-6e" x="403.816406"/>
      <use xlink:href="#DejaVuSans-69" x="467.195312"/>
      <use xlink:href="#DejaVuSans-73" x="494.978516"/>
      <use xlink:href="#DejaVuSans-74" x="547.078125"/>
      <use xlink:href="#DejaVuSans-69" x="586.287109"/>
      <use xlink:href="#DejaVuSans-63" x="614.070312"/>
      <use xlink:href="#DejaVuSans-20" x="669.050781"/>
      <use xlink:href="#DejaVuSans-41" x="700.837891"/>
      <use xlink:href="#DejaVuSans-4d" x="769.246094"/>
      <use xlink:href="#DejaVuSans-52" x="855.525391"/>
      <use xlink:href="#DejaVuSans-43" x="920.007812"/>
     </g>
    </g>
    <g id="line2d_14">
     <path d="M 278.73875 69.248563 
L 288.73875 69.248563 
L 298.73875 69.248563 
" style="fill: none; stroke: #ff7f0e; stroke-width: 1.5; stroke-linecap: square"/>
     <g>
      <use xlink:href="#m6095e5daf4" x="288.73875" y="69.248563" style="fill: #ff7f0e; stroke: #ff7f0e"/>
     </g>
    </g>
    <g id="text_12">
     <!-- AMRC -->
     <g transform="translate(306.73875 72.748563)scale(0.1 -0.1)">
      <use xlink:href="#DejaVuSans-41"/>
      <use xlink:href="#DejaVuSans-4d" x="68.408203"/>
      <use xlink:href="#DejaVuSans-52" x="154.6875"/>
      <use xlink:href="#DejaVuSans-43" x="219.169922"/>
     </g>
    </g>
    <g id="line2d_15">
     <path d="M 278.73875 83.926688 
L 288.73875 83.926688 
L 298.73875 83.926688 
" style="fill: none; stroke-dasharray: 5.55,2.4; stroke-dashoffset: 0; stroke: #2ca02c; stroke-width: 1.5"/>
     <g>
      <use xlink:href="#m02294aeb56" x="288.73875" y="83.926688" style="fill: #2ca02c; stroke: #2ca02c"/>
     </g>
    </g>
    <g id="text_13">
     <!-- Bound AMRC -->
     <g transform="translate(306.73875 87.426688)scale(0.1 -0.1)">
      <defs>
       <path id="DejaVuSans-42" d="M 1259 2228 
L 1259 519 
L 2272 519 
Q 2781 519 3026 730 
Q 3272 941 3272 1375 
Q 3272 1813 3026 2020 
Q 2781 2228 2272 2228 
L 1259 2228 
z
M 1259 4147 
L 1259 2741 
L 2194 2741 
Q 2656 2741 2882 2914 
Q 3109 3088 3109 3444 
Q 3109 3797 2882 3972 
Q 2656 4147 2194 4147 
L 1259 4147 
z
M 628 4666 
L 2241 4666 
Q 2963 4666 3353 4366 
Q 3744 4066 3744 3513 
Q 3744 3084 3544 2831 
Q 3344 2578 2956 2516 
Q 3422 2416 3680 2098 
Q 3938 1781 3938 1306 
Q 3938 681 3513 340 
Q 3088 0 2303 0 
L 628 0 
L 628 4666 
z
" transform="scale(0.015625)"/>
       <path id="DejaVuSans-6f" d="M 1959 3097 
Q 1497 3097 1228 2736 
Q 959 2375 959 1747 
Q 959 1119 1226 758 
Q 1494 397 1959 397 
Q 2419 397 2687 759 
Q 2956 1122 2956 1747 
Q 2956 2369 2687 2733 
Q 2419 3097 1959 3097 
z
M 1959 3584 
Q 2709 3584 3137 3096 
Q 3566 2609 3566 1747 
Q 3566 888 3137 398 
Q 2709 -91 1959 -91 
Q 1206 -91 779 398 
Q 353 888 353 1747 
Q 353 2609 779 3096 
Q 1206 3584 1959 3584 
z
" transform="scale(0.015625)"/>
      </defs>
      <use xlink:href="#DejaVuSans-42"/>
      <use xlink:href="#DejaVuSans-6f" x="68.603516"/>
      <use xlink:href="#DejaVuSans-75" x="129.785156"/>
      <use xlink:href="#DejaVuSans-6e" x="193.164062"/>
      <use xlink:href="#DejaVuSans-64" x="256.542969"/>
      <use xlink:href="#DejaVuSans-20" x="320.019531"/>
      <use xlink:href="#DejaVuSans-41" x="351.806641"/>
      <use xlink:href="#DejaVuSans-4d" x="420.214844"/>
      <use xlink:href="#DejaVuSans-52" x="506.494141"/>
      <use xlink:href="#DejaVuSans-43" x="570.976562"/>
     </g>
    </g>
    <g id="line2d_16">
     <path d="M 278.73875 98.604813 
L 288.73875 98.604813 
L 298.73875 98.604813 
" style="fill: none; stroke: #d62728; stroke-width: 1.5; stroke-linecap: square"/>
     <g>
      <use xlink:href="#m89a7c1f73f" x="288.73875" y="98.604813" style="fill: #d62728; stroke: #d62728; stroke-linejoin: miter"/>
     </g>
    </g>
    <g id="text_14">
     <!-- DWM-Hoeffding -->
     <g transform="translate(306.73875 102.104813)scale(0.1 -0.1)">
      <defs>
       <path id="DejaVuSans-57" d="M 213 4666 
L 850 4666 
L 1831 722 
L 2809 4666 
L 3519 4666 
L 4500 722 
L 5478 4666 
L 6119 4666 
L 4947 0 
L 4153 0 
L 3169 4050 
L 2175 0 
L 1381 0 
L 213 4666 
z
" transform="scale(0.015625)"/>
       <path id="DejaVuSans-2d" d="M 313 2009 
L 1997 2009 
L 1997 1497 
L 313 1497 
L 313 2009 
z
" transform="scale(0.015625)"/>
       <path id="DejaVuSans-48" d="M 628 4666 
L 1259 4666 
L 1259 2753 
L 3553 2753 
L 3553 4666 
L 4184 4666 
L 4184 0 
L 3553 0 
L 3553 2222 
L 1259 2222 
L 1259 0 
L 628 0 
L 628 4666 
z
" transform="scale(0.015625)"/>
       <path id="DejaVuSans-66" d="M 2375 4863 
L 2375 4384 
L 1825 4384 
Q 1516 4384 1395 4259 
Q 1275 4134 1275 3809 
L 1275 3500 
L 2222 3500 
L 2222 3053 
L 1275 3053 
L 1275 0 
L 697 0 
L 697 3053 
L 147 3053 
L 147 3500 
L 697 3500 
L 697 3744 
Q 697 4328 969 4595 
Q 1241 4863 1831 4863 
L 2375 4863 
z
" transform="scale(0.015625)"/>
       <path id="DejaVuSans-67" d="M 2906 1791 
Q 2906 2416 2648 2759 
Q 2391 3103 1925 3103 
Q 1463 3103 1205 2759 
Q 947 2416 947 1791 
Q 947 1169 1205 825 
Q 1463 481 1925 481 
Q 2391 481 2648 825 
Q 2906 1169 2906 1791 
z
M 3481 434 
Q 3481 -459 3084 -895 
Q 2688 -1331 1869 -1331 
Q 1566 -1331 1297 -1286 
Q 1028 -1241 775 -1147 
L 775 -588 
Q 1028 -725 1275 -790 
Q 1522 -856 1778 -856 
Q 2344 -856 2625 -561 
Q 2906 -266 2906 331 
L 2906 616 
Q 2728 306 2450 153 
Q 2172 0 1784 0 
Q 1141 0 747 490 
Q 353 981 353 1791 
Q 353 2603 747 3093 
Q 1141 3584 1784 3584 
Q 2172 3584 2450 3431 
Q 2728 3278 2906 2969 
L 2906 3500 
L 3481 3500 
L 3481 434 
z
" transform="scale(0.015625)"/>
      </defs>
      <use xlink:href="#DejaVuSans-44"/>
      <use xlink:href="#DejaVuSans-57" x="77.001953"/>
      <use xlink:href="#DejaVuSans-4d" x="175.878906"/>
      <use xlink:href="#DejaVuSans-2d" x="262.158203"/>
      <use xlink:href="#DejaVuSans-48" x="298.242188"/>
      <use xlink:href="#DejaVuSans-6f" x="373.4375"/>
      <use xlink:href="#DejaVuSans-65" x="434.619141"/>
      <use xlink:href="#DejaVuSans-66" x="496.142578"/>
      <use xlink:href="#DejaVuSans-66" x="531.347656"/>
      <use xlink:href="#DejaVuSans-64" x="566.552734"/>
      <use xlink:href="#DejaVuSans-69" x="630.029297"/>
      <use xlink:href="#DejaVuSans-6e" x="657.8125"/>
      <use xlink:href="#DejaVuSans-67" x="721.191406"/>
     </g>
    </g>
   </g>
  </g>
 </g>
 <defs>
  <clipPath id="pe27a883963">
   <rect x="57.6" y="41.472" width="357.12" height="266.112"/>
  </clipPath>
 </defs>
</svg>
