<?xml version="1.0" encoding="utf-8" standalone="no"?>
<!DOCTYPE svg PUBLIC "-//W3C//DTD SVG 1.1//EN"
  "http://www.w3.org/Graphics/SVG/1.1/DTD/svg11.dtd">
<svg xmlns:xlink="http://www.w3.org/1999/xlink" width="460.8pt" height="345.6pt" viewBox="0 0 460.8 345.6" xmlns="http://www.w3.org/2000/svg" version="1.1">
 <metadata>
  <rdf:RDF xmlns:dc="http://purl.org/dc/elements/1.1/" xmlns:cc="http://creativecommons.org/ns#" xmlns:rdf="http://www.w3.org/1999/02/22-rdf-syntax-ns#">
   <cc:Work>
    <dc:type rdf:resource="http://purl.org/dc/dcmitype/StillImage"/>
    <dc:date>2022-10-29T21:09:41.735396</dc:date>
    <dc:format>image/svg+xml</dc:format>
    <dc:creator>
     <cc:Agent>
      <dc:title>Matplotlib v3.5.2, https://matplotlib.org/</dc:title>
     </cc:Agent>
    </dc:creator>
   </cc:Work>
  </rdf:RDF>
 </metadata>
 <defs>
  <style type="text/css">*{stroke-linejoin: round; stroke-linecap: butt}</style>
 </defs>
 <g id="figure_1">
  <g id="patch_1">
   <path d="M 0 345.6 
L 460.8 345.6 
L 460.8 0 
L 0 0 
z
" style="fill: #ffffff"/>
  </g>
  <g id="axes_1">
   <g id="patch_2">
    <path d="M 57.6 307.584 
L 414.72 307.584 
L 414.72 41.472 
L 57.6 41.472 
z
" style="fill: #ffffff"/>
   </g>
   <g id="matplotlib.axis_1">
    <g id="xtick_1">
     <g id="line2d_1">
      <defs>
       <path id="m79949d4583" d="M 0 0 
L 0 3.5 
" style="stroke: #000000; stroke-width: 0.8"/>
      </defs>
      <g>
       <use xlink:href="#m79949d4583" x="57.6" y="307.584" style="stroke: #000000; stroke-width: 0.8"/>
      </g>
     </g>
     <g id="text_1">
      <!-- 0 -->
      <g transform="translate(54.41875 322.182437)scale(0.1 -0.1)">
       <defs>
        <path id="DejaVuSans-30" d="M 2034 4250 
Q 1547 4250 1301 3770 
Q 1056 3291 1056 2328 
Q 1056 1369 1301 889 
Q 1547 409 2034 409 
Q 2525 409 2770 889 
Q 3016 1369 3016 2328 
Q 3016 3291 2770 3770 
Q 2525 4250 2034 4250 
z
M 2034 4750 
Q 2819 4750 3233 4129 
Q 3647 3509 3647 2328 
Q 3647 1150 3233 529 
Q 2819 -91 2034 -91 
Q 1250 -91 836 529 
Q 422 1150 422 2328 
Q 422 3509 836 4129 
Q 1250 4750 2034 4750 
z
" transform="scale(0.015625)"/>
       </defs>
       <use xlink:href="#DejaVuSans-30"/>
      </g>
     </g>
    </g>
    <g id="xtick_2">
     <g id="line2d_2">
      <g>
       <use xlink:href="#m79949d4583" x="176.64" y="307.584" style="stroke: #000000; stroke-width: 0.8"/>
      </g>
     </g>
     <g id="text_2">
      <!-- 500 -->
      <g transform="translate(167.09625 322.182437)scale(0.1 -0.1)">
       <defs>
        <path id="DejaVuSans-35" d="M 691 4666 
L 3169 4666 
L 3169 4134 
L 1269 4134 
L 1269 2991 
Q 1406 3038 1543 3061 
Q 1681 3084 1819 3084 
Q 2600 3084 3056 2656 
Q 3513 2228 3513 1497 
Q 3513 744 3044 326 
Q 2575 -91 1722 -91 
Q 1428 -91 1123 -41 
Q 819 9 494 109 
L 494 744 
Q 775 591 1075 516 
Q 1375 441 1709 441 
Q 2250 441 2565 725 
Q 2881 1009 2881 1497 
Q 2881 1984 2565 2268 
Q 2250 2553 1709 2553 
Q 1456 2553 1204 2497 
Q 953 2441 691 2322 
L 691 4666 
z
" transform="scale(0.015625)"/>
       </defs>
       <use xlink:href="#DejaVuSans-35"/>
       <use xlink:href="#DejaVuSans-30" x="63.623047"/>
       <use xlink:href="#DejaVuSans-30" x="127.246094"/>
      </g>
     </g>
    </g>
    <g id="xtick_3">
     <g id="line2d_3">
      <g>
       <use xlink:href="#m79949d4583" x="295.68" y="307.584" style="stroke: #000000; stroke-width: 0.8"/>
      </g>
     </g>
     <g id="text_3">
      <!-- 1000 -->
      <g transform="translate(282.955 322.182437)scale(0.1 -0.1)">
       <defs>
        <path id="DejaVuSans-31" d="M 794 531 
L 1825 531 
L 1825 4091 
L 703 3866 
L 703 4441 
L 1819 4666 
L 2450 4666 
L 2450 531 
L 3481 531 
L 3481 0 
L 794 0 
L 794 531 
z
" transform="scale(0.015625)"/>
       </defs>
       <use xlink:href="#DejaVuSans-31"/>
       <use xlink:href="#DejaVuSans-30" x="63.623047"/>
       <use xlink:href="#DejaVuSans-30" x="127.246094"/>
       <use xlink:href="#DejaVuSans-30" x="190.869141"/>
      </g>
     </g>
    </g>
    <g id="xtick_4">
     <g id="line2d_4">
      <g>
       <use xlink:href="#m79949d4583" x="414.72" y="307.584" style="stroke: #000000; stroke-width: 0.8"/>
      </g>
     </g>
     <g id="text_4">
      <!-- 1500 -->
      <g transform="translate(401.995 322.182437)scale(0.1 -0.1)">
       <use xlink:href="#DejaVuSans-31"/>
       <use xlink:href="#DejaVuSans-35" x="63.623047"/>
       <use xlink:href="#DejaVuSans-30" x="127.246094"/>
       <use xlink:href="#DejaVuSans-30" x="190.869141"/>
      </g>
     </g>
    </g>
    <g id="text_5">
     <!-- Time t -->
     <g transform="translate(220.377187 335.860562)scale(0.1 -0.1)">
      <defs>
       <path id="DejaVuSans-54" d="M -19 4666 
L 3928 4666 
L 3928 4134 
L 2272 4134 
L 2272 0 
L 1638 0 
L 1638 4134 
L -19 4134 
L -19 4666 
z
" transform="scale(0.015625)"/>
       <path id="DejaVuSans-69" d="M 603 3500 
L 1178 3500 
L 1178 0 
L 603 0 
L 603 3500 
z
M 603 4863 
L 1178 4863 
L 1178 4134 
L 603 4134 
L 603 4863 
z
" transform="scale(0.015625)"/>
       <path id="DejaVuSans-6d" d="M 3328 2828 
Q 3544 3216 3844 3400 
Q 4144 3584 4550 3584 
Q 5097 3584 5394 3201 
Q 5691 2819 5691 2113 
L 5691 0 
L 5113 0 
L 5113 2094 
Q 5113 2597 4934 2840 
Q 4756 3084 4391 3084 
Q 3944 3084 3684 2787 
Q 3425 2491 3425 1978 
L 3425 0 
L 2847 0 
L 2847 2094 
Q 2847 2600 2669 2842 
Q 2491 3084 2119 3084 
Q 1678 3084 1418 2786 
Q 1159 2488 1159 1978 
L 1159 0 
L 581 0 
L 581 3500 
L 1159 3500 
L 1159 2956 
Q 1356 3278 1631 3431 
Q 1906 3584 2284 3584 
Q 2666 3584 2933 3390 
Q 3200 3197 3328 2828 
z
" transform="scale(0.015625)"/>
       <path id="DejaVuSans-65" d="M 3597 1894 
L 3597 1613 
L 953 1613 
Q 991 1019 1311 708 
Q 1631 397 2203 397 
Q 2534 397 2845 478 
Q 3156 559 3463 722 
L 3463 178 
Q 3153 47 2828 -22 
Q 2503 -91 2169 -91 
Q 1331 -91 842 396 
Q 353 884 353 1716 
Q 353 2575 817 3079 
Q 1281 3584 2069 3584 
Q 2775 3584 3186 3129 
Q 3597 2675 3597 1894 
z
M 3022 2063 
Q 3016 2534 2758 2815 
Q 2500 3097 2075 3097 
Q 1594 3097 1305 2825 
Q 1016 2553 972 2059 
L 3022 2063 
z
" transform="scale(0.015625)"/>
       <path id="DejaVuSans-20" transform="scale(0.015625)"/>
       <path id="DejaVuSans-74" d="M 1172 4494 
L 1172 3500 
L 2356 3500 
L 2356 3053 
L 1172 3053 
L 1172 1153 
Q 1172 725 1289 603 
Q 1406 481 1766 481 
L 2356 481 
L 2356 0 
L 1766 0 
Q 1100 0 847 248 
Q 594 497 594 1153 
L 594 3053 
L 172 3053 
L 172 3500 
L 594 3500 
L 594 4494 
L 1172 4494 
z
" transform="scale(0.015625)"/>
      </defs>
      <use xlink:href="#DejaVuSans-54"/>
      <use xlink:href="#DejaVuSans-69" x="57.958984"/>
      <use xlink:href="#DejaVuSans-6d" x="85.742188"/>
      <use xlink:href="#DejaVuSans-65" x="183.154297"/>
      <use xlink:href="#DejaVuSans-20" x="244.677734"/>
      <use xlink:href="#DejaVuSans-74" x="276.464844"/>
     </g>
    </g>
   </g>
   <g id="matplotlib.axis_2">
    <g id="ytick_1">
     <g id="line2d_5">
      <defs>
       <path id="m759e3686c6" d="M 0 0 
L -3.5 0 
" style="stroke: #000000; stroke-width: 0.8"/>
      </defs>
      <g>
       <use xlink:href="#m759e3686c6" x="57.6" y="307.584" style="stroke: #000000; stroke-width: 0.8"/>
      </g>
     </g>
     <g id="text_6">
      <!-- 0.1 -->
      <g transform="translate(34.696875 311.383219)scale(0.1 -0.1)">
       <defs>
        <path id="DejaVuSans-2e" d="M 684 794 
L 1344 794 
L 1344 0 
L 684 0 
L 684 794 
z
" transform="scale(0.015625)"/>
       </defs>
       <use xlink:href="#DejaVuSans-30"/>
       <use xlink:href="#DejaVuSans-2e" x="63.623047"/>
       <use xlink:href="#DejaVuSans-31" x="95.410156"/>
      </g>
     </g>
    </g>
    <g id="ytick_2">
     <g id="line2d_6">
      <g>
       <use xlink:href="#m759e3686c6" x="57.6" y="218.88" style="stroke: #000000; stroke-width: 0.8"/>
      </g>
     </g>
     <g id="text_7">
      <!-- 0.4 -->
      <g transform="translate(34.696875 222.679219)scale(0.1 -0.1)">
       <defs>
        <path id="DejaVuSans-34" d="M 2419 4116 
L 825 1625 
L 2419 1625 
L 2419 4116 
z
M 2253 4666 
L 3047 4666 
L 3047 1625 
L 3713 1625 
L 3713 1100 
L 3047 1100 
L 3047 0 
L 2419 0 
L 2419 1100 
L 313 1100 
L 313 1709 
L 2253 4666 
z
" transform="scale(0.015625)"/>
       </defs>
       <use xlink:href="#DejaVuSans-30"/>
       <use xlink:href="#DejaVuSans-2e" x="63.623047"/>
       <use xlink:href="#DejaVuSans-34" x="95.410156"/>
      </g>
     </g>
    </g>
    <g id="ytick_3">
     <g id="line2d_7">
      <g>
       <use xlink:href="#m759e3686c6" x="57.6" y="130.176" style="stroke: #000000; stroke-width: 0.8"/>
      </g>
     </g>
     <g id="text_8">
      <!-- 0.7 -->
      <g transform="translate(34.696875 133.975219)scale(0.1 -0.1)">
       <defs>
        <path id="DejaVuSans-37" d="M 525 4666 
L 3525 4666 
L 3525 4397 
L 1831 0 
L 1172 0 
L 2766 4134 
L 525 4134 
L 525 4666 
z
" transform="scale(0.015625)"/>
       </defs>
       <use xlink:href="#DejaVuSans-30"/>
       <use xlink:href="#DejaVuSans-2e" x="63.623047"/>
       <use xlink:href="#DejaVuSans-37" x="95.410156"/>
      </g>
     </g>
    </g>
    <g id="ytick_4">
     <g id="line2d_8">
      <g>
       <use xlink:href="#m759e3686c6" x="57.6" y="41.472" style="stroke: #000000; stroke-width: 0.8"/>
      </g>
     </g>
     <g id="text_9">
      <!-- 1.0 -->
      <g transform="translate(34.696875 45.271219)scale(0.1 -0.1)">
       <use xlink:href="#DejaVuSans-31"/>
       <use xlink:href="#DejaVuSans-2e" x="63.623047"/>
       <use xlink:href="#DejaVuSans-30" x="95.410156"/>
      </g>
     </g>
    </g>
    <g id="text_10">
     <!-- Accumulated mistakes per time -->
     <g transform="translate(28.617187 253.88425)rotate(-90)scale(0.1 -0.1)">
      <defs>
       <path id="DejaVuSans-41" d="M 2188 4044 
L 1331 1722 
L 3047 1722 
L 2188 4044 
z
M 1831 4666 
L 2547 4666 
L 4325 0 
L 3669 0 
L 3244 1197 
L 1141 1197 
L 716 0 
L 50 0 
L 1831 4666 
z
" transform="scale(0.015625)"/>
       <path id="DejaVuSans-63" d="M 3122 3366 
L 3122 2828 
Q 2878 2963 2633 3030 
Q 2388 3097 2138 3097 
Q 1578 3097 1268 2742 
Q 959 2388 959 1747 
Q 959 1106 1268 751 
Q 1578 397 2138 397 
Q 2388 397 2633 464 
Q 2878 531 3122 666 
L 3122 134 
Q 2881 22 2623 -34 
Q 2366 -91 2075 -91 
Q 1284 -91 818 406 
Q 353 903 353 1747 
Q 353 2603 823 3093 
Q 1294 3584 2113 3584 
Q 2378 3584 2631 3529 
Q 2884 3475 3122 3366 
z
" transform="scale(0.015625)"/>
       <path id="DejaVuSans-75" d="M 544 1381 
L 544 3500 
L 1119 3500 
L 1119 1403 
Q 1119 906 1312 657 
Q 1506 409 1894 409 
Q 2359 409 2629 706 
Q 2900 1003 2900 1516 
L 2900 3500 
L 3475 3500 
L 3475 0 
L 2900 0 
L 2900 538 
Q 2691 219 2414 64 
Q 2138 -91 1772 -91 
Q 1169 -91 856 284 
Q 544 659 544 1381 
z
M 1991 3584 
L 1991 3584 
z
" transform="scale(0.015625)"/>
       <path id="DejaVuSans-6c" d="M 603 4863 
L 1178 4863 
L 1178 0 
L 603 0 
L 603 4863 
z
" transform="scale(0.015625)"/>
       <path id="DejaVuSans-61" d="M 2194 1759 
Q 1497 1759 1228 1600 
Q 959 1441 959 1056 
Q 959 750 1161 570 
Q 1363 391 1709 391 
Q 2188 391 2477 730 
Q 2766 1069 2766 1631 
L 2766 1759 
L 2194 1759 
z
M 3341 1997 
L 3341 0 
L 2766 0 
L 2766 531 
Q 2569 213 2275 61 
Q 1981 -91 1556 -91 
Q 1019 -91 701 211 
Q 384 513 384 1019 
Q 384 1609 779 1909 
Q 1175 2209 1959 2209 
L 2766 2209 
L 2766 2266 
Q 2766 2663 2505 2880 
Q 2244 3097 1772 3097 
Q 1472 3097 1187 3025 
Q 903 2953 641 2809 
L 641 3341 
Q 956 3463 1253 3523 
Q 1550 3584 1831 3584 
Q 2591 3584 2966 3190 
Q 3341 2797 3341 1997 
z
" transform="scale(0.015625)"/>
       <path id="DejaVuSans-64" d="M 2906 2969 
L 2906 4863 
L 3481 4863 
L 3481 0 
L 2906 0 
L 2906 525 
Q 2725 213 2448 61 
Q 2172 -91 1784 -91 
Q 1150 -91 751 415 
Q 353 922 353 1747 
Q 353 2572 751 3078 
Q 1150 3584 1784 3584 
Q 2172 3584 2448 3432 
Q 2725 3281 2906 2969 
z
M 947 1747 
Q 947 1113 1208 752 
Q 1469 391 1925 391 
Q 2381 391 2643 752 
Q 2906 1113 2906 1747 
Q 2906 2381 2643 2742 
Q 2381 3103 1925 3103 
Q 1469 3103 1208 2742 
Q 947 2381 947 1747 
z
" transform="scale(0.015625)"/>
       <path id="DejaVuSans-73" d="M 2834 3397 
L 2834 2853 
Q 2591 2978 2328 3040 
Q 2066 3103 1784 3103 
Q 1356 3103 1142 2972 
Q 928 2841 928 2578 
Q 928 2378 1081 2264 
Q 1234 2150 1697 2047 
L 1894 2003 
Q 2506 1872 2764 1633 
Q 3022 1394 3022 966 
Q 3022 478 2636 193 
Q 2250 -91 1575 -91 
Q 1294 -91 989 -36 
Q 684 19 347 128 
L 347 722 
Q 666 556 975 473 
Q 1284 391 1588 391 
Q 1994 391 2212 530 
Q 2431 669 2431 922 
Q 2431 1156 2273 1281 
Q 2116 1406 1581 1522 
L 1381 1569 
Q 847 1681 609 1914 
Q 372 2147 372 2553 
Q 372 3047 722 3315 
Q 1072 3584 1716 3584 
Q 2034 3584 2315 3537 
Q 2597 3491 2834 3397 
z
" transform="scale(0.015625)"/>
       <path id="DejaVuSans-6b" d="M 581 4863 
L 1159 4863 
L 1159 1991 
L 2875 3500 
L 3609 3500 
L 1753 1863 
L 3688 0 
L 2938 0 
L 1159 1709 
L 1159 0 
L 581 0 
L 581 4863 
z
" transform="scale(0.015625)"/>
       <path id="DejaVuSans-70" d="M 1159 525 
L 1159 -1331 
L 581 -1331 
L 581 3500 
L 1159 3500 
L 1159 2969 
Q 1341 3281 1617 3432 
Q 1894 3584 2278 3584 
Q 2916 3584 3314 3078 
Q 3713 2572 3713 1747 
Q 3713 922 3314 415 
Q 2916 -91 2278 -91 
Q 1894 -91 1617 61 
Q 1341 213 1159 525 
z
M 3116 1747 
Q 3116 2381 2855 2742 
Q 2594 3103 2138 3103 
Q 1681 3103 1420 2742 
Q 1159 2381 1159 1747 
Q 1159 1113 1420 752 
Q 1681 391 2138 391 
Q 2594 391 2855 752 
Q 3116 1113 3116 1747 
z
" transform="scale(0.015625)"/>
       <path id="DejaVuSans-72" d="M 2631 2963 
Q 2534 3019 2420 3045 
Q 2306 3072 2169 3072 
Q 1681 3072 1420 2755 
Q 1159 2438 1159 1844 
L 1159 0 
L 581 0 
L 581 3500 
L 1159 3500 
L 1159 2956 
Q 1341 3275 1631 3429 
Q 1922 3584 2338 3584 
Q 2397 3584 2469 3576 
Q 2541 3569 2628 3553 
L 2631 2963 
z
" transform="scale(0.015625)"/>
      </defs>
      <use xlink:href="#DejaVuSans-41"/>
      <use xlink:href="#DejaVuSans-63" x="66.658203"/>
      <use xlink:href="#DejaVuSans-63" x="121.638672"/>
      <use xlink:href="#DejaVuSans-75" x="176.619141"/>
      <use xlink:href="#DejaVuSans-6d" x="239.998047"/>
      <use xlink:href="#DejaVuSans-75" x="337.410156"/>
      <use xlink:href="#DejaVuSans-6c" x="400.789062"/>
      <use xlink:href="#DejaVuSans-61" x="428.572266"/>
      <use xlink:href="#DejaVuSans-74" x="489.851562"/>
      <use xlink:href="#DejaVuSans-65" x="529.060547"/>
      <use xlink:href="#DejaVuSans-64" x="590.583984"/>
      <use xlink:href="#DejaVuSans-20" x="654.060547"/>
      <use xlink:href="#DejaVuSans-6d" x="685.847656"/>
      <use xlink:href="#DejaVuSans-69" x="783.259766"/>
      <use xlink:href="#DejaVuSans-73" x="811.042969"/>
      <use xlink:href="#DejaVuSans-74" x="863.142578"/>
      <use xlink:href="#DejaVuSans-61" x="902.351562"/>
      <use xlink:href="#DejaVuSans-6b" x="963.630859"/>
      <use xlink:href="#DejaVuSans-65" x="1017.916016"/>
      <use xlink:href="#DejaVuSans-73" x="1079.439453"/>
      <use xlink:href="#DejaVuSans-20" x="1131.539062"/>
      <use xlink:href="#DejaVuSans-70" x="1163.326172"/>
      <use xlink:href="#DejaVuSans-65" x="1226.802734"/>
      <use xlink:href="#DejaVuSans-72" x="1288.326172"/>
      <use xlink:href="#DejaVuSans-20" x="1329.439453"/>
      <use xlink:href="#DejaVuSans-74" x="1361.226562"/>
      <use xlink:href="#DejaVuSans-69" x="1400.435547"/>
      <use xlink:href="#DejaVuSans-6d" x="1428.21875"/>
      <use xlink:href="#DejaVuSans-65" x="1525.630859"/>
     </g>
    </g>
   </g>
   <g id="line2d_9">
    <path d="M 57.6 41.472 
L 57.83808 189.312 
L 58.07616 238.592 
L 58.31424 189.312 
L 58.7904 238.592 
L 59.02848 210.432 
L 59.50464 238.592 
L 59.74272 218.88 
L 60.21888 238.592 
L 60.45696 223.428923 
L 60.93312 238.592 
L 61.1712 226.272 
L 61.64736 238.592 
L 61.88544 228.217263 
L 62.3616 238.592 
L 62.59968 229.632 
L 63.07584 238.592 
L 63.31392 230.7072 
L 63.79008 238.592 
L 64.02816 231.552 
L 64.50432 238.592 
L 64.7424 232.23329 
L 64.98048 235.512 
L 65.45664 224.097882 
L 65.9328 230.378667 
L 66.17088 225.273081 
L 66.64704 231.010462 
L 66.88512 226.272 
L 67.36128 231.552 
L 67.59936 227.131535 
L 68.07552 232.021333 
L 68.3136 227.878957 
L 68.78976 232.432 
L 69.02784 228.534857 
L 69.504 232.794353 
L 69.74208 229.115077 
L 69.98016 231.153509 
L 70.45632 224.256 
L 70.93248 228.217263 
L 71.17056 224.997517 
L 71.64672 228.736 
L 71.8848 225.666098 
L 72.36096 229.205333 
L 72.59904 226.272 
L 73.0752 229.632 
L 73.31328 226.823642 
L 73.78944 230.021565 
L 74.02752 227.328 
L 74.50368 230.378667 
L 74.74176 227.790904 
L 75.21792 230.7072 
L 75.456 228.217263 
L 75.93216 231.010462 
L 76.17024 228.611241 
L 76.6464 231.291259 
L 76.88448 228.97639 
L 77.36064 231.552 
L 77.59872 229.315765 
L 78.07488 231.794759 
L 78.31296 229.632 
L 78.78912 232.021333 
L 79.0272 229.927385 
L 79.50336 232.23329 
L 79.74144 230.203915 
L 80.2176 232.432 
L 80.45568 230.46334 
L 80.93184 232.618667 
L 81.16992 230.7072 
L 81.64608 232.794353 
L 81.88416 230.936854 
L 82.36032 232.96 
L 82.5984 231.153509 
L 83.07456 233.116444 
L 83.31264 231.358239 
L 83.7888 233.264432 
L 84.02688 231.552 
L 84.50304 233.404632 
L 84.74112 231.735652 
L 85.21728 233.537641 
L 85.45536 231.909966 
L 85.93152 233.664 
L 86.1696 232.075636 
L 86.64576 233.784195 
L 86.88384 232.23329 
L 87.36 233.898667 
L 87.59808 232.383496 
L 88.07424 234.007814 
L 88.31232 232.526769 
L 88.78848 234.112 
L 89.02656 232.663579 
L 89.50272 234.211556 
L 89.7408 232.794353 
L 90.21696 234.306783 
L 90.45504 232.919482 
L 90.9312 234.397957 
L 91.16928 233.039324 
L 91.64544 234.485333 
L 91.88352 233.154207 
L 92.35968 234.569143 
L 92.59776 233.264432 
L 93.07392 234.6496 
L 93.312 233.370278 
L 95.45472 239.208 
L 97.35936 243.872 
L 97.59744 242.674367 
L 98.0736 243.779368 
L 98.31168 242.603163 
L 98.78784 243.689931 
L 99.02592 242.5344 
L 99.50208 243.603525 
L 99.74016 242.467955 
L 100.93056 245.054951 
L 101.16864 243.948522 
L 101.6448 244.95071 
L 101.88288 243.862588 
L 104.26368 248.598091 
L 105.216 250.360358 
L 105.45408 249.326257 
L 105.93024 250.187294 
L 106.16832 249.169171 
L 107.35872 251.264 
L 107.5968 250.269725 
L 110.21568 254.574703 
L 112.83456 258.473202 
L 115.69152 262.326857 
L 118.54848 265.820638 
L 120.92928 268.492225 
L 121.16736 267.645134 
L 124.2624 270.860754 
L 127.59552 274.00678 
L 128.54784 274.851532 
L 129.50016 271.770614 
L 129.73824 271.985684 
L 130.2144 270.479059 
L 130.45248 270.696235 
L 130.92864 269.212583 
L 131.16672 269.431742 
L 131.4048 268.698752 
L 132.35712 269.568 
L 133.07136 267.416151 
L 133.7856 268.067888 
L 134.02368 267.364174 
L 134.976 268.220466 
L 135.21408 267.527046 
L 135.92832 268.16 
L 136.1664 267.475142 
L 137.3568 268.512 
L 137.59488 267.838291 
L 137.83296 268.043361 
L 138.07104 267.375009 
L 138.78528 267.987088 
L 139.02336 267.326694 
L 140.21376 268.329931 
L 140.45184 267.679908 
L 142.35648 269.236706 
L 142.59456 268.600492 
L 143.78496 269.544727 
L 144.26112 268.295014 
L 145.45152 269.225514 
L 148.0704 262.649953 
L 151.87968 265.652554 
L 152.11776 265.089286 
L 152.832 265.628409 
L 153.54624 263.963881 
L 154.97472 265.034927 
L 155.45088 263.94967 
L 156.4032 264.653538 
L 157.5936 262.002926 
L 157.83168 262.181005 
L 158.06976 261.659234 
L 158.30784 261.837283 
L 158.54592 261.318776 
L 158.784 261.496789 
L 159.02208 260.981508 
L 159.49824 261.336615 
L 159.73632 260.825302 
L 160.21248 261.178667 
L 160.45056 260.671261 
L 160.92672 261.022897 
L 161.40288 260.018087 
L 161.87904 260.369494 
L 162.11712 259.872 
L 162.59328 260.221683 
L 162.83136 259.727892 
L 163.06944 259.90227 
L 163.30752 259.411416 
L 163.78368 259.759248 
L 164.02176 259.272 
L 164.49792 259.618133 
L 164.736 259.134439 
L 165.21216 259.478887 
L 165.68832 258.520615 
L 166.64064 259.205856 
L 166.87872 258.732522 
L 167.59296 259.240639 
L 168.3072 257.838695 
L 168.78336 258.177641 
L 169.02144 257.715582 
L 169.4976 258.052892 
L 169.73568 257.594034 
L 170.21184 257.929722 
L 170.44992 257.474021 
L 170.92608 257.808101 
L 171.16416 257.355515 
L 171.64032 257.688 
L 171.8784 257.238486 
L 172.35456 257.569391 
L 172.59264 257.122909 
L 173.0688 257.452247 
L 173.30688 257.008756 
L 173.78304 257.33654 
L 174.02112 256.896 
L 174.49728 257.222244 
L 174.73536 256.784617 
L 175.21152 257.109333 
L 175.4496 256.674581 
L 175.92576 256.997783 
L 176.16384 256.565868 
L 176.64 256.887569 
L 176.87808 256.458454 
L 177.35424 256.778667 
L 177.59232 256.352317 
L 178.06848 256.671053 
L 178.30656 256.247433 
L 178.78272 256.564706 
L 179.0208 256.143781 
L 179.49696 256.459602 
L 179.73504 256.041339 
L 180.92544 256.822751 
L 181.16352 256.408615 
L 181.63968 256.717977 
L 181.87776 256.306417 
L 182.35392 256.6144 
L 182.592 256.205384 
L 183.06816 256.512 
L 183.30624 256.105497 
L 183.7824 256.410757 
L 184.02048 256.006737 
L 184.49664 256.310652 
L 184.73472 255.909084 
L 185.21088 256.211665 
L 185.44896 255.81252 
L 185.92512 256.113778 
L 186.1632 255.717028 
L 186.63936 256.016972 
L 186.87744 255.622588 
L 187.3536 255.921231 
L 187.59168 255.529185 
L 188.06784 255.826536 
L 188.30592 255.4368 
L 188.78208 255.73287 
L 189.02016 255.345418 
L 189.49632 255.640216 
L 189.7344 255.255022 
L 190.21056 255.548559 
L 190.44864 255.165596 
L 190.9248 255.457882 
L 191.16288 255.077125 
L 191.63904 255.36817 
L 191.87712 254.989593 
L 192.35328 255.279407 
L 192.59136 254.902986 
L 193.54368 255.478154 
L 194.01984 254.732488 
L 194.496 255.018667 
L 194.73408 254.648568 
L 195.21024 254.933554 
L 195.44832 254.565517 
L 195.92448 254.84932 
L 196.16256 254.483321 
L 196.63872 254.765949 
L 196.8768 254.401966 
L 197.35296 254.683429 
L 197.59104 254.32144 
L 198.0672 254.601746 
L 198.30528 254.24173 
L 198.78144 254.520889 
L 199.01952 254.162824 
L 199.49568 254.440844 
L 199.73376 254.084709 
L 199.97184 254.223386 
L 200.20992 253.8688 
L 200.448 254.007374 
L 200.92416 253.302448 
L 201.16224 253.441272 
L 201.6384 252.741703 
L 201.87648 252.880764 
L 202.35264 252.186483 
L 202.59072 252.32577 
L 203.06688 251.636706 
L 203.30496 251.776209 
L 203.78112 251.092293 
L 204.0192 251.232 
L 204.49536 250.553165 
L 204.73344 250.693066 
L 205.2096 250.019246 
L 205.68576 250.298966 
L 205.92384 249.964308 
L 206.16192 250.103808 
L 206.63808 249.438316 
L 206.87616 249.577987 
L 207.35232 248.917333 
L 207.5904 249.057166 
L 208.06656 248.401289 
L 208.30464 248.541274 
L 208.7808 247.890113 
L 209.01888 248.030242 
L 209.49504 247.383737 
L 209.9712 247.663825 
L 210.20928 247.342654 
L 210.44736 247.482327 
L 210.92352 246.843535 
L 211.1616 246.983331 
L 212.352 245.404903 
L 212.82816 245.685905 
L 213.06624 245.373651 
L 213.30432 245.513771 
L 213.5424 245.202732 
L 213.78048 245.342685 
L 214.49472 244.416 
L 214.7328 244.556297 
L 215.20896 243.943674 
L 215.44704 244.084048 
L 215.68512 243.779368 
L 216.16128 244.059346 
L 216.39936 243.756072 
L 217.35168 244.312 
L 217.58976 244.010603 
L 217.82784 244.148795 
L 218.54208 243.250671 
L 219.25632 243.664941 
L 219.4944 243.368035 
L 219.73248 243.505548 
L 219.97056 243.209745 
L 220.20864 243.347088 
L 220.6848 242.758531 
L 221.16096 243.03293 
L 221.39904 242.740389 
L 222.58944 243.420588 
L 222.82752 243.130014 
L 223.30368 243.399805 
L 223.54176 243.11051 
L 223.77984 243.245047 
L 224.01792 242.9568 
L 224.256 243.091173 
L 224.49408 242.803966 
L 224.97024 243.072 
L 225.68448 242.216554 
L 226.6368 242.75065 
L 226.87488 242.467955 
L 227.11296 242.600752 
L 227.35104 242.319059 
L 228.06528 242.715849 
L 228.54144 242.156061 
L 229.0176 242.419573 
L 229.73184 241.586917 
L 230.208 241.850182 
L 230.44608 241.574558 
L 230.92224 241.836774 
L 231.16032 241.562301 
L 231.3984 241.693067 
L 231.87456 241.146761 
L 234.49344 242.566194 
L 234.73152 242.296268 
L 235.44576 242.676706 
L 235.68384 242.408075 
L 236.63616 242.911363 
L 236.87424 242.644202 
L 238.06464 243.266783 
L 238.30272 243.001263 
L 238.77888 243.248378 
L 239.01696 242.983927 
L 240.20736 243.597 
L 240.44544 243.334159 
L 240.68352 243.456 
L 241.15968 242.932725 
L 241.63584 243.176186 
L 241.87392 242.915923 
L 243.06432 243.52 
L 243.3024 243.261296 
L 244.4928 243.858565 
L 244.73088 243.601403 
L 245.20704 243.83854 
L 245.44512 243.58238 
L 246.63552 244.170868 
L 246.8736 243.916221 
L 247.11168 244.033205 
L 247.58784 243.526168 
L 248.064 243.75994 
L 248.30208 243.507711 
L 248.77824 243.740657 
L 249.01632 243.489391 
L 249.49248 243.721517 
L 249.73056 243.471208 
L 250.92096 244.047351 
L 251.15904 243.798486 
L 251.6352 244.027294 
L 251.87328 243.779368 
L 252.34944 244.007385 
L 252.58752 243.76039 
L 253.06368 243.98762 
L 253.30176 243.74155 
L 253.77792 243.968 
L 254.016 243.722847 
L 254.49216 243.948522 
L 254.73024 243.70428 
L 255.2064 243.929184 
L 255.44448 243.685846 
L 255.92064 243.909986 
L 256.15872 243.667545 
L 256.63488 243.890925 
L 256.87296 243.649375 
L 257.34912 243.872 
L 257.5872 243.631334 
L 258.06336 243.85321 
L 258.30144 243.613422 
L 259.49184 244.164297 
L 259.72992 243.925835 
L 260.20608 244.144676 
L 260.44416 243.907076 
L 263.06304 245.094222 
L 263.30112 244.858821 
L 263.77728 245.071723 
L 264.01536 244.837161 
L 264.49152 245.049379 
L 264.7296 244.815651 
L 265.20576 245.027189 
L 265.44384 244.794288 
L 265.92 245.005151 
L 266.15808 244.773072 
L 266.39616 244.878287 
L 266.87232 244.416 
L 267.34848 244.626286 
L 267.58656 244.396213 
L 268.06272 244.605831 
L 268.3008 244.37656 
L 268.77696 244.585514 
L 269.01504 244.357039 
L 269.4912 244.565333 
L 269.72928 244.33765 
L 270.20544 244.545289 
L 270.44352 244.318391 
L 270.91968 244.525378 
L 271.15776 244.299261 
L 271.39584 244.402545 
L 271.63392 244.177067 
L 271.872 244.280257 
L 272.34816 243.83107 
L 272.58624 243.934301 
L 273.0624 243.487364 
L 273.30048 243.590633 
L 273.77664 243.145927 
L 274.01472 243.249231 
L 274.49088 242.806737 
L 274.72896 242.910072 
L 275.20512 242.46977 
L 275.4432 242.573135 
L 275.91936 242.135007 
L 276.15744 242.238398 
L 276.6336 241.802423 
L 277.10976 242.009031 
L 277.34784 241.792 
L 278.06208 242.100608 
L 278.30016 241.884414 
L 280.2048 242.698667 
L 280.91904 242.05577 
L 281.15712 242.156936 
L 281.63328 241.730854 
L 281.87136 241.832042 
L 282.34752 241.408 
L 282.5856 241.509209 
L 283.06176 241.08719 
L 283.29984 241.188417 
L 283.776 240.768404 
L 284.01408 240.869647 
L 284.49024 240.451623 
L 284.72832 240.55288 
L 285.20448 240.136828 
L 285.44256 240.238096 
L 285.91872 239.824 
L 286.1568 239.925278 
L 286.63296 239.513121 
L 286.87104 239.614407 
L 287.3472 239.204174 
L 287.58528 239.305464 
L 288.06144 238.897139 
L 288.29952 238.998433 
L 289.48992 237.985477 
L 290.68032 238.491429 
L 290.9184 238.290593 
L 291.15648 238.391267 
L 291.39456 238.190942 
L 291.63264 238.291512 
L 292.1088 237.892284 
L 293.77536 238.592 
L 294.01344 238.39369 
L 296.63232 239.474627 
L 296.8704 239.277805 
L 298.0608 239.761852 
L 298.29888 239.565913 
L 298.77504 239.758391 
L 299.01312 239.563034 
L 299.48928 239.75495 
L 299.72736 239.560173 
L 300.91776 240.037161 
L 301.15584 239.84325 
L 301.632 240.032936 
L 301.87008 239.839595 
L 302.34624 240.028735 
L 302.58432 239.835961 
L 303.06048 240.024558 
L 303.29856 239.832348 
L 305.2032 240.580242 
L 305.44128 240.389159 
L 305.91744 240.574529 
L 306.15552 240.384 
L 306.63168 240.568848 
L 306.86976 240.37887 
L 307.34592 240.5632 
L 307.584 240.37377 
L 308.06016 240.557584 
L 308.29824 240.368698 
L 308.7744 240.552 
L 309.01248 240.363656 
L 309.48864 240.546448 
L 309.72672 240.358642 
L 310.20288 240.540927 
L 310.44096 240.353656 
L 310.67904 240.444632 
L 310.91712 240.257803 
L 311.63136 240.529978 
L 311.86944 240.343768 
L 312.3456 240.524549 
L 312.58368 240.338866 
L 313.05984 240.519151 
L 313.29792 240.333991 
L 313.77408 240.513783 
L 314.01216 240.329143 
L 315.20256 240.776155 
L 315.44064 240.592295 
L 315.9168 240.770122 
L 316.15488 240.586775 
L 316.63104 240.764121 
L 316.86912 240.581284 
L 317.34528 240.758154 
L 317.58336 240.575824 
L 318.05952 240.752219 
L 318.2976 240.570394 
L 318.77376 240.746317 
L 319.01184 240.564994 
L 319.488 240.740447 
L 319.72608 240.559623 
L 320.20224 240.734609 
L 320.44032 240.554281 
L 320.91648 240.728802 
L 321.15456 240.548968 
L 321.63072 240.723027 
L 321.8688 240.543683 
L 322.34496 240.717283 
L 322.58304 240.538427 
L 323.0592 240.71157 
L 323.29728 240.5332 
L 323.77344 240.705887 
L 324.01152 240.528 
L 324.48768 240.700235 
L 324.72576 240.522828 
L 325.20192 240.694613 
L 325.44 240.517684 
L 325.91616 240.689021 
L 326.15424 240.512567 
L 326.6304 240.683459 
L 326.86848 240.507477 
L 327.34464 240.677926 
L 327.58272 240.502414 
L 328.05888 240.672422 
L 328.29696 240.497378 
L 328.77312 240.666947 
L 329.0112 240.492368 
L 329.48736 240.661501 
L 329.72544 240.487385 
L 330.2016 240.656084 
L 330.43968 240.482427 
L 331.63008 240.902 
L 331.86816 240.729034 
L 332.34432 240.896 
L 332.5824 240.723488 
L 333.05856 240.890031 
L 333.29664 240.717971 
L 333.7728 240.884093 
L 334.01088 240.712482 
L 334.48704 240.878186 
L 334.72512 240.707021 
L 335.20128 240.872308 
L 335.43936 240.701589 
L 335.91552 240.866462 
L 336.1536 240.696184 
L 336.62976 240.860645 
L 336.86784 240.690807 
L 337.344 240.854857 
L 337.58208 240.685458 
L 338.05824 240.849099 
L 338.29632 240.680136 
L 338.77248 240.843371 
L 339.01056 240.67484 
L 339.48672 240.837671 
L 339.7248 240.669572 
L 340.20096 240.832 
L 340.43904 240.66433 
L 340.9152 240.826358 
L 341.15328 240.659114 
L 341.62944 240.820744 
L 341.86752 240.653925 
L 342.81984 240.975853 
L 343.77216 240.312499 
L 344.01024 240.39293 
L 344.4864 240.063045 
L 344.72448 240.143483 
L 345.20064 239.814829 
L 345.43872 239.895273 
L 345.91488 239.567842 
L 346.15296 239.64829 
L 346.62912 239.322074 
L 346.8672 239.402526 
L 347.34336 239.077517 
L 347.58144 239.157972 
L 348.0576 238.834162 
L 348.29568 238.914619 
L 348.77184 238.592 
L 349.248 238.752783 
L 349.48608 238.592 
L 349.72416 238.672261 
L 350.20032 238.35161 
L 350.67648 238.512 
L 350.91456 238.352195 
L 351.15264 238.432259 
L 352.34304 237.637424 
L 352.58112 237.717677 
L 353.05728 237.401662 
L 353.29536 237.481912 
L 353.77152 237.167036 
L 354.0096 237.247281 
L 354.48576 236.933538 
L 354.72384 237.013777 
L 355.2 236.701161 
L 356.3904 237.101045 
L 356.86656 236.790029 
L 357.5808 237.028796 
L 358.05696 236.719126 
L 358.29504 236.798582 
L 358.53312 236.644174 
L 359.00928 236.802829 
L 359.48544 236.494979 
L 360.67584 236.890022 
L 361.39008 236.430935 
L 361.86624 236.588435 
L 362.3424 236.283803 
L 363.77088 236.754051 
L 364.00896 236.602435 
L 364.48512 236.758326 
L 364.7232 236.607058 
L 366.38976 237.149288 
L 366.86592 236.848246 
L 368.2944 237.30906 
L 368.53248 237.159223 
L 368.77056 237.23567 
L 369.24672 236.936794 
L 369.72288 237.089561 
L 369.96096 236.940576 
L 371.62752 237.472 
L 371.8656 237.323628 
L 372.10368 237.399141 
L 372.34176 237.251048 
L 372.57984 237.326502 
L 372.81792 237.178687 
L 373.77024 237.479585 
L 374.00832 237.332211 
L 374.48448 237.48209 
L 374.96064 237.188222 
L 375.91296 237.487067 
L 376.15104 237.340678 
L 377.34144 237.712 
L 377.57952 237.566097 
L 378.05568 237.71396 
L 378.29376 237.56838 
L 378.76992 237.715911 
L 379.008 237.570653 
L 379.48416 237.717854 
L 379.72224 237.572916 
L 380.1984 237.719788 
L 380.43648 237.575169 
L 380.91264 237.721713 
L 381.15072 237.577412 
L 381.62688 237.72363 
L 381.86496 237.579645 
L 382.34112 237.725538 
L 382.5792 237.581868 
L 384.48384 238.161607 
L 384.72192 238.01856 
L 385.91232 238.377739 
L 386.1504 238.235157 
L 386.62656 238.378204 
L 386.86464 238.235931 
L 387.3408 238.378667 
L 387.57888 238.236701 
L 388.05504 238.379127 
L 388.29312 238.237468 
L 388.76928 238.379586 
L 389.00736 238.238231 
L 389.48352 238.380043 
L 389.7216 238.238991 
L 390.19776 238.380498 
L 390.43584 238.239748 
L 390.912 238.380951 
L 391.15008 238.240502 
L 393.76896 239.010514 
L 394.00704 238.870812 
L 394.4832 239.009627 
L 394.72128 238.870222 
L 396.62592 239.421979 
L 396.864 239.283164 
L 398.53056 239.761239 
L 398.76864 239.622962 
L 399.00672 239.690927 
L 399.2448 239.552891 
L 399.48288 239.62081 
L 399.72096 239.483015 
L 400.19712 239.618667 
L 400.4352 239.48116 
L 400.91136 239.616532 
L 401.14944 239.479313 
L 401.6256 239.614407 
L 401.86368 239.477473 
L 402.33984 239.61229 
L 402.57792 239.475641 
L 403.76832 239.811299 
L 404.0064 239.675077 
L 404.48256 239.80879 
L 404.72064 239.67285 
L 405.91104 240.00577 
L 406.14912 239.870253 
L 406.62528 240.002879 
L 406.86336 239.86764 
L 407.33952 240 
L 407.5776 239.865039 
L 408.05376 239.997132 
L 408.52992 239.727946 
L 408.768 239.793951 
L 409.00608 239.659678 
L 409.48224 239.791513 
L 409.72032 239.657514 
L 410.19648 239.789085 
L 410.43456 239.655358 
L 410.91072 239.786667 
L 411.1488 239.653211 
L 411.62496 239.784258 
L 411.86304 239.651073 
L 412.3392 239.781859 
L 412.57728 239.648944 
L 413.05344 239.77947 
L 413.29152 239.646823 
L 413.76768 239.77709 
L 414.00576 239.64471 
L 414.24384 239.709759 
L 414.24384 239.709759 
" clip-path="url(#pbd632885ae)" style="fill: none; stroke: #1f77b4; stroke-width: 1.5; stroke-linecap: square"/>
    <defs>
     <path id="m0a48a8234d" d="M 0 -3 
L -3 3 
L 3 3 
z
" style="stroke: #1f77b4; stroke-linejoin: miter"/>
    </defs>
    <g clip-path="url(#pbd632885ae)">
     <use xlink:href="#m0a48a8234d" x="57.6" y="41.472" style="fill: #1f77b4; stroke: #1f77b4; stroke-linejoin: miter"/>
     <use xlink:href="#m0a48a8234d" x="81.408" y="231.761109" style="fill: #1f77b4; stroke: #1f77b4; stroke-linejoin: miter"/>
     <use xlink:href="#m0a48a8234d" x="105.216" y="250.360358" style="fill: #1f77b4; stroke: #1f77b4; stroke-linejoin: miter"/>
     <use xlink:href="#m0a48a8234d" x="129.024" y="273.300837" style="fill: #1f77b4; stroke: #1f77b4; stroke-linejoin: miter"/>
     <use xlink:href="#m0a48a8234d" x="152.832" y="265.628409" style="fill: #1f77b4; stroke: #1f77b4; stroke-linejoin: miter"/>
     <use xlink:href="#m0a48a8234d" x="176.64" y="256.887569" style="fill: #1f77b4; stroke: #1f77b4; stroke-linejoin: miter"/>
     <use xlink:href="#m0a48a8234d" x="200.448" y="254.007374" style="fill: #1f77b4; stroke: #1f77b4; stroke-linejoin: miter"/>
     <use xlink:href="#m0a48a8234d" x="224.256" y="243.091173" style="fill: #1f77b4; stroke: #1f77b4; stroke-linejoin: miter"/>
     <use xlink:href="#m0a48a8234d" x="248.064" y="243.75994" style="fill: #1f77b4; stroke: #1f77b4; stroke-linejoin: miter"/>
     <use xlink:href="#m0a48a8234d" x="271.872" y="244.280257" style="fill: #1f77b4; stroke: #1f77b4; stroke-linejoin: miter"/>
     <use xlink:href="#m0a48a8234d" x="295.68" y="239.084308" style="fill: #1f77b4; stroke: #1f77b4; stroke-linejoin: miter"/>
     <use xlink:href="#m0a48a8234d" x="319.488" y="240.740447" style="fill: #1f77b4; stroke: #1f77b4; stroke-linejoin: miter"/>
     <use xlink:href="#m0a48a8234d" x="343.296" y="240.643624" style="fill: #1f77b4; stroke: #1f77b4; stroke-linejoin: miter"/>
     <use xlink:href="#m0a48a8234d" x="367.104" y="236.925344" style="fill: #1f77b4; stroke: #1f77b4; stroke-linejoin: miter"/>
     <use xlink:href="#m0a48a8234d" x="390.912" y="238.380951" style="fill: #1f77b4; stroke: #1f77b4; stroke-linejoin: miter"/>
    </g>
   </g>
   <g id="line2d_10">
    <path d="M 57.6 41.472 
L 58.31424 41.472 
L 58.55232 100.608 
L 58.7904 90.752 
L 59.02848 125.952 
L 59.26656 115.392 
L 59.74272 159.744 
L 59.9808 175.872 
L 60.21888 164.672 
L 60.45696 177.939692 
L 60.93312 159.744 
L 61.40928 180.615529 
L 62.12352 159.744 
L 62.83776 182.884174 
L 63.07584 189.312 
L 63.31392 183.3984 
L 63.79008 194.787556 
L 64.02816 189.312 
L 64.50432 199.168 
L 64.7424 194.081032 
L 64.98048 198.552 
L 65.45664 189.312 
L 65.69472 193.536 
L 66.17088 185.316324 
L 66.64704 193.102769 
L 66.88512 189.312 
L 67.36128 196.352 
L 67.59936 192.75014 
L 68.07552 199.168 
L 68.3136 195.739826 
L 68.78976 201.632 
L 69.02784 198.363429 
L 69.504 203.806118 
L 69.74208 200.684308 
L 70.21824 205.738667 
L 70.6944 199.872 
L 70.93248 202.280421 
L 71.17056 199.507862 
L 71.64672 204.096 
L 71.8848 201.430033 
L 72.36096 205.738667 
L 72.59904 203.172 
L 73.0752 207.232 
L 73.31328 204.75797 
L 73.78944 208.595478 
L 74.02752 206.208 
L 74.50368 209.845333 
L 74.74176 207.538849 
L 75.21792 210.9952 
L 75.456 208.764632 
L 75.93216 212.056615 
L 76.17024 209.897316 
L 76.6464 213.039407 
L 76.88448 210.947122 
L 77.36064 213.952 
L 77.59872 211.922824 
L 78.07488 214.801655 
L 78.31296 212.832 
L 78.78912 215.594667 
L 79.0272 213.681231 
L 79.50336 216.336516 
L 79.74144 214.476255 
L 80.93184 220.672 
L 81.16992 218.88 
L 81.64608 221.199059 
L 81.88416 219.454136 
L 83.07456 224.903111 
L 83.31264 223.220257 
L 83.7888 225.273081 
L 84.02688 223.632 
L 84.50304 225.623579 
L 84.74112 224.022261 
L 85.21728 225.956103 
L 85.69344 222.855529 
L 85.93152 223.808 
L 86.1696 222.301091 
L 86.64576 224.168585 
L 86.88384 222.695226 
L 87.36 224.512 
L 87.59808 223.07074 
L 88.07424 224.839442 
L 88.31232 223.428923 
L 88.78848 225.152 
L 89.26464 222.410507 
L 89.50272 223.260444 
L 89.7408 221.923765 
L 90.21696 223.593739 
L 90.45504 222.283511 
L 90.9312 223.912851 
L 91.16928 222.628056 
L 91.64544 224.218667 
L 92.1216 221.715288 
L 92.35968 222.500571 
L 92.59776 221.277405 
L 93.07392 222.8224 
L 93.312 221.621404 
L 95.45472 228.12 
L 97.35936 233.312 
L 97.59744 232.176852 
L 98.31168 234.007814 
L 99.02592 230.7072 
L 99.50208 231.909966 
L 99.74016 230.84009 
L 101.40672 234.862703 
L 101.88288 232.794353 
L 104.26368 238.091695 
L 105.216 240.063045 
L 105.45408 239.079921 
L 106.64448 241.448812 
L 106.88256 240.487385 
L 107.35872 241.408 
L 107.5968 240.460436 
L 110.21568 245.251459 
L 112.83456 249.590112 
L 115.69152 253.878857 
L 118.54848 257.767097 
L 120.92928 260.740315 
L 121.16736 259.922149 
L 122.59584 261.613314 
L 122.83392 260.8128 
L 125.92896 264.258667 
L 126.6432 265.010144 
L 126.88128 264.244603 
L 128.54784 265.951465 
L 129.50016 262.98804 
L 129.73824 263.232 
L 130.2144 261.782588 
L 130.45248 262.028091 
L 130.92864 260.600544 
L 132.11904 261.819516 
L 132.35712 261.12 
L 132.5952 261.360608 
L 133.07136 259.97766 
L 133.54752 260.46 
L 134.02368 259.099826 
L 134.26176 259.341474 
L 134.49984 258.669037 
L 134.976 259.150528 
L 135.21408 258.484844 
L 136.40448 259.66959 
L 136.64256 259.014342 
L 137.3568 259.712 
L 137.59488 259.064404 
L 137.83296 259.295432 
L 138.07104 258.652885 
L 138.30912 258.883765 
L 138.5472 258.246194 
L 138.78528 258.476912 
L 139.26144 257.215256 
L 140.45184 258.360481 
L 140.68992 257.7408 
L 141.88032 258.859268 
L 142.1184 258.248629 
L 142.35648 258.469647 
L 142.59456 257.863508 
L 142.83264 258.084368 
L 143.07072 257.482667 
L 143.78496 258.141091 
L 144.26112 256.953863 
L 144.97536 257.607652 
L 145.21344 257.021919 
L 145.45152 257.238486 
L 145.6896 256.656906 
L 145.92768 256.87329 
L 147.11808 254.016509 
L 148.30848 255.10467 
L 148.54656 254.546883 
L 150.4512 256.237013 
L 150.68928 255.689143 
L 150.92736 255.896427 
L 151.16544 255.352203 
L 151.87968 255.970338 
L 152.11776 255.431397 
L 152.35584 255.636211 
L 152.59392 255.1008 
L 154.26048 256.512 
L 154.97472 254.938537 
L 155.2128 255.138569 
L 155.45088 254.619961 
L 156.4032 255.413538 
L 156.64128 254.900489 
L 156.87936 255.097263 
L 157.11744 254.587418 
L 157.83168 255.17437 
L 158.06976 254.669163 
L 158.30784 254.863698 
L 158.54592 254.3616 
L 158.784 254.555944 
L 159.73632 252.573767 
L 160.92672 253.545931 
L 161.40288 252.575341 
L 161.87904 252.960656 
L 162.11712 252.48 
L 162.83136 253.0534 
L 163.5456 251.630206 
L 163.78368 251.82153 
L 164.02176 251.352 
L 164.49792 251.733333 
L 164.736 251.267122 
L 165.9264 252.208842 
L 166.16448 251.747711 
L 166.40256 251.934183 
L 166.87872 251.01913 
L 167.59296 251.577227 
L 168.3072 250.224618 
L 168.78336 250.596103 
L 169.02144 250.150209 
L 169.25952 250.335319 
L 169.73568 249.450305 
L 170.21184 249.820354 
L 170.44992 249.381726 
L 170.92608 249.749736 
L 171.16416 249.314008 
L 171.64032 249.68 
L 171.8784 249.247135 
L 172.11648 249.42951 
L 172.59264 248.570182 
L 173.0688 248.934716 
L 173.30688 248.508715 
L 173.78304 248.871264 
L 174.02112 248.448 
L 174.49728 248.808585 
L 174.73536 248.388024 
L 175.21152 248.746667 
L 175.4496 248.328774 
L 175.68768 248.507493 
L 176.16384 247.677691 
L 176.64 248.034874 
L 176.87808 247.623394 
L 177.35424 247.978667 
L 177.59232 247.569743 
L 178.06848 247.923124 
L 178.30656 247.516724 
L 178.78272 247.868235 
L 179.25888 247.062 
L 179.49696 247.237614 
L 179.73504 246.837292 
L 180.2112 247.187349 
L 180.44928 246.789447 
L 180.92544 247.137665 
L 181.16352 246.742154 
L 181.63968 247.088552 
L 181.87776 246.695403 
L 182.35392 247.04 
L 182.83008 246.259856 
L 183.06816 246.432 
L 183.30624 246.044552 
L 183.7824 246.387706 
L 184.02048 246.002526 
L 185.21088 246.851218 
L 185.44896 246.469472 
L 185.92512 246.805333 
L 186.1632 246.425789 
L 186.63936 246.759956 
L 186.87744 246.382588 
L 188.06784 247.209268 
L 188.30592 246.8352 
L 188.78208 247.162435 
L 189.02016 246.790481 
L 189.49632 247.116108 
L 189.7344 246.746245 
L 190.68672 247.392 
L 191.16288 246.659189 
L 191.87712 247.139681 
L 192.1152 246.776311 
L 192.35328 246.935704 
L 192.59136 246.573972 
L 193.54368 247.207385 
L 194.01984 246.490537 
L 194.496 246.805333 
L 194.97216 246.094837 
L 195.21024 246.252104 
L 195.44832 245.899034 
L 195.92448 246.212619 
L 196.16256 245.861434 
L 197.35296 246.637714 
L 197.59104 246.289385 
L 198.0672 246.596873 
L 198.30528 246.250378 
L 198.78144 246.556444 
L 199.01952 246.211765 
L 199.49568 246.516422 
L 199.73376 246.173538 
L 199.97184 246.325422 
L 200.20992 245.984 
L 200.448 246.135694 
L 200.92416 245.456876 
L 201.16224 245.608689 
L 201.6384 244.93497 
L 201.87648 245.086893 
L 202.35264 244.418207 
L 202.59072 244.57023 
L 203.06688 243.90651 
L 203.30496 244.058623 
L 203.78112 243.399805 
L 204.0192 243.552 
L 204.49536 242.898019 
L 204.73344 243.050288 
L 205.2096 242.401082 
L 205.68576 242.705258 
L 205.92384 242.382769 
L 206.16192 242.5344 
L 206.63808 241.893053 
L 206.87616 242.044739 
L 207.35232 241.408 
L 207.5904 241.559734 
L 208.06656 240.927545 
L 208.30464 241.079319 
L 208.7808 240.451623 
L 209.25696 240.754759 
L 209.49504 240.442892 
L 210.68544 241.193739 
L 210.92352 240.884093 
L 211.1616 241.033115 
L 211.39968 240.724674 
L 211.63776 240.873481 
L 212.352 239.954581 
L 212.82816 240.252276 
L 213.06624 239.94833 
L 213.30432 240.096733 
L 213.5424 239.793951 
L 213.78048 239.942137 
L 214.49472 239.04 
L 214.7328 239.18843 
L 215.20896 238.592 
L 215.44704 238.740434 
L 215.9232 238.148036 
L 217.35168 239.032 
L 217.58976 238.738449 
L 217.82784 238.884463 
L 219.01824 237.430763 
L 219.25632 237.577412 
L 219.97056 236.716041 
L 221.16096 237.445953 
L 221.39904 237.161521 
L 222.58944 237.881914 
L 222.82752 237.599309 
L 223.30368 237.88497 
L 223.54176 237.603576 
L 223.77984 237.745991 
L 224.01792 237.4656 
L 224.256 237.607806 
L 224.49408 237.32841 
L 224.73216 237.470407 
L 225.92256 236.086237 
L 226.16064 236.228784 
L 226.39872 235.954479 
L 227.8272 236.802503 
L 228.54144 235.987494 
L 229.0176 236.268117 
L 229.73184 235.46095 
L 230.208 235.741091 
L 230.44608 235.473871 
L 230.92224 235.752823 
L 231.16032 235.486685 
L 232.82688 236.452299 
L 233.06496 236.188098 
L 234.49344 237.002323 
L 234.73152 236.739866 
L 234.9696 236.874466 
L 235.44576 236.352 
L 235.68384 236.486579 
L 235.92192 236.22656 
L 236.16 236.360948 
L 236.39808 236.101787 
L 236.63616 236.235984 
L 236.87424 235.977676 
L 237.11232 236.111682 
L 237.3504 235.854222 
L 238.06464 236.254609 
L 238.30272 235.998316 
L 238.77888 236.263811 
L 239.01696 236.008514 
L 240.68352 236.928 
L 241.15968 236.421637 
L 241.39776 236.551948 
L 241.63584 236.299907 
L 243.06432 237.075692 
L 243.54048 236.575427 
L 244.4928 237.087267 
L 244.73088 236.838709 
L 244.96896 236.96601 
L 245.20704 236.718236 
L 246.63552 237.476226 
L 246.8736 237.22999 
L 247.34976 237.480421 
L 247.58784 237.235104 
L 249.2544 238.102868 
L 249.49248 237.859212 
L 250.92096 238.592 
L 251.15904 238.349838 
L 251.6352 238.592 
L 252.11136 238.110044 
L 252.58752 238.35161 
L 252.8256 238.111805 
L 253.77792 238.592 
L 254.016 238.353356 
L 254.49216 238.592 
L 254.73024 238.35422 
L 255.2064 238.592 
L 255.44448 238.355077 
L 255.68256 238.473681 
L 256.15872 238.00182 
L 256.63488 238.238738 
L 256.87296 238.003933 
L 257.34912 238.24 
L 257.5872 238.006031 
L 257.82528 238.123781 
L 258.06336 237.890505 
L 259.49184 238.592 
L 259.968 238.128733 
L 260.20608 238.244958 
L 260.44416 238.014274 
L 263.06304 239.276444 
L 263.30112 239.047769 
L 263.5392 239.161053 
L 264.25344 238.478582 
L 264.49152 238.592 
L 264.7296 238.365685 
L 265.20576 238.592 
L 265.68192 238.14144 
L 266.39616 238.479745 
L 266.63424 238.255618 
L 266.87232 238.368 
L 267.1104 238.144509 
L 267.34848 238.256762 
L 267.58656 238.033903 
L 268.77696 238.592 
L 269.01504 238.370268 
L 269.4912 238.592 
L 269.72928 238.371013 
L 270.20544 238.592 
L 270.44352 238.371754 
L 270.91968 238.592 
L 271.15776 238.37249 
L 271.39584 238.482367 
L 271.63392 238.263467 
L 271.872 238.373221 
L 272.34816 237.937116 
L 272.58624 238.046867 
L 273.0624 237.612927 
L 273.30048 237.722673 
L 273.77664 237.290878 
L 274.01472 237.400615 
L 274.49088 236.970947 
L 274.72896 237.080675 
L 275.20512 236.653115 
L 275.4432 236.76283 
L 276.6336 235.702619 
L 277.10976 235.922444 
L 277.34784 235.712 
L 277.58592 235.821665 
L 278.53824 234.984853 
L 280.2048 235.748923 
L 280.91904 235.12823 
L 281.15712 235.236766 
L 281.63328 234.825376 
L 281.87136 234.933888 
L 282.34752 234.524444 
L 282.5856 234.63293 
L 283.776 233.617363 
L 284.01408 233.726118 
L 284.49024 233.323069 
L 284.72832 233.431791 
L 285.20448 233.030621 
L 285.68064 233.247766 
L 285.91872 233.048 
L 286.1568 233.156329 
L 286.39488 232.957073 
L 287.10912 233.280995 
L 287.3472 233.082435 
L 287.58528 233.190056 
L 288.06144 232.794353 
L 288.29952 232.901938 
L 288.77568 232.508049 
L 289.01376 232.615597 
L 289.25184 232.419351 
L 289.96608 232.740946 
L 290.44224 232.350202 
L 290.9184 232.563865 
L 291.39456 232.175072 
L 291.87072 232.388223 
L 292.34688 232.001362 
L 292.58496 232.107789 
L 293.06112 231.722667 
L 293.2992 231.829053 
L 294.01344 231.254535 
L 296.63232 232.413612 
L 296.8704 232.223809 
L 297.58464 232.535786 
L 297.82272 232.346614 
L 298.77504 232.760047 
L 299.01312 232.571586 
L 299.2512 232.67452 
L 299.48928 232.486513 
L 299.72736 232.589328 
L 299.96544 232.401774 
L 300.67968 232.70926 
L 301.39392 232.149541 
L 302.34624 232.557714 
L 302.58432 232.372194 
L 303.06048 232.575256 
L 303.29856 232.390258 
L 304.0128 232.693622 
L 304.48896 232.325179 
L 305.2032 232.627274 
L 305.44128 232.443823 
L 305.91744 232.644414 
L 306.15552 232.461474 
L 306.3936 232.56156 
L 306.86976 232.196885 
L 307.34592 232.3968 
L 307.584 232.21514 
L 308.06016 232.41445 
L 308.29824 232.23329 
L 308.7744 232.432 
L 309.01248 232.251338 
L 309.48864 232.44945 
L 309.72672 232.269283 
L 309.9648 232.368136 
L 310.44096 232.008971 
L 311.63136 232.501213 
L 311.86944 232.322514 
L 312.3456 232.518275 
L 312.58368 232.34006 
L 312.82176 232.437741 
L 313.29792 232.082456 
L 313.77408 232.277571 
L 314.01216 232.100571 
L 314.48832 232.295111 
L 314.7264 232.118586 
L 315.9168 232.602166 
L 316.15488 232.426333 
L 316.63104 232.618667 
L 316.86912 232.443303 
L 317.34528 232.635077 
L 317.58336 232.460179 
L 317.82144 232.555876 
L 318.2976 232.207182 
L 318.77376 232.398339 
L 319.01184 232.224611 
L 319.488 232.415215 
L 319.72608 232.241946 
L 319.96416 232.337059 
L 320.20224 232.164174 
L 320.6784 232.354025 
L 321.15456 232.009473 
L 321.63072 232.198919 
L 321.8688 232.027248 
L 322.34496 232.216151 
L 322.58304 232.044926 
L 323.0592 232.23329 
L 323.29728 232.06251 
L 323.77344 232.250338 
L 324.01152 232.08 
L 324.48768 232.267294 
L 324.72576 232.097396 
L 325.20192 232.28416 
L 325.44 232.1147 
L 325.91616 232.300936 
L 326.15424 232.131911 
L 326.39232 232.22485 
L 327.10656 231.719767 
L 327.34464 231.812741 
L 327.58272 231.64504 
L 328.05888 231.830628 
L 328.29696 231.663353 
L 328.77312 231.848421 
L 329.0112 231.681571 
L 329.48736 231.866121 
L 329.72544 231.699692 
L 330.2016 231.883728 
L 330.43968 231.717719 
L 330.91584 231.901243 
L 331.15392 231.735652 
L 331.392 231.827239 
L 331.63008 231.662 
L 332.10624 231.844825 
L 332.5824 231.51546 
L 333.05856 231.697907 
L 333.29664 231.533777 
L 333.7728 231.715721 
L 334.01088 231.552 
L 334.48704 231.733443 
L 334.72512 231.570129 
L 335.20128 231.751075 
L 335.43936 231.588164 
L 335.91552 231.768615 
L 336.1536 231.606108 
L 336.39168 231.696164 
L 336.86784 231.372102 
L 337.344 231.552 
L 337.58208 231.390505 
L 338.05824 231.569913 
L 338.29632 231.408814 
L 338.77248 231.587736 
L 339.01056 231.42703 
L 339.48672 231.605468 
L 339.7248 231.445153 
L 340.20096 231.623111 
L 340.43904 231.463186 
L 340.9152 231.640665 
L 341.39136 231.321858 
L 341.62944 231.410492 
L 341.86752 231.251548 
L 342.81984 231.604844 
L 343.53408 231.130303 
L 344.01024 231.306419 
L 344.4864 230.991602 
L 344.72448 231.079556 
L 345.20064 230.765896 
L 345.43872 230.853818 
L 345.91488 230.541307 
L 346.15296 230.629197 
L 346.62912 230.317827 
L 346.8672 230.405684 
L 347.34336 230.095448 
L 347.58144 230.183272 
L 348.0576 229.874162 
L 348.29568 229.961951 
L 348.53376 229.80783 
L 349.248 230.070499 
L 349.48608 229.916792 
L 349.72416 230.004117 
L 349.96224 229.850714 
L 350.20032 229.937951 
L 350.4384 229.784851 
L 350.67648 229.872 
L 350.91456 229.719202 
L 351.15264 229.806263 
L 352.34304 229.046237 
L 352.58112 229.133419 
L 353.05728 228.831227 
L 353.29536 228.918372 
L 353.77152 228.617253 
L 354.0096 228.70436 
L 354.48576 228.404308 
L 354.72384 228.491376 
L 355.67616 227.894346 
L 356.3904 228.155312 
L 356.62848 228.006797 
L 357.34272 228.266667 
L 357.5808 228.118534 
L 357.81888 228.204932 
L 358.05696 228.057083 
L 358.29504 228.143392 
L 358.53312 227.995826 
L 359.00928 228.168133 
L 359.24736 228.020896 
L 359.72352 228.192756 
L 361.152 227.314759 
L 361.39008 227.400771 
L 361.62816 227.255286 
L 362.10432 227.427 
L 362.3424 227.281836 
L 363.29472 227.623844 
L 363.5328 227.479092 
L 363.77088 227.564308 
L 364.00896 227.419826 
L 364.48512 227.589953 
L 364.96128 227.301845 
L 366.38976 227.809627 
L 367.104 227.379948 
L 367.34208 227.464258 
L 368.05632 227.03669 
L 368.2944 227.121005 
L 368.53248 226.978963 
L 368.77056 227.063193 
L 369.00864 226.921412 
L 370.19904 227.340858 
L 370.43712 227.199513 
L 372.10368 227.781713 
L 372.34176 227.640889 
L 372.57984 227.723601 
L 372.81792 227.583034 
L 373.77024 227.912813 
L 374.00832 227.772632 
L 374.48448 227.936865 
L 374.72256 227.796981 
L 375.67488 228.124147 
L 376.15104 227.845353 
L 376.38912 227.926925 
L 376.6272 227.787884 
L 376.86528 227.869377 
L 377.10336 227.730585 
L 377.34144 227.812 
L 377.8176 227.53512 
L 378.76992 227.859911 
L 379.008 227.721948 
L 380.1984 228.125451 
L 380.43648 227.987903 
L 380.91264 228.148556 
L 381.15072 228.011294 
L 381.62688 228.171559 
L 381.86496 228.034583 
L 383.29344 228.512818 
L 383.7696 228.239965 
L 384.48384 228.477764 
L 384.96 228.205953 
L 385.91232 228.521739 
L 386.1504 228.386294 
L 386.62656 228.543584 
L 386.86464 228.408416 
L 388.05504 228.799862 
L 388.29312 228.665094 
L 388.76928 228.820966 
L 389.00736 228.686472 
L 389.48352 228.841978 
L 389.7216 228.707759 
L 390.19776 228.862901 
L 390.43584 228.728955 
L 390.912 228.883734 
L 391.15008 228.75006 
L 392.34048 229.135284 
L 392.81664 228.868906 
L 393.76896 229.175439 
L 394.00704 229.042693 
L 394.4832 229.19539 
L 394.72128 229.06291 
L 396.62592 229.669726 
L 396.864 229.53775 
L 397.10208 229.613163 
L 397.57824 229.349845 
L 397.81632 229.425231 
L 398.29248 229.162726 
L 398.53056 229.238085 
L 398.76864 229.107146 
L 399.00672 229.182439 
L 399.2448 229.051721 
L 399.48288 229.126948 
L 399.72096 228.996451 
L 400.19712 229.146667 
L 400.4352 229.016427 
L 400.91136 229.166304 
L 401.14944 229.036321 
L 401.6256 229.185859 
L 402.57792 228.668028 
L 403.53024 228.96647 
L 403.76832 228.837608 
L 404.48256 229.060477 
L 404.72064 228.931904 
L 405.91104 229.301508 
L 406.14912 229.173297 
L 406.62528 229.320507 
L 406.86336 229.192545 
L 407.33952 229.339429 
L 407.5776 229.211714 
L 408.05376 229.358273 
L 408.29184 229.230806 
L 408.768 229.377041 
L 409.00608 229.24982 
L 409.48224 229.395732 
L 409.72032 229.268757 
L 410.19648 229.414348 
L 410.43456 229.287617 
L 410.91072 229.432889 
L 411.1488 229.306401 
L 411.62496 229.451355 
L 411.86304 229.325109 
L 412.3392 229.469746 
L 412.57728 229.343743 
L 413.05344 229.488064 
L 413.29152 229.362301 
L 413.76768 229.506309 
L 414.00576 229.380785 
L 414.24384 229.45268 
L 414.24384 229.45268 
" clip-path="url(#pbd632885ae)" style="fill: none; stroke: #ff7f0e; stroke-width: 1.5; stroke-linecap: square"/>
    <defs>
     <path id="ma763cf4b16" d="M -3 3 
L 3 -3 
M -3 -3 
L 3 3 
" style="stroke: #ff7f0e"/>
    </defs>
    <g clip-path="url(#pbd632885ae)">
     <use xlink:href="#ma763cf4b16" x="57.6" y="41.472" style="fill: #ff7f0e; stroke: #ff7f0e"/>
     <use xlink:href="#ma763cf4b16" x="81.408" y="220.05101" style="fill: #ff7f0e; stroke: #ff7f0e"/>
     <use xlink:href="#ma763cf4b16" x="105.216" y="240.063045" style="fill: #ff7f0e; stroke: #ff7f0e"/>
     <use xlink:href="#ma763cf4b16" x="129.024" y="264.459907" style="fill: #ff7f0e; stroke: #ff7f0e"/>
     <use xlink:href="#ma763cf4b16" x="152.832" y="255.305416" style="fill: #ff7f0e; stroke: #ff7f0e"/>
     <use xlink:href="#ma763cf4b16" x="176.64" y="248.034874" style="fill: #ff7f0e; stroke: #ff7f0e"/>
     <use xlink:href="#ma763cf4b16" x="200.448" y="246.135694" style="fill: #ff7f0e; stroke: #ff7f0e"/>
     <use xlink:href="#ma763cf4b16" x="224.256" y="237.607806" style="fill: #ff7f0e; stroke: #ff7f0e"/>
     <use xlink:href="#ma763cf4b16" x="248.064" y="237.484584" style="fill: #ff7f0e; stroke: #ff7f0e"/>
     <use xlink:href="#ma763cf4b16" x="271.872" y="238.373221" style="fill: #ff7f0e; stroke: #ff7f0e"/>
     <use xlink:href="#ma763cf4b16" x="295.68" y="231.995077" style="fill: #ff7f0e; stroke: #ff7f0e"/>
     <use xlink:href="#ma763cf4b16" x="319.488" y="232.415215" style="fill: #ff7f0e; stroke: #ff7f0e"/>
     <use xlink:href="#ma763cf4b16" x="343.296" y="231.28822" style="fill: #ff7f0e; stroke: #ff7f0e"/>
     <use xlink:href="#ma763cf4b16" x="367.104" y="227.379948" style="fill: #ff7f0e; stroke: #ff7f0e"/>
     <use xlink:href="#ma763cf4b16" x="390.912" y="228.883734" style="fill: #ff7f0e; stroke: #ff7f0e"/>
    </g>
   </g>
   <g id="line2d_11">
    <path d="M 60.458847 -1 
L 61.1712 16.722561 
L 62.12352 34.10033 
L 63.31392 50.459534 
L 65.45664 74.941902 
L 67.1232 89.294255 
L 68.3136 97.656861 
L 70.45632 110.560455 
L 71.8848 117.470958 
L 74.50368 127.768602 
L 75.93216 132.755594 
L 77.36064 136.764191 
L 79.0272 141.021623 
L 82.12224 148.421668 
L 83.7888 151.483926 
L 86.1696 155.407715 
L 88.5504 158.634173 
L 90.45504 161.065706 
L 91.16928 162.003381 
L 92.83584 163.953396 
L 93.55008 164.830793 
L 94.5024 166.326533 
L 95.45472 168.22759 
L 98.54976 175.234161 
L 99.264 176.227814 
L 101.16864 178.114748 
L 103.07328 180.013309 
L 104.0256 181.332394 
L 106.4064 185.017472 
L 107.83488 186.876122 
L 109.02528 188.10248 
L 110.21568 189.783483 
L 113.78688 195.623026 
L 119.26272 205.253726 
L 121.16736 208.377331 
L 124.73856 212.794559 
L 129.024 218.143427 
L 132.35712 218.19377 
L 132.83328 218.203421 
L 134.02368 218.1527 
L 134.976 218.149924 
L 136.40448 218.430242 
L 138.30912 218.883027 
L 139.97568 218.782382 
L 143.07072 218.924669 
L 143.78496 218.877032 
L 144.26112 218.855077 
L 145.21344 218.613009 
L 145.92768 218.483722 
L 148.78464 217.460464 
L 149.73696 217.390853 
L 150.92736 217.43178 
L 154.97472 216.572192 
L 156.87936 216.598942 
L 158.54592 216.073859 
L 159.26016 215.845139 
L 160.45056 215.470272 
L 164.49792 214.936948 
L 165.9264 214.914717 
L 166.87872 214.805362 
L 169.02144 214.696773 
L 171.8784 214.207072 
L 172.59264 214.139367 
L 176.64 213.520801 
L 180.44928 213.302709 
L 181.87776 213.352965 
L 187.82976 213.041619 
L 189.02016 213.012697 
L 190.9248 212.96685 
L 192.59136 212.933543 
L 193.54368 213.000739 
L 194.25792 213.027097 
L 208.7808 212.677068 
L 209.9712 212.646287 
L 210.92352 212.635107 
L 214.7328 212.362503 
L 216.39936 212.211557 
L 220.92288 211.772647 
L 222.11328 211.655695 
L 226.87488 211.586286 
L 230.92224 211.247333 
L 232.35072 211.057553 
L 233.54112 211.053886 
L 234.9696 211.021117 
L 236.63616 210.923372 
L 250.4448 210.999135 
L 253.30176 211.105848 
L 257.5872 211.071765 
L 261.63456 211.394088 
L 263.06304 211.725612 
L 264.01536 211.922696 
L 265.92 212.120669 
L 267.58656 212.222259 
L 282.34752 212.320459 
L 293.53728 211.681069 
L 295.91808 211.824326 
L 298.0608 212.019093 
L 299.96544 211.922811 
L 303.53664 211.824253 
L 306.3936 211.823224 
L 309.72672 211.568491 
L 312.3456 211.453669 
L 317.58336 211.447189 
L 327.8208 211.327649 
L 331.86816 211.452324 
L 333.29664 211.49435 
L 338.05824 211.532341 
L 342.81984 211.680419 
L 344.96256 211.741816 
L 365.67552 211.897367 
L 368.2944 212.01993 
L 370.43712 211.973702 
L 380.43648 211.735507 
L 382.5792 211.653106 
L 385.19808 211.732327 
L 388.29312 211.783875 
L 393.05472 211.849334 
L 398.76864 212.275189 
L 401.14944 212.288221 
L 404.48256 212.344335 
L 412.10112 212.635973 
L 414.48192 212.74783 
L 414.48192 212.74783 
" clip-path="url(#pbd632885ae)" style="fill: none; stroke-dasharray: 5.55,2.4; stroke-dashoffset: 0; stroke: #2ca02c; stroke-width: 1.5"/>
    <defs>
     <path id="m9a74a73978" d="M -3 3 
L 3 -3 
M -3 -3 
L 3 3 
" style="stroke: #2ca02c"/>
    </defs>
    <g clip-path="url(#pbd632885ae)">
     <use xlink:href="#m9a74a73978" x="74.830816" y="-1" style="fill: #2ca02c; stroke: #2ca02c"/>
     <use xlink:href="#m9a74a73978" x="81.408" y="146.823335" style="fill: #2ca02c; stroke: #2ca02c"/>
     <use xlink:href="#m9a74a73978" x="105.216" y="183.308862" style="fill: #2ca02c; stroke: #2ca02c"/>
     <use xlink:href="#m9a74a73978" x="129.024" y="218.143427" style="fill: #2ca02c; stroke: #2ca02c"/>
     <use xlink:href="#m9a74a73978" x="152.832" y="217.025978" style="fill: #2ca02c; stroke: #2ca02c"/>
     <use xlink:href="#m9a74a73978" x="176.64" y="213.520801" style="fill: #2ca02c; stroke: #2ca02c"/>
     <use xlink:href="#m9a74a73978" x="200.448" y="212.992203" style="fill: #2ca02c; stroke: #2ca02c"/>
     <use xlink:href="#m9a74a73978" x="224.256" y="211.692422" style="fill: #2ca02c; stroke: #2ca02c"/>
     <use xlink:href="#m9a74a73978" x="248.064" y="210.907527" style="fill: #2ca02c; stroke: #2ca02c"/>
     <use xlink:href="#m9a74a73978" x="271.872" y="212.306388" style="fill: #2ca02c; stroke: #2ca02c"/>
     <use xlink:href="#m9a74a73978" x="295.68" y="211.793055" style="fill: #2ca02c; stroke: #2ca02c"/>
     <use xlink:href="#m9a74a73978" x="319.488" y="211.40934" style="fill: #2ca02c; stroke: #2ca02c"/>
     <use xlink:href="#m9a74a73978" x="343.296" y="211.709285" style="fill: #2ca02c; stroke: #2ca02c"/>
     <use xlink:href="#m9a74a73978" x="367.104" y="211.991092" style="fill: #2ca02c; stroke: #2ca02c"/>
     <use xlink:href="#m9a74a73978" x="390.912" y="211.751202" style="fill: #2ca02c; stroke: #2ca02c"/>
    </g>
   </g>
   <g id="line2d_12">
    <path d="M 57.6 41.472 
L 57.83808 189.312 
L 58.07616 238.592 
L 58.31424 189.312 
L 58.55232 218.88 
L 59.02848 168.192 
L 59.50464 205.738667 
L 59.74272 189.312 
L 60.21888 213.952 
L 60.45696 200.684308 
L 60.93312 218.88 
L 61.1712 207.792 
L 61.64736 222.165333 
L 61.88544 212.655158 
L 62.3616 224.512 
L 62.59968 216.192 
L 63.07584 226.272 
L 63.31392 218.88 
L 63.79008 227.640889 
L 64.02816 220.992 
L 64.50432 228.736 
L 64.7424 222.695226 
L 65.21856 229.632 
L 65.45664 224.097882 
L 65.9328 230.378667 
L 66.17088 225.273081 
L 66.64704 231.010462 
L 66.88512 226.272 
L 67.36128 231.552 
L 67.59936 227.131535 
L 68.07552 232.021333 
L 68.3136 227.878957 
L 68.78976 232.432 
L 69.02784 228.534857 
L 69.504 232.794353 
L 69.74208 229.115077 
L 70.21824 233.116444 
L 70.45632 229.632 
L 70.6944 231.552 
L 71.40864 221.886915 
L 71.64672 223.808 
L 71.8848 220.818885 
L 72.36096 224.512 
L 72.59904 221.652 
L 73.0752 225.152 
L 73.31328 222.410507 
L 73.78944 225.736348 
L 74.02752 223.104 
L 74.50368 226.272 
L 74.74176 223.740493 
L 75.21792 226.7648 
L 75.456 224.326737 
L 75.93216 227.219692 
L 76.17024 224.868456 
L 76.6464 227.640889 
L 76.88448 225.370537 
L 78.07488 231.794759 
L 78.31296 229.632 
L 78.78912 232.021333 
L 79.0272 229.927385 
L 79.50336 232.23329 
L 79.74144 230.203915 
L 81.408 237.616158 
L 83.07456 244.067556 
L 83.31264 244.921541 
L 83.55072 243.072 
L 85.45536 249.450305 
L 85.93152 250.912 
L 86.1696 249.181091 
L 86.64576 250.611512 
L 86.88384 248.924903 
L 88.78848 254.272 
L 89.50272 256.113778 
L 89.7408 254.535529 
L 90.21696 255.73287 
L 90.45504 254.191424 
L 90.9312 255.36817 
L 91.16928 253.861859 
L 93.07392 258.304 
L 93.312 256.868026 
L 95.21664 260.907472 
L 95.45472 259.536 
L 96.64512 261.888 
L 96.8832 260.560193 
L 99.264 264.912 
L 101.6448 268.795871 
L 102.35904 269.880889 
L 102.59712 268.678737 
L 103.07328 269.392 
L 103.31136 268.211067 
L 105.93024 271.928471 
L 106.64448 272.873739 
L 106.88256 271.761231 
L 107.35872 272.384 
L 107.5968 271.28963 
L 110.21568 274.553081 
L 113.07264 277.763282 
L 116.16768 280.889004 
L 119.26272 283.702154 
L 122.59584 286.433168 
L 123.78624 287.342108 
L 124.02432 286.464 
L 127.59552 289.041356 
L 128.07168 289.365333 
L 128.30976 288.533477 
L 128.54784 288.69608 
L 128.78592 287.872 
L 129.024 288.035721 
L 131.88096 278.582799 
L 132.35712 277.077333 
L 132.5952 277.267443 
L 133.7856 273.594617 
L 134.02368 273.792 
L 134.49984 272.357926 
L 134.73792 272.557292 
L 135.21408 271.143927 
L 135.45216 271.345171 
L 136.64256 267.893622 
L 136.88064 268.100982 
L 137.3568 266.752 
L 137.59488 266.960902 
L 137.83296 266.293775 
L 138.07104 266.502796 
L 138.78528 264.528842 
L 139.02336 264.740571 
L 139.49952 263.446261 
L 139.7376 263.659283 
L 140.21376 262.382345 
L 140.45184 262.596585 
L 140.928 261.336615 
L 141.16608 261.552 
L 141.64224 260.30861 
L 141.88032 260.52507 
L 142.35648 259.297882 
L 142.59456 259.515352 
L 143.07072 258.304 
L 143.3088 258.522416 
L 143.78496 257.326545 
L 144.02304 257.545846 
L 144.26112 256.953863 
L 144.73728 257.39091 
L 145.21344 256.220618 
L 145.45152 256.439351 
L 145.92768 255.283613 
L 146.16576 255.503099 
L 146.64192 254.3616 
L 146.88 254.581787 
L 147.11808 254.016509 
L 147.59424 254.455219 
L 148.0704 253.337197 
L 148.30848 253.556607 
L 148.78464 252.452 
L 149.02272 252.672 
L 149.49888 251.580527 
L 149.73696 251.801072 
L 150.21312 250.722462 
L 150.4512 250.943509 
L 150.92736 249.877496 
L 151.40352 250.319392 
L 151.6416 249.792 
L 151.87968 250.01205 
L 152.35584 248.966737 
L 152.59392 249.1872 
L 153.07008 248.153791 
L 153.30816 248.37463 
L 153.78432 247.352889 
L 154.0224 247.574069 
L 154.49856 246.563765 
L 154.73664 246.785252 
L 155.2128 245.786161 
L 155.45088 246.007922 
L 155.92704 245.019826 
L 156.16512 245.241831 
L 156.64128 244.264518 
L 156.87936 244.486737 
L 157.35552 243.52 
L 157.5936 243.742404 
L 158.06976 242.786043 
L 158.30784 243.008604 
L 158.784 242.062423 
L 159.02208 242.285115 
L 159.49824 241.348923 
L 159.9744 241.793485 
L 160.21248 241.329778 
L 160.45056 241.551076 
L 160.92672 240.631172 
L 161.1648 240.85255 
L 161.64096 239.942137 
L 161.87904 240.163572 
L 162.3552 239.262476 
L 162.59328 239.483946 
L 163.06944 238.592 
L 163.30752 238.813483 
L 164.25984 237.05543 
L 164.736 237.499317 
L 164.97408 237.065628 
L 166.16448 238.160665 
L 166.40256 237.731214 
L 168.06912 239.227871 
L 168.3072 238.803502 
L 168.78336 239.223795 
L 169.02144 238.802149 
L 169.4976 239.219771 
L 169.97376 238.383628 
L 170.92608 239.211874 
L 171.16416 238.798192 
L 173.0688 240.417185 
L 173.30688 240.008674 
L 173.78304 240.405988 
L 174.2592 239.595666 
L 175.68768 240.773408 
L 175.92576 240.373205 
L 176.16384 240.56715 
L 176.40192 240.16896 
L 176.87808 240.555347 
L 177.11616 240.159555 
L 179.49696 242.050246 
L 179.73504 241.660016 
L 180.92544 242.579977 
L 181.16352 242.193231 
L 183.06816 243.632 
L 183.7824 242.489853 
L 184.49664 243.021663 
L 184.73472 242.644935 
L 185.92512 243.52 
L 186.1632 243.146529 
L 188.06784 244.516372 
L 188.544 243.779368 
L 189.49632 244.452324 
L 189.7344 244.087252 
L 190.44864 244.586705 
L 190.68672 244.224 
L 190.9248 244.389647 
L 191.16288 244.028584 
L 191.40096 244.193989 
L 191.63904 243.834553 
L 193.06752 244.816842 
L 193.54368 244.105846 
L 194.25792 244.591304 
L 194.73408 243.887251 
L 195.92448 244.688495 
L 196.16256 244.339925 
L 198.30528 245.750919 
L 198.54336 245.406435 
L 199.01952 245.714824 
L 199.2576 245.372134 
L 199.73376 245.67909 
L 199.97184 245.338177 
L 200.20992 245.4912 
L 202.35264 242.476138 
L 202.8288 242.786043 
L 203.06688 242.457098 
L 203.54304 242.76555 
L 203.78112 242.438244 
L 204.25728 242.745258 
L 204.49536 242.419573 
L 204.73344 242.572614 
L 205.2096 241.924947 
L 205.68576 242.230652 
L 206.4 241.26855 
L 206.63808 241.421474 
L 207.35232 240.469333 
L 208.06656 240.927545 
L 209.49504 239.054723 
L 209.9712 239.360799 
L 210.68544 238.438957 
L 211.39968 238.896668 
L 211.63776 238.592 
L 211.87584 238.743864 
L 212.352 238.137806 
L 212.82816 238.441066 
L 213.30432 237.839634 
L 213.5424 237.991024 
L 213.78048 237.691909 
L 214.01856 237.843064 
L 214.25664 237.54508 
L 214.49472 237.696 
L 214.7328 237.399141 
L 214.97088 237.549825 
L 216.63744 235.498188 
L 217.1136 235.80118 
L 217.35168 235.512 
L 217.58976 235.663025 
L 218.06592 235.087644 
L 218.304 235.238627 
L 219.01824 234.382515 
L 219.73248 234.834581 
L 220.20864 234.269193 
L 220.44672 234.419387 
L 220.6848 234.138122 
L 221.16096 234.437581 
L 221.8752 233.599815 
L 222.11328 233.749457 
L 222.35136 233.472 
L 222.58944 233.621395 
L 223.77984 232.246936 
L 224.256 232.546237 
L 224.49408 232.274051 
L 224.73216 232.423238 
L 225.4464 231.61183 
L 225.68448 231.761109 
L 225.92256 231.492339 
L 226.16064 231.641365 
L 226.6368 231.10643 
L 227.11296 231.403893 
L 228.06528 230.344301 
L 228.30336 230.493058 
L 228.77952 229.968 
L 229.0176 230.11666 
L 229.25568 229.85538 
L 229.96992 230.299366 
L 230.208 230.039273 
L 230.68416 230.333538 
L 230.92224 230.074469 
L 231.3984 230.367431 
L 232.35072 229.339429 
L 233.06496 229.777691 
L 233.7792 229.01532 
L 234.01728 229.161057 
L 234.49344 228.656516 
L 234.73152 228.802148 
L 235.68384 227.80172 
L 235.92192 227.94752 
L 236.63616 227.20459 
L 236.87424 227.350408 
L 237.58848 226.61377 
L 237.82656 226.759599 
L 238.77888 225.786961 
L 239.01696 225.932917 
L 239.49312 225.450667 
L 239.7312 225.596491 
L 240.20736 225.117 
L 240.68352 225.408 
L 241.15968 224.931482 
L 241.39776 225.076657 
L 242.35008 224.131459 
L 242.58816 224.27673 
L 243.06432 223.808 
L 243.3024 223.953127 
L 243.54048 223.719775 
L 244.25472 224.153274 
L 244.73088 223.689027 
L 244.96896 223.833015 
L 245.20704 223.601886 
L 245.44512 223.74562 
L 246.39744 222.827365 
L 246.8736 223.114613 
L 247.11168 222.886705 
L 247.34976 223.029895 
L 247.58784 222.802663 
L 248.064 223.08818 
L 248.30208 222.861726 
L 248.54016 223.004055 
L 249.2544 222.328377 
L 249.96864 222.754176 
L 250.20672 222.53037 
L 250.4448 222.671704 
L 250.92096 222.225948 
L 251.15904 222.367135 
L 251.6352 221.923765 
L 251.87328 222.064803 
L 252.34944 221.623795 
L 252.8256 221.905228 
L 253.06368 221.685723 
L 253.30176 221.826022 
L 253.77792 221.3888 
L 254.016 221.528949 
L 254.25408 221.311226 
L 254.49216 221.45113 
L 254.96832 221.017446 
L 255.2064 221.157199 
L 255.44448 220.941231 
L 255.68256 221.080739 
L 255.92064 220.865381 
L 256.3968 221.143579 
L 256.63488 220.928918 
L 257.82528 221.619078 
L 258.30144 221.19219 
L 258.53952 221.32942 
L 258.7776 221.116823 
L 259.968 221.79858 
L 261.1584 220.745271 
L 261.39648 220.881102 
L 261.87264 220.463385 
L 262.11072 220.59907 
L 263.5392 219.358005 
L 264.49152 219.899586 
L 265.20576 219.286433 
L 266.15808 219.824018 
L 266.63424 219.418212 
L 266.87232 219.552 
L 267.34848 219.14819 
L 268.06272 219.548203 
L 268.77696 218.946595 
L 269.25312 219.212225 
L 269.4912 219.012741 
L 269.72928 219.145184 
L 270.20544 218.747705 
L 271.63392 219.537067 
L 271.872 219.339436 
L 273.0624 219.989616 
L 273.30048 219.792794 
L 273.77664 220.05101 
L 274.01472 219.854769 
L 274.49088 220.112 
L 274.72896 219.916337 
L 275.20512 220.17259 
L 275.68128 219.78284 
L 275.91936 219.910693 
L 276.15744 219.716527 
L 276.6336 219.971544 
L 277.10976 219.584763 
L 280.2048 221.217641 
L 280.44288 221.02581 
L 280.91904 221.27315 
L 281.87136 220.510473 
L 282.10944 220.634034 
L 282.34752 220.444444 
L 282.5856 220.567814 
L 282.82368 220.378695 
L 283.29984 220.624792 
L 283.776 220.248025 
L 284.25216 220.493364 
L 284.9664 219.931582 
L 285.44256 220.176301 
L 285.91872 219.804 
L 286.1568 219.92611 
L 286.39488 219.740607 
L 286.63296 219.86253 
L 287.3472 219.308522 
L 287.58528 219.430387 
L 287.82336 219.246545 
L 288.29952 219.489649 
L 288.77568 219.123358 
L 289.01376 219.244662 
L 289.25184 219.062144 
L 289.48992 219.183262 
L 290.9184 218.096343 
L 291.39456 218.338572 
L 291.87072 217.979452 
L 292.1088 218.100316 
L 292.34688 217.921362 
L 294.01344 218.761014 
L 294.25152 218.582834 
L 294.72768 218.820686 
L 294.96576 218.642982 
L 296.63232 219.468418 
L 296.8704 219.291483 
L 298.29888 219.990261 
L 298.53696 219.814034 
L 299.01312 220.045241 
L 299.2512 219.86948 
L 299.48928 219.984802 
L 299.72736 219.809446 
L 300.91776 220.382968 
L 301.39392 220.033873 
L 301.632 220.148023 
L 302.10816 219.800405 
L 303.06048 220.255256 
L 303.29856 220.082184 
L 303.53664 220.195404 
L 304.0128 219.850378 
L 304.48896 220.076393 
L 304.72704 219.904493 
L 305.2032 220.129752 
L 305.44128 219.958296 
L 306.63168 220.51796 
L 306.86976 220.347115 
L 307.34592 220.5696 
L 307.82208 220.22911 
L 308.06016 220.340148 
L 308.29824 220.170444 
L 309.48864 220.722765 
L 309.72672 220.55366 
L 310.20288 220.773243 
L 310.44096 220.604568 
L 310.67904 220.714105 
L 310.91712 220.545803 
L 311.63136 220.873348 
L 311.86944 220.705527 
L 312.3456 220.92298 
L 312.58368 220.755582 
L 313.05984 220.972335 
L 313.29792 220.805358 
L 313.77408 221.021415 
L 314.01216 220.854857 
L 314.48832 221.070222 
L 314.7264 220.904081 
L 315.20256 221.118759 
L 315.44064 220.953033 
L 315.9168 221.167028 
L 316.15488 221.001715 
L 317.58336 221.639319 
L 317.82144 221.474633 
L 319.24992 222.1056 
L 319.72608 221.777771 
L 320.44032 222.091005 
L 320.6784 221.927696 
L 320.91648 222.031783 
L 321.39264 221.706157 
L 321.8688 221.91398 
L 322.10688 221.751712 
L 322.34496 221.855396 
L 322.58304 221.693472 
L 322.82112 221.797022 
L 323.0592 221.635441 
L 323.29728 221.738858 
L 323.53536 221.577617 
L 323.77344 221.680901 
L 324.2496 221.359386 
L 325.20192 221.771093 
L 325.44 221.61097 
L 326.39232 222.019965 
L 326.86848 221.700975 
L 327.10656 221.802874 
L 327.34464 221.643852 
L 328.05888 221.948623 
L 328.53504 221.631719 
L 329.96352 222.237066 
L 330.2016 222.07933 
L 331.63008 222.678667 
L 332.10624 222.364617 
L 332.5824 222.563211 
L 332.82048 222.406693 
L 333.05856 222.505782 
L 333.29664 222.349584 
L 333.7728 222.547349 
L 334.01088 222.391518 
L 334.72512 222.687039 
L 334.9632 222.531623 
L 335.20128 222.629841 
L 335.43936 222.47474 
L 335.67744 222.572838 
L 335.91552 222.418051 
L 338.05824 223.293883 
L 338.29632 223.139797 
L 338.77248 223.332711 
L 339.01056 223.178982 
L 340.20096 223.658667 
L 340.43904 223.50544 
L 341.86752 224.07605 
L 342.1056 223.923371 
L 343.05792 224.3008 
L 343.296 224.14857 
L 343.53408 224.242582 
L 344.24832 223.787552 
L 344.96256 224.069086 
L 345.20064 223.918055 
L 345.43872 224.011636 
L 345.91488 223.710416 
L 347.10528 224.176486 
L 347.58144 223.876725 
L 347.81952 223.969574 
L 348.0576 223.820108 
L 349.48608 224.374298 
L 349.96224 224.076654 
L 351.15264 224.53482 
L 351.39072 224.386591 
L 351.86688 224.568912 
L 352.10496 224.421015 
L 352.34304 224.512 
L 352.58112 224.364387 
L 353.29536 224.636602 
L 354.48576 223.902769 
L 355.2 224.17435 
L 355.67616 223.882726 
L 356.15232 224.063235 
L 356.3904 223.91786 
L 356.62848 224.007943 
L 356.86656 223.862843 
L 357.10464 223.952826 
L 357.34272 223.808 
L 357.5808 223.897884 
L 358.05696 223.609007 
L 358.29504 223.698835 
L 358.7712 223.410957 
L 359.00928 223.500729 
L 359.24736 223.357174 
L 359.72352 223.536378 
L 359.9616 223.393133 
L 360.43776 223.571859 
L 360.91392 223.286212 
L 361.152 223.375448 
L 361.62816 223.090779 
L 362.3424 223.357902 
L 363.05664 222.932935 
L 363.29472 223.021821 
L 363.77088 222.739692 
L 364.00896 222.828522 
L 364.24704 222.687826 
L 364.7232 222.865153 
L 365.19936 222.584575 
L 366.62784 223.113755 
L 367.34208 222.695226 
L 367.58016 222.783067 
L 367.81824 222.644025 
L 368.05632 222.73177 
L 368.2944 222.59298 
L 368.53248 222.68063 
L 369.00864 222.403765 
L 369.72288 222.666146 
L 369.96096 222.528146 
L 370.19904 222.615379 
L 370.91328 222.202752 
L 371.38944 222.377049 
L 371.62752 222.24 
L 372.10368 222.413846 
L 372.34176 222.277079 
L 372.81792 222.450475 
L 373.056 222.313991 
L 373.53216 222.48694 
L 373.77024 222.350736 
L 374.00832 222.437053 
L 374.2464 222.301091 
L 374.96064 222.559376 
L 375.19872 222.42373 
L 375.67488 222.595351 
L 375.91296 222.459982 
L 376.38912 222.631164 
L 376.6272 222.496072 
L 376.86528 222.581508 
L 377.10336 222.446654 
L 377.57952 222.617219 
L 378.05568 222.348258 
L 378.29376 222.433424 
L 379.008 222.031585 
L 379.96032 222.371424 
L 380.67456 221.971794 
L 380.91264 222.056547 
L 381.15072 221.923765 
L 381.62688 222.092969 
L 381.86496 221.960452 
L 382.34112 222.129231 
L 382.5792 221.996978 
L 383.05536 222.165333 
L 383.29344 222.033344 
L 383.7696 222.201278 
L 384.00768 222.069551 
L 384.48384 222.237066 
L 384.72192 222.1056 
L 385.19808 222.272697 
L 385.43616 222.141492 
L 385.91232 222.308174 
L 386.1504 222.177228 
L 386.62656 222.343497 
L 386.86464 222.212809 
L 387.3408 222.378667 
L 387.57888 222.248236 
L 388.05504 222.413685 
L 388.29312 222.283511 
L 388.76928 222.448552 
L 389.00736 222.318633 
L 389.48352 222.483269 
L 389.7216 222.353605 
L 390.19776 222.517837 
L 390.43584 222.388426 
L 390.912 222.552257 
L 391.15008 222.423098 
L 394.4832 223.557424 
L 394.72128 223.428923 
L 395.19744 223.589209 
L 395.43552 223.460958 
L 395.91168 223.620861 
L 396.14976 223.492857 
L 396.62592 223.652379 
L 396.864 223.524623 
L 397.34016 223.683765 
L 397.57824 223.556255 
L 398.0544 223.715019 
L 398.29248 223.587754 
L 398.76864 223.746142 
L 399.00672 223.619122 
L 400.91136 224.248549 
L 401.14944 224.121972 
L 401.6256 224.278307 
L 401.86368 224.151972 
L 402.33984 224.307942 
L 402.57792 224.181848 
L 403.05408 224.337455 
L 403.29216 224.211601 
L 403.76832 224.366845 
L 404.0064 224.241231 
L 404.48256 224.396115 
L 404.72064 224.270739 
L 407.33952 225.115429 
L 407.5776 224.990586 
L 408.05376 225.142876 
L 408.29184 225.018269 
L 408.768 225.170211 
L 409.00608 225.045839 
L 409.48224 225.197436 
L 409.72032 225.073297 
L 410.19648 225.224551 
L 410.43456 225.100645 
L 410.91072 225.251556 
L 411.1488 225.127882 
L 414.24384 226.099405 
L 414.24384 226.099405 
" clip-path="url(#pbd632885ae)" style="fill: none; stroke: #d62728; stroke-width: 1.5; stroke-linecap: square"/>
    <defs>
     <path id="mc46b34744f" d="M -0 4.242641 
L 4.242641 0 
L 0 -4.242641 
L -4.242641 -0 
z
" style="stroke: #d62728; stroke-linejoin: miter"/>
    </defs>
    <g clip-path="url(#pbd632885ae)">
     <use xlink:href="#mc46b34744f" x="57.6" y="41.472" style="fill: #d62728; stroke: #d62728; stroke-linejoin: miter"/>
     <use xlink:href="#mc46b34744f" x="81.408" y="237.616158" style="fill: #d62728; stroke: #d62728; stroke-linejoin: miter"/>
     <use xlink:href="#mc46b34744f" x="105.216" y="270.954985" style="fill: #d62728; stroke: #d62728; stroke-linejoin: miter"/>
     <use xlink:href="#mc46b34744f" x="129.024" y="288.035721" style="fill: #d62728; stroke: #d62728; stroke-linejoin: miter"/>
     <use xlink:href="#mc46b34744f" x="152.832" y="248.669207" style="fill: #d62728; stroke: #d62728; stroke-linejoin: miter"/>
     <use xlink:href="#mc46b34744f" x="176.64" y="240.362539" style="fill: #d62728; stroke: #d62728; stroke-linejoin: miter"/>
     <use xlink:href="#mc46b34744f" x="200.448" y="245.151734" style="fill: #d62728; stroke: #d62728; stroke-linejoin: miter"/>
     <use xlink:href="#mc46b34744f" x="224.256" y="232.546237" style="fill: #d62728; stroke: #d62728; stroke-linejoin: miter"/>
     <use xlink:href="#mc46b34744f" x="248.064" y="223.08818" style="fill: #d62728; stroke: #d62728; stroke-linejoin: miter"/>
     <use xlink:href="#mc46b34744f" x="271.872" y="219.339436" style="fill: #d62728; stroke: #d62728; stroke-linejoin: miter"/>
     <use xlink:href="#mc46b34744f" x="295.68" y="218.998154" style="fill: #d62728; stroke: #d62728; stroke-linejoin: miter"/>
     <use xlink:href="#mc46b34744f" x="319.488" y="221.941537" style="fill: #d62728; stroke: #d62728; stroke-linejoin: miter"/>
     <use xlink:href="#mc46b34744f" x="343.296" y="224.14857" style="fill: #d62728; stroke: #d62728; stroke-linejoin: miter"/>
     <use xlink:href="#mc46b34744f" x="367.104" y="222.834521" style="fill: #d62728; stroke: #d62728; stroke-linejoin: miter"/>
     <use xlink:href="#mc46b34744f" x="390.912" y="222.552257" style="fill: #d62728; stroke: #d62728; stroke-linejoin: miter"/>
    </g>
   </g>
   <g id="patch_3">
    <path d="M 57.6 307.584 
L 57.6 41.472 
" style="fill: none; stroke: #000000; stroke-width: 0.8; stroke-linejoin: miter; stroke-linecap: square"/>
   </g>
   <g id="patch_4">
    <path d="M 414.72 307.584 
L 414.72 41.472 
" style="fill: none; stroke: #000000; stroke-width: 0.8; stroke-linejoin: miter; stroke-linecap: square"/>
   </g>
   <g id="patch_5">
    <path d="M 57.6 307.584 
L 414.72 307.584 
" style="fill: none; stroke: #000000; stroke-width: 0.8; stroke-linejoin: miter; stroke-linecap: square"/>
   </g>
   <g id="patch_6">
    <path d="M 57.6 41.472 
L 414.72 41.472 
" style="fill: none; stroke: #000000; stroke-width: 0.8; stroke-linejoin: miter; stroke-linecap: square"/>
   </g>
   <g id="legend_1">
    <g id="patch_7">
     <path d="M 276.73875 108.1845 
L 407.72 108.1845 
Q 409.72 108.1845 409.72 106.1845 
L 409.72 48.472 
Q 409.72 46.472 407.72 46.472 
L 276.73875 46.472 
Q 274.73875 46.472 274.73875 48.472 
L 274.73875 106.1845 
Q 274.73875 108.1845 276.73875 108.1845 
z
" style="fill: #ffffff; opacity: 0.8; stroke: #cccccc; stroke-linejoin: miter"/>
    </g>
    <g id="line2d_13">
     <path d="M 278.73875 54.570438 
L 288.73875 54.570438 
L 298.73875 54.570438 
" style="fill: none; stroke: #1f77b4; stroke-width: 1.5; stroke-linecap: square"/>
     <g>
      <use xlink:href="#m0a48a8234d" x="288.73875" y="54.570438" style="fill: #1f77b4; stroke: #1f77b4; stroke-linejoin: miter"/>
     </g>
    </g>
    <g id="text_11">
     <!-- Deterministic AMRC -->
     <g transform="translate(306.73875 58.070438)scale(0.1 -0.1)">
      <defs>
       <path id="DejaVuSans-44" d="M 1259 4147 
L 1259 519 
L 2022 519 
Q 2988 519 3436 956 
Q 3884 1394 3884 2338 
Q 3884 3275 3436 3711 
Q 2988 4147 2022 4147 
L 1259 4147 
z
M 628 4666 
L 1925 4666 
Q 3281 4666 3915 4102 
Q 4550 3538 4550 2338 
Q 4550 1131 3912 565 
Q 3275 0 1925 0 
L 628 0 
L 628 4666 
z
" transform="scale(0.015625)"/>
       <path id="DejaVuSans-6e" d="M 3513 2113 
L 3513 0 
L 2938 0 
L 2938 2094 
Q 2938 2591 2744 2837 
Q 2550 3084 2163 3084 
Q 1697 3084 1428 2787 
Q 1159 2491 1159 1978 
L 1159 0 
L 581 0 
L 581 3500 
L 1159 3500 
L 1159 2956 
Q 1366 3272 1645 3428 
Q 1925 3584 2291 3584 
Q 2894 3584 3203 3211 
Q 3513 2838 3513 2113 
z
" transform="scale(0.015625)"/>
       <path id="DejaVuSans-4d" d="M 628 4666 
L 1569 4666 
L 2759 1491 
L 3956 4666 
L 4897 4666 
L 4897 0 
L 4281 0 
L 4281 4097 
L 3078 897 
L 2444 897 
L 1241 4097 
L 1241 0 
L 628 0 
L 628 4666 
z
" transform="scale(0.015625)"/>
       <path id="DejaVuSans-52" d="M 2841 2188 
Q 3044 2119 3236 1894 
Q 3428 1669 3622 1275 
L 4263 0 
L 3584 0 
L 2988 1197 
Q 2756 1666 2539 1819 
Q 2322 1972 1947 1972 
L 1259 1972 
L 1259 0 
L 628 0 
L 628 4666 
L 2053 4666 
Q 2853 4666 3247 4331 
Q 3641 3997 3641 3322 
Q 3641 2881 3436 2590 
Q 3231 2300 2841 2188 
z
M 1259 4147 
L 1259 2491 
L 2053 2491 
Q 2509 2491 2742 2702 
Q 2975 2913 2975 3322 
Q 2975 3731 2742 3939 
Q 2509 4147 2053 4147 
L 1259 4147 
z
" transform="scale(0.015625)"/>
       <path id="DejaVuSans-43" d="M 4122 4306 
L 4122 3641 
Q 3803 3938 3442 4084 
Q 3081 4231 2675 4231 
Q 1875 4231 1450 3742 
Q 1025 3253 1025 2328 
Q 1025 1406 1450 917 
Q 1875 428 2675 428 
Q 3081 428 3442 575 
Q 3803 722 4122 1019 
L 4122 359 
Q 3791 134 3420 21 
Q 3050 -91 2638 -91 
Q 1578 -91 968 557 
Q 359 1206 359 2328 
Q 359 3453 968 4101 
Q 1578 4750 2638 4750 
Q 3056 4750 3426 4639 
Q 3797 4528 4122 4306 
z
" transform="scale(0.015625)"/>
      </defs>
      <use xlink:href="#DejaVuSans-44"/>
      <use xlink:href="#DejaVuSans-65" x="77.001953"/>
      <use xlink:href="#DejaVuSans-74" x="138.525391"/>
      <use xlink:href="#DejaVuSans-65" x="177.734375"/>
      <use xlink:href="#DejaVuSans-72" x="239.257812"/>
      <use xlink:href="#DejaVuSans-6d" x="278.621094"/>
      <use xlink:href="#DejaVuSans-69" x="376.033203"/>
      <use xlink:href="#DejaVuSans-6e" x="403.816406"/>
      <use xlink:href="#DejaVuSans-69" x="467.195312"/>
      <use xlink:href="#DejaVuSans-73" x="494.978516"/>
      <use xlink:href="#DejaVuSans-74" x="547.078125"/>
      <use xlink:href="#DejaVuSans-69" x="586.287109"/>
      <use xlink:href="#DejaVuSans-63" x="614.070312"/>
      <use xlink:href="#DejaVuSans-20" x="669.050781"/>
      <use xlink:href="#DejaVuSans-41" x="700.837891"/>
      <use xlink:href="#DejaVuSans-4d" x="769.246094"/>
      <use xlink:href="#DejaVuSans-52" x="855.525391"/>
      <use xlink:href="#DejaVuSans-43" x="920.007812"/>
     </g>
    </g>
    <g id="line2d_14">
     <path d="M 278.73875 69.248563 
L 288.73875 69.248563 
L 298.73875 69.248563 
" style="fill: none; stroke: #ff7f0e; stroke-width: 1.5; stroke-linecap: square"/>
     <g>
      <use xlink:href="#ma763cf4b16" x="288.73875" y="69.248563" style="fill: #ff7f0e; stroke: #ff7f0e"/>
     </g>
    </g>
    <g id="text_12">
     <!-- AMRC -->
     <g transform="translate(306.73875 72.748563)scale(0.1 -0.1)">
      <use xlink:href="#DejaVuSans-41"/>
      <use xlink:href="#DejaVuSans-4d" x="68.408203"/>
      <use xlink:href="#DejaVuSans-52" x="154.6875"/>
      <use xlink:href="#DejaVuSans-43" x="219.169922"/>
     </g>
    </g>
    <g id="line2d_15">
     <path d="M 278.73875 83.926688 
L 288.73875 83.926688 
L 298.73875 83.926688 
" style="fill: none; stroke-dasharray: 5.55,2.4; stroke-dashoffset: 0; stroke: #2ca02c; stroke-width: 1.5"/>
     <g>
      <use xlink:href="#m9a74a73978" x="288.73875" y="83.926688" style="fill: #2ca02c; stroke: #2ca02c"/>
     </g>
    </g>
    <g id="text_13">
     <!-- Bound AMRC -->
     <g transform="translate(306.73875 87.426688)scale(0.1 -0.1)">
      <defs>
       <path id="DejaVuSans-42" d="M 1259 2228 
L 1259 519 
L 2272 519 
Q 2781 519 3026 730 
Q 3272 941 3272 1375 
Q 3272 1813 3026 2020 
Q 2781 2228 2272 2228 
L 1259 2228 
z
M 1259 4147 
L 1259 2741 
L 2194 2741 
Q 2656 2741 2882 2914 
Q 3109 3088 3109 3444 
Q 3109 3797 2882 3972 
Q 2656 4147 2194 4147 
L 1259 4147 
z
M 628 4666 
L 2241 4666 
Q 2963 4666 3353 4366 
Q 3744 4066 3744 3513 
Q 3744 3084 3544 2831 
Q 3344 2578 2956 2516 
Q 3422 2416 3680 2098 
Q 3938 1781 3938 1306 
Q 3938 681 3513 340 
Q 3088 0 2303 0 
L 628 0 
L 628 4666 
z
" transform="scale(0.015625)"/>
       <path id="DejaVuSans-6f" d="M 1959 3097 
Q 1497 3097 1228 2736 
Q 959 2375 959 1747 
Q 959 1119 1226 758 
Q 1494 397 1959 397 
Q 2419 397 2687 759 
Q 2956 1122 2956 1747 
Q 2956 2369 2687 2733 
Q 2419 3097 1959 3097 
z
M 1959 3584 
Q 2709 3584 3137 3096 
Q 3566 2609 3566 1747 
Q 3566 888 3137 398 
Q 2709 -91 1959 -91 
Q 1206 -91 779 398 
Q 353 888 353 1747 
Q 353 2609 779 3096 
Q 1206 3584 1959 3584 
z
" transform="scale(0.015625)"/>
      </defs>
      <use xlink:href="#DejaVuSans-42"/>
      <use xlink:href="#DejaVuSans-6f" x="68.603516"/>
      <use xlink:href="#DejaVuSans-75" x="129.785156"/>
      <use xlink:href="#DejaVuSans-6e" x="193.164062"/>
      <use xlink:href="#DejaVuSans-64" x="256.542969"/>
      <use xlink:href="#DejaVuSans-20" x="320.019531"/>
      <use xlink:href="#DejaVuSans-41" x="351.806641"/>
      <use xlink:href="#DejaVuSans-4d" x="420.214844"/>
      <use xlink:href="#DejaVuSans-52" x="506.494141"/>
      <use xlink:href="#DejaVuSans-43" x="570.976562"/>
     </g>
    </g>
    <g id="line2d_16">
     <path d="M 278.73875 98.604813 
L 288.73875 98.604813 
L 298.73875 98.604813 
" style="fill: none; stroke: #d62728; stroke-width: 1.5; stroke-linecap: square"/>
     <g>
      <use xlink:href="#mc46b34744f" x="288.73875" y="98.604813" style="fill: #d62728; stroke: #d62728; stroke-linejoin: miter"/>
     </g>
    </g>
    <g id="text_14">
     <!-- DWM-Hoeffding -->
     <g transform="translate(306.73875 102.104813)scale(0.1 -0.1)">
      <defs>
       <path id="DejaVuSans-57" d="M 213 4666 
L 850 4666 
L 1831 722 
L 2809 4666 
L 3519 4666 
L 4500 722 
L 5478 4666 
L 6119 4666 
L 4947 0 
L 4153 0 
L 3169 4050 
L 2175 0 
L 1381 0 
L 213 4666 
z
" transform="scale(0.015625)"/>
       <path id="DejaVuSans-2d" d="M 313 2009 
L 1997 2009 
L 1997 1497 
L 313 1497 
L 313 2009 
z
" transform="scale(0.015625)"/>
       <path id="DejaVuSans-48" d="M 628 4666 
L 1259 4666 
L 1259 2753 
L 3553 2753 
L 3553 4666 
L 4184 4666 
L 4184 0 
L 3553 0 
L 3553 2222 
L 1259 2222 
L 1259 0 
L 628 0 
L 628 4666 
z
" transform="scale(0.015625)"/>
       <path id="DejaVuSans-66" d="M 2375 4863 
L 2375 4384 
L 1825 4384 
Q 1516 4384 1395 4259 
Q 1275 4134 1275 3809 
L 1275 3500 
L 2222 3500 
L 2222 3053 
L 1275 3053 
L 1275 0 
L 697 0 
L 697 3053 
L 147 3053 
L 147 3500 
L 697 3500 
L 697 3744 
Q 697 4328 969 4595 
Q 1241 4863 1831 4863 
L 2375 4863 
z
" transform="scale(0.015625)"/>
       <path id="DejaVuSans-67" d="M 2906 1791 
Q 2906 2416 2648 2759 
Q 2391 3103 1925 3103 
Q 1463 3103 1205 2759 
Q 947 2416 947 1791 
Q 947 1169 1205 825 
Q 1463 481 1925 481 
Q 2391 481 2648 825 
Q 2906 1169 2906 1791 
z
M 3481 434 
Q 3481 -459 3084 -895 
Q 2688 -1331 1869 -1331 
Q 1566 -1331 1297 -1286 
Q 1028 -1241 775 -1147 
L 775 -588 
Q 1028 -725 1275 -790 
Q 1522 -856 1778 -856 
Q 2344 -856 2625 -561 
Q 2906 -266 2906 331 
L 2906 616 
Q 2728 306 2450 153 
Q 2172 0 1784 0 
Q 1141 0 747 490 
Q 353 981 353 1791 
Q 353 2603 747 3093 
Q 1141 3584 1784 3584 
Q 2172 3584 2450 3431 
Q 2728 3278 2906 2969 
L 2906 3500 
L 3481 3500 
L 3481 434 
z
" transform="scale(0.015625)"/>
      </defs>
      <use xlink:href="#DejaVuSans-44"/>
      <use xlink:href="#DejaVuSans-57" x="77.001953"/>
      <use xlink:href="#DejaVuSans-4d" x="175.878906"/>
      <use xlink:href="#DejaVuSans-2d" x="262.158203"/>
      <use xlink:href="#DejaVuSans-48" x="298.242188"/>
      <use xlink:href="#DejaVuSans-6f" x="373.4375"/>
      <use xlink:href="#DejaVuSans-65" x="434.619141"/>
      <use xlink:href="#DejaVuSans-66" x="496.142578"/>
      <use xlink:href="#DejaVuSans-66" x="531.347656"/>
      <use xlink:href="#DejaVuSans-64" x="566.552734"/>
      <use xlink:href="#DejaVuSans-69" x="630.029297"/>
      <use xlink:href="#DejaVuSans-6e" x="657.8125"/>
      <use xlink:href="#DejaVuSans-67" x="721.191406"/>
     </g>
    </g>
   </g>
  </g>
 </g>
 <defs>
  <clipPath id="pbd632885ae">
   <rect x="57.6" y="41.472" width="357.12" height="266.112"/>
  </clipPath>
 </defs>
</svg>
